<?xml version="1.0" encoding="UTF-8" standalone="no"?>
<!DOCTYPE svg PUBLIC "-//W3C//DTD SVG 1.1//EN" "http://www.w3.org/Graphics/SVG/1.1/DTD/svg11.dtd">
<svg xmlns="http://www.w3.org/2000/svg" version="1.1" viewBox="0.00 0.00 257.00 196.00">
<g stroke-width="2.00" fill="none" stroke-linecap="butt">
<path stroke="#81cdd4" vector-effect="non-scaling-stroke" d="
  M 83.13 190.99
  L 198.13 184.52
  A 0.85 0.85 0.0 0 0 198.94 183.67
  L 198.94 134.96"
/>
<path stroke="#81dee5" vector-effect="non-scaling-stroke" d="
  M 198.94 134.96
  L 199.22 11.73
  A 0.58 0.57 -89.0 0 0 198.67 11.15
  L 83.49 7.16"
/>
<path stroke="#efeff1" vector-effect="non-scaling-stroke" d="
  M 83.49 7.16
  L 68.86 9.03
  A 0.67 0.67 0.0 0 0 68.28 9.69
  Q 68.25 89.87 68.28 169.50
  Q 68.28 173.20 65.37 175.17
  Q 63.90 176.16 62.06 175.90
  Q 60.27 175.65 58.43 175.89
  Q 55.34 176.31 58.13 177.70
  Q 62.39 179.84 65.72 182.26
  C 67.94 183.87 70.25 184.95 72.60 186.29
  Q 72.68 186.33 76.00 188.62
  Q 79.11 190.76 83.13 190.99"
/>
<path stroke="#71ced7" vector-effect="non-scaling-stroke" d="
  M 83.49 7.16
  L 83.48 138.32"
/>
<path stroke="#71bdc6" vector-effect="non-scaling-stroke" d="
  M 83.48 138.32
  L 83.13 190.99"
/>
<path stroke="#03abba" vector-effect="non-scaling-stroke" d="
  M 198.94 134.96
  Q 179.06 135.71 159.18 136.15
  C 151.74 136.32 144.06 136.82 136.49 136.95
  Q 128.06 137.10 119.50 137.52
  Q 101.53 138.40 83.48 138.32"
/>
<path stroke="#81dee5" vector-effect="non-scaling-stroke" d="
  M 103.70 57.52
  Q 104.08 60.47 106.90 59.78
  A 0.49 0.49 0.0 0 0 107.23 59.12
  Q 104.79 53.07 102.38 46.59
  Q 101.71 44.78 99.80 45.04
  A 1.41 1.41 0.0 0 0 98.69 45.90
  L 93.47 58.67
  Q 93.18 59.36 93.88 59.65
  C 95.60 60.36 96.77 58.68 97.13 57.25
  Q 97.32 56.52 98.06 56.40
  Q 100.19 56.06 102.83 56.58
  Q 103.60 56.73 103.70 57.52"
/>
<path stroke="#81dee5" vector-effect="non-scaling-stroke" d="
  M 112.75 48.20
  L 116.59 48.30
  Q 118.06 48.34 117.72 46.91
  L 117.59 46.39
  Q 117.37 45.49 116.44 45.49
  L 110.59 45.45
  Q 109.37 45.44 109.29 46.66
  L 109.05 50.79
  Q 108.85 54.12 112.11 53.42
  Q 114.47 52.92 114.98 54.86
  Q 115.29 56.04 114.10 56.64
  C 112.86 57.27 111.38 56.31 110.12 56.01
  A 1.36 1.35 -74.2 0 0 108.52 56.91
  Q 108.17 57.94 109.09 58.56
  C 113.25 61.38 118.62 60.04 117.96 53.91
  C 117.63 50.85 115.06 50.55 112.64 50.33
  Q 111.73 50.25 111.82 49.35
  Q 111.83 49.19 111.84 49.04
  Q 111.89 48.18 112.75 48.20"
/>
<path stroke="#5bcad7" vector-effect="non-scaling-stroke" d="
  M 96.86 68.11
  Q 96.35 68.19 95.85 67.95
  Q 95.55 67.80 95.57 67.47
  Q 95.59 67.26 95.73 67.10
  Q 96.05 66.75 95.67 66.48
  Q 94.86 65.91 94.30 66.67
  Q 93.54 67.71 93.23 69.00
  A 0.42 0.42 0.0 0 0 93.81 69.49
  L 94.61 69.14
  Q 95.14 68.91 95.72 69.03
  L 99.93 69.88
  Q 100.47 69.99 100.83 69.58
  L 101.34 69.01
  Q 101.74 68.56 102.28 68.82
  Q 102.88 69.11 103.31 69.61
  Q 103.61 69.95 104.05 69.98
  Q 105.09 70.06 105.72 69.24
  Q 106.01 68.85 106.40 69.14
  Q 106.97 69.56 107.10 70.19
  Q 107.15 70.41 107.34 70.51
  Q 107.46 70.58 107.59 70.60
  Q 108.19 70.70 108.21 70.09
  Q 108.27 68.11 106.78 66.77
  Q 106.49 66.51 106.11 66.56
  L 104.26 66.81
  Q 103.95 66.85 104.26 66.87
  Q 105.22 66.93 106.20 67.34
  A 0.31 0.31 0.0 0 1 106.37 67.74
  L 106.23 68.10
  Q 106.14 68.34 105.90 68.24
  L 101.80 66.43
  Q 100.36 65.80 100.34 67.37
  Q 100.33 67.95 100.08 68.46
  Q 99.96 68.71 99.68 68.76
  Q 99.48 68.81 99.28 68.72
  A 0.70 0.70 0.0 0 1 98.88 67.93
  Q 98.95 67.66 98.85 67.40
  Q 98.59 66.74 97.88 66.82
  Q 97.53 66.87 97.19 66.86
  Q 96.55 66.85 97.15 67.05
  Q 97.44 67.15 97.40 67.53
  A 0.67 0.67 0.0 0 1 96.86 68.11"
/>
<path stroke="#5bcad7" vector-effect="non-scaling-stroke" d="
  M 104.15 73.60
  Q 105.17 73.61 105.79 73.00
  Q 106.71 72.11 105.42 72.08
  Q 103.06 72.04 100.76 72.34
  Q 99.24 72.54 100.24 73.96
  Q 100.98 75.00 99.77 74.58
  Q 99.03 74.32 99.00 73.53
  Q 98.99 72.92 98.43 72.67
  Q 97.95 72.45 97.39 72.64
  A 0.45 0.45 0.0 0 0 97.08 73.15
  Q 97.21 73.81 96.66 74.18
  Q 96.01 74.60 95.87 73.85
  Q 95.75 73.28 96.16 73.02
  Q 96.55 72.77 96.15 72.52
  Q 93.93 71.16 93.30 74.18
  A 0.69 0.69 0.0 0 0 93.99 75.02
  Q 94.90 75.00 95.66 74.62
  A 1.03 1.02 -48.8 0 1 96.46 74.56
  L 100.40 75.87
  Q 101.06 76.09 101.00 75.40
  Q 100.92 74.48 101.13 73.61
  Q 101.35 72.72 101.88 73.47
  Q 102.94 74.97 104.53 76.07
  Q 105.48 76.74 105.55 78.12
  Q 105.57 78.62 105.98 78.91
  L 106.88 79.55
  Q 107.57 80.05 107.26 79.26
  Q 106.92 78.40 106.13 77.94
  Q 105.69 77.69 105.64 77.19
  L 105.47 75.54
  Q 105.40 74.96 104.91 74.65
  L 104.01 74.09
  Q 103.21 73.59 104.15 73.60"
/>
<path stroke="#5bcad7" vector-effect="non-scaling-stroke" d="
  M 109.3997 72.7392
  A 0.27 0.27 0.0 0 0 109.1951 72.4168
  L 107.3994 72.0154
  A 0.27 0.27 0.0 0 0 107.0770 72.2200
  L 106.5403 74.6208
  A 0.27 0.27 0.0 0 0 106.7449 74.9432
  L 108.5406 75.3446
  A 0.27 0.27 0.0 0 0 108.8630 75.1400
  L 109.3997 72.7392"
/>
<path stroke="#71ced7" vector-effect="non-scaling-stroke" d="
  M 98.85 79.47
  L 98.81 79.00
  Q 98.76 78.41 98.19 78.54
  Q 97.67 78.64 97.07 78.77
  Q 96.53 78.89 97.06 79.03
  Q 97.23 79.08 97.17 79.35
  Q 97.12 79.53 96.95 79.60
  Q 96.80 79.66 96.66 79.63
  Q 96.37 79.56 96.30 79.27
  Q 96.04 78.16 94.93 77.80
  Q 94.43 77.64 94.01 77.96
  Q 93.13 78.61 93.34 79.84
  Q 93.44 80.41 93.94 80.11
  Q 95.03 79.46 96.06 80.27
  Q 96.49 80.61 97.05 80.61
  L 100.06 80.61
  Q 100.61 80.61 101.04 80.24
  Q 102.37 79.10 103.46 80.42
  Q 103.74 80.76 104.11 80.51
  Q 104.49 80.23 104.97 80.14
  Q 106.06 79.92 105.17 79.25
  Q 103.80 78.20 100.85 78.45
  Q 100.23 78.50 100.12 79.11
  Q 99.95 80.00 99.03 79.70
  Q 98.86 79.65 98.85 79.47"
/>
<path stroke="#5bcad7" vector-effect="non-scaling-stroke" d="
  M 109.28 89.77
  Q 109.02 89.29 108.94 88.75
  A 0.42 0.42 0.0 0 0 108.22 88.52
  Q 108.05 88.68 108.04 88.90
  Q 107.94 90.25 108.18 91.82
  Q 108.27 92.42 108.74 92.04
  Q 109.30 91.60 110.06 91.61
  Q 110.52 91.62 110.59 91.17
  L 111.22 87.01
  A 1.02 1.01 24.4 0 0 110.86 86.07
  Q 110.26 85.57 110.68 85.10
  Q 111.16 84.56 110.74 83.97
  Q 109.10 81.62 107.04 79.74
  Q 106.89 79.60 106.75 79.74
  L 106.29 80.15
  Q 106.08 80.35 106.32 80.51
  L 109.00 82.36
  Q 109.36 82.61 108.98 82.84
  Q 108.85 82.92 108.68 82.93
  Q 108.19 82.95 108.08 83.43
  Q 108.01 83.73 108.17 84.04
  Q 108.46 84.60 108.89 84.14
  Q 109.17 83.84 109.59 83.79
  Q 109.97 83.75 110.00 84.13
  L 110.03 84.59
  Q 110.05 84.98 109.67 84.97
  Q 109.27 84.96 108.98 84.73
  Q 108.38 84.27 108.19 85.01
  L 107.86 86.29
  Q 107.57 87.39 108.35 86.54
  Q 109.32 85.48 110.56 86.78
  A 1.30 1.29 -40.7 0 1 110.41 88.69
  Q 109.89 89.08 109.80 89.69
  Q 109.66 90.50 109.28 89.77"
/>
<path stroke="#71ced7" vector-effect="non-scaling-stroke" d="
  M 106.09 84.18
  L 106.55 83.77
  Q 107.02 83.35 106.41 83.19
  Q 105.99 83.08 105.58 83.19
  A 0.94 0.93 83.9 0 0 104.90 84.04
  Q 104.87 84.55 105.29 84.84
  A 0.53 0.53 0.0 0 1 105.32 85.69
  Q 104.99 85.95 105.03 86.37
  Q 105.05 86.67 105.25 86.90
  Q 105.78 87.53 106.18 86.81
  Q 106.32 86.54 106.36 86.22
  Q 106.44 85.69 106.06 85.30
  Q 105.93 85.17 105.87 85.00
  Q 105.71 84.52 106.09 84.18"
/>
<path stroke="#5bcad7" vector-effect="non-scaling-stroke" d="
  M 95.51 84.21
  Q 95.66 84.19 95.76 84.10
  Q 96.08 83.83 95.71 83.62
  Q 94.82 83.12 93.79 83.37
  Q 93.23 83.50 93.35 84.08
  Q 93.48 84.68 93.31 85.25
  Q 93.10 85.95 93.84 85.94
  Q 94.95 85.91 95.87 85.57
  Q 96.36 85.40 96.86 85.56
  L 99.71 86.51
  A 1.12 1.11 -50.8 0 0 100.63 86.41
  Q 101.98 85.62 101.02 84.92
  A 0.44 0.42 33.5 0 1 100.90 84.37
  Q 101.21 83.84 101.85 83.99
  A 1.05 1.05 0.0 0 1 102.66 85.14
  Q 102.58 85.80 103.00 86.37
  Q 103.65 87.26 103.73 86.16
  L 103.87 84.44
  Q 103.91 83.82 103.33 83.60
  Q 101.95 83.08 100.15 83.51
  Q 99.59 83.65 100.02 84.03
  Q 100.82 84.74 99.99 85.41
  A 0.69 0.69 0.0 0 1 98.86 84.85
  Q 98.89 84.20 99.30 83.86
  A 0.16 0.16 0.0 0 0 99.29 83.60
  Q 99.02 83.42 98.73 83.48
  Q 97.02 83.82 95.66 84.87
  Q 95.60 84.92 95.53 84.86
  Q 95.42 84.77 95.34 84.68
  Q 94.88 84.25 95.51 84.21"
/>
<path stroke="#5bcad7" vector-effect="non-scaling-stroke" d="
  M 95.57 90.15
  L 95.97 89.98
  A 0.46 0.46 0.0 0 0 96.00 89.15
  Q 94.91 88.55 94.01 89.13
  Q 93.59 89.41 93.58 89.91
  L 93.55 91.76
  Q 93.53 92.64 94.18 92.04
  Q 94.73 91.54 94.96 90.82
  Q 95.12 90.35 95.57 90.15"
/>
<path stroke="#5bcad7" vector-effect="non-scaling-stroke" d="
  M 105.79 89.48
  Q 105.55 89.70 105.24 89.76
  Q 104.50 89.92 104.93 90.54
  Q 105.62 91.56 106.23 92.45
  Q 106.39 92.68 106.67 92.63
  Q 107.13 92.53 106.72 92.30
  Q 105.58 91.65 106.32 90.53
  Q 106.65 90.03 106.43 89.48
  Q 106.30 89.16 105.95 89.10
  Q 105.88 89.09 105.87 89.16
  Q 105.86 89.21 105.87 89.26
  Q 105.88 89.39 105.79 89.48"
/>
<path stroke="#5bcad7" vector-effect="non-scaling-stroke" d="
  M 100.13 90.37
  Q 100.07 90.77 100.20 91.17
  Q 100.49 92.07 100.94 91.24
  Q 101.49 90.22 100.68 89.41
  A 0.44 0.44 0.0 0 0 99.95 89.59
  Q 99.81 90.03 100.13 90.37"
/>
<path stroke="#5bcad7" vector-effect="non-scaling-stroke" d="
  M 103.11 89.87
  L 102.08 89.99
  Q 101.24 90.09 101.90 90.61
  Q 102.43 91.02 103.09 91.10
  Q 103.71 91.16 103.58 90.55
  Q 103.50 90.17 103.85 90.02
  Q 104.35 89.81 103.92 89.47
  Q 103.65 89.26 103.33 89.41
  Q 103.19 89.48 103.24 89.68
  Q 103.28 89.85 103.11 89.87"
/>
<path stroke="#5bcad7" vector-effect="non-scaling-stroke" d="
  M 97.50 90.49
  L 97.00 91.01
  Q 96.38 91.66 97.27 91.81
  L 98.45 92.01
  Q 99.15 92.13 99.03 91.43
  Q 98.86 90.46 98.24 89.73
  Q 98.04 89.50 97.74 89.58
  Q 97.49 89.64 97.25 89.75
  Q 96.96 89.87 97.27 89.92
  Q 97.48 89.95 97.57 90.14
  A 0.33 0.32 56.8 0 1 97.50 90.49"
/>
<path stroke="#5bcad7" vector-effect="non-scaling-stroke" d="
  M 97.56 96.34
  A 1.29 1.28 -83.8 0 1 96.25 97.40
  Q 94.91 97.35 94.19 96.57
  Q 93.50 95.82 94.43 95.39
  Q 95.27 95.02 96.09 94.59
  Q 96.86 94.18 95.99 94.12
  Q 94.89 94.04 94.03 94.80
  A 1.74 1.73 36.0 0 0 94.49 97.68
  Q 96.27 98.46 97.95 97.02
  Q 98.31 96.70 98.78 96.81
  Q 99.24 96.91 99.63 97.16
  Q 100.17 97.51 99.91 96.93
  Q 99.47 95.97 99.77 95.07
  Q 99.99 94.43 99.32 94.40
  C 98.22 94.36 97.72 95.45 97.56 96.34"
/>
<path stroke="#5bcad7" vector-effect="non-scaling-stroke" d="
  M 105.13 95.50
  L 105.17 97.47
  A 0.29 0.28 -12.6 0 0 105.57 97.72
  L 105.88 97.58
  Q 105.98 97.53 105.96 97.41
  Q 105.62 95.86 106.28 94.69
  Q 106.50 94.30 106.06 94.26
  Q 104.97 94.13 103.96 94.55
  Q 103.52 94.73 103.09 94.54
  Q 102.25 94.18 101.37 94.41
  Q 100.49 94.64 101.33 94.99
  Q 102.95 95.65 104.47 95.06
  Q 105.11 94.80 105.13 95.50"
/>
<path stroke="#5bcad7" vector-effect="non-scaling-stroke" d="
  M 107.73 96.03
  Q 107.47 96.19 107.34 96.46
  Q 107.05 97.09 107.74 97.18
  L 109.44 97.40
  Q 110.17 97.50 109.99 96.78
  Q 109.69 95.65 108.68 94.61
  Q 108.20 94.13 108.18 94.81
  Q 108.18 94.96 108.19 95.10
  A 0.98 0.98 0.0 0 1 107.73 96.03"
/>
<path stroke="#5bcad7" vector-effect="non-scaling-stroke" d="
  M 101.96 95.88
  A 0.38 0.38 0.0 0 0 101.47 96.08
  Q 101.18 96.74 100.61 97.21
  Q 99.86 97.83 100.83 97.73
  Q 101.38 97.67 101.85 97.31
  A 0.79 0.78 44.6 0 1 102.82 97.31
  Q 103.05 97.49 103.34 97.59
  Q 104.27 97.90 103.65 97.14
  Q 102.93 96.28 101.96 95.88"
/>
<path stroke="#81dee5" vector-effect="non-scaling-stroke" d="
  M 101.36 53.74
  A 0.34 0.34 0.0 0 0 101.73 53.31
  L 100.84 50.08
  A 0.34 0.34 0.0 0 0 100.20 50.04
  L 98.96 53.01
  A 0.34 0.34 0.0 0 0 99.23 53.48
  L 101.36 53.74"
/>
<path stroke="#5bb9c6" vector-effect="non-scaling-stroke" d="
  M 124.49 153.08
  L 122.90 151.53
  A 2.72 2.72 0.0 0 1 123.54 147.18
  Q 125.39 146.20 127.89 147.05
  Q 127.91 147.05 127.91 147.04
  L 127.96 146.79
  Q 128.00 146.61 127.83 146.58
  Q 125.23 146.06 122.71 146.66
  Q 121.79 146.88 121.81 147.82
  L 121.85 150.49
  A 0.62 0.60 -9.7 0 1 121.42 151.08
  Q 121.19 151.16 121.04 151.34
  Q 120.36 152.16 121.38 151.88
  Q 122.09 151.68 122.60 152.16
  Q 122.90 152.43 122.88 152.83
  L 122.78 155.35
  Q 122.75 156.22 123.55 155.87
  Q 124.92 155.28 126.14 155.92
  Q 126.68 156.20 127.05 155.71
  L 127.90 154.57
  Q 128.36 153.95 127.80 153.42
  L 126.90 152.56
  Q 126.52 152.20 126.15 152.57
  Q 125.79 152.94 125.32 153.20
  Q 124.86 153.45 124.49 153.08"
/>
<path stroke="#71bdc6" vector-effect="non-scaling-stroke" d="
  M 99.91 148.13
  Q 100.18 148.60 100.71 148.66
  Q 101.45 148.76 100.90 148.25
  Q 100.35 147.75 100.20 147.02
  Q 100.10 146.56 99.63 146.53
  Q 98.47 146.44 97.33 146.60
  Q 96.91 146.66 97.34 146.69
  Q 98.29 146.75 99.04 147.22
  Q 99.59 147.57 99.91 148.13"
/>
<path stroke="#03abba" vector-effect="non-scaling-stroke" d="
  M 96.38 146.67
  Q 93.89 147.06 91.37 147.80
  Q 91.31 147.81 91.33 147.88
  L 91.41 148.14
  Q 91.48 148.39 91.73 148.30
  Q 93.88 147.57 96.35 147.09
  Q 96.48 147.07 96.46 146.94
  L 96.41 146.69
  Q 96.41 146.66 96.38 146.67"
/>
<path stroke="#5bb9c6" vector-effect="non-scaling-stroke" d="
  M 102.04 160.60
  L 93.17 160.66
  Q 92.79 160.67 93.04 160.96
  Q 93.66 161.71 94.63 161.67
  Q 98.42 161.53 102.04 160.60"
/>
<path stroke="#5bb9c6" vector-effect="non-scaling-stroke" d="
  M 102.04 160.60
  Q 103.34 160.70 103.38 159.76
  Q 103.56 155.87 101.62 152.68
  A 1.37 1.37 0.0 0 0 99.46 152.44
  L 98.92 153.00
  Q 98.39 153.54 98.10 152.85
  Q 97.78 152.08 96.92 152.29
  Q 96.55 152.37 96.23 152.56
  Q 95.17 153.15 93.93 152.48
  Q 92.17 151.51 92.43 153.50
  Q 92.65 155.20 92.39 156.93
  Q 92.24 157.93 92.81 157.09
  C 94.50 154.56 96.31 156.93 98.06 155.63
  Q 98.52 155.30 98.98 155.63
  Q 100.03 156.39 100.91 155.62
  Q 101.30 155.28 101.65 155.67
  Q 103.60 157.81 102.04 160.60"
/>
<path stroke="#03abba" vector-effect="non-scaling-stroke" d="
  M 105.32 152.06
  Q 105.15 152.08 105.16 152.24
  Q 105.32 154.75 105.45 157.13
  Q 105.50 158.20 105.65 157.13
  Q 105.97 154.90 105.53 152.22
  Q 105.51 152.05 105.33 152.06
  L 105.32 152.06"
/>
<path stroke="#5bb9c6" vector-effect="non-scaling-stroke" d="
  M 125.54 157.24
  A 0.45 0.44 -51.6 0 0 125.62 158.00
  Q 126.15 158.23 126.73 158.04
  A 0.60 0.59 -47.1 0 0 126.69 156.90
  Q 126.17 156.77 125.54 157.24"
/>
<path stroke="#5bb9c6" vector-effect="non-scaling-stroke" d="
  M 122.67 158.21
  Q 122.70 158.44 122.82 158.61
  Q 122.98 158.86 123.26 158.77
  Q 123.80 158.59 124.00 158.03
  A 0.68 0.68 0.0 0 0 123.50 157.14
  Q 122.97 157.03 122.59 157.42
  Q 122.51 157.50 122.49 157.62
  Q 122.45 157.80 122.57 157.96
  Q 122.66 158.07 122.67 158.21"
/>
<path stroke="#81cdd4" vector-effect="non-scaling-stroke" d="
  M 114.08 185.68
  A 1.08 1.08 0.0 0 0 115.09 184.60
  L 115.15 165.72
  A 1.08 1.08 0.0 0 0 114.02 164.64
  L 93.89 165.56
  A 1.08 1.08 0.0 0 0 92.86 166.64
  L 92.76 185.93
  A 1.08 1.08 0.0 0 0 93.91 187.01
  L 114.08 185.68"
/>
<path stroke="#81cdd4" vector-effect="non-scaling-stroke" d="
  M 120.70 165.16
  Q 119.30 164.35 117.83 165.63
  A 2.19 2.12 79.8 0 0 117.20 166.57
  Q 116.41 168.86 118.35 169.49
  A 2.65 2.64 -76.9 0 0 121.77 167.36
  Q 121.91 166.44 122.46 165.66
  Q 123.05 164.82 122.10 165.21
  Q 121.95 165.27 121.80 165.31
  Q 121.22 165.46 120.70 165.16"
/>
<path stroke="#81cdd4" vector-effect="non-scaling-stroke" d="
  M 171.14 173.84
  Q 170.16 173.37 169.40 172.43
  Q 168.48 171.29 168.28 172.74
  L 168.02 174.73
  Q 167.91 175.51 168.69 175.43
  Q 171.49 175.13 174.01 175.09
  Q 176.41 175.06 177.66 172.53
  Q 177.70 172.43 177.80 172.47
  L 178.11 172.58
  Q 178.50 172.72 178.39 173.13
  L 177.28 177.02
  Q 177.11 177.65 177.76 177.62
  L 187.02 177.25
  Q 187.75 177.23 187.87 176.50
  L 188.16 174.76
  Q 188.28 174.04 188.86 174.47
  Q 190.42 175.63 191.42 174.39
  Q 192.31 173.28 190.88 173.34
  Q 189.55 173.40 189.66 172.11
  Q 189.75 170.99 189.93 169.79
  Q 190.06 168.93 189.40 168.45
  Q 189.12 168.25 188.90 168.52
  Q 188.80 168.65 188.63 168.63
  Q 188.17 168.60 188.15 168.13
  Q 188.12 167.42 187.65 166.93
  Q 187.16 166.42 186.47 166.47
  L 177.80 167.03
  Q 177.18 167.07 177.15 167.70
  L 176.99 171.29
  A 1.58 1.58 0.0 0 1 175.49 172.80
  Q 173.71 172.89 172.46 172.20
  Q 172.03 171.96 171.87 172.43
  Q 171.70 172.95 171.71 173.48
  Q 171.72 174.12 171.14 173.84"
/>
<path stroke="#5bb9c6" vector-effect="non-scaling-stroke" d="
  M 125.78 154.25
  Q 125.66 154.86 126.24 155.05
  Q 126.53 155.14 126.78 154.97
  Q 127.04 154.79 127.04 154.46
  Q 127.04 154.00 126.84 153.61
  Q 126.48 152.90 126.05 153.57
  Q 125.85 153.88 125.78 154.25"
/>
<path stroke="#c9dce3" vector-effect="non-scaling-stroke" d="
  M 100.88 153.96
  Q 100.88 153.35 100.42 153.75
  Q 99.89 154.23 100.26 154.74
  A 0.34 0.34 0.0 0 0 100.88 154.54
  L 100.88 153.96"
/>
<path stroke="#d9ecf1" vector-effect="non-scaling-stroke" d="
  M 102.22 170.23
  Q 103.10 170.60 104.03 170.13"
/>
<path stroke="#81cdd4" vector-effect="non-scaling-stroke" d="
  M 104.03 170.13
  L 112.77 170.02
  Q 113.45 170.01 113.48 169.32
  L 113.59 166.64
  A 0.82 0.81 1.0 0 0 112.76 165.79
  L 100.49 165.92
  A 0.38 0.38 0.0 0 0 100.19 166.53
  L 100.95 167.50
  A 0.91 0.90 -46.2 0 1 100.97 168.58
  Q 100.73 168.91 100.35 169.00
  Q 99.48 169.20 99.50 168.31
  L 99.55 166.85
  Q 99.57 166.13 98.87 166.25
  L 95.26 166.91
  Q 94.57 167.03 94.50 167.74
  L 94.26 170.02
  Q 94.18 170.83 95.00 170.77
  L 102.22 170.23"
/>
<path stroke="#5bb9c6" vector-effect="non-scaling-stroke" d="
  M 104.03 170.13
  L 103.54 170.02
  Q 103.06 169.90 103.08 169.42
  Q 103.08 169.29 103.13 169.17
  Q 103.20 169.02 103.36 168.96
  L 105.81 168.08
  Q 106.02 168.01 106.13 167.81
  Q 106.29 167.52 106.10 167.31
  A 0.65 0.64 -31.0 0 0 105.40 167.14
  Q 104.07 167.62 102.46 167.22
  Q 101.99 167.10 101.76 167.46
  Q 101.48 167.89 101.82 168.28
  Q 102.67 169.23 102.22 170.23"
/>
<path stroke="#efeff1" vector-effect="non-scaling-stroke" d="
  M 105.80 172.06
  L 106.05 172.72"
/>
<path stroke="#a3a8aa" vector-effect="non-scaling-stroke" d="
  M 106.05 172.72
  Q 105.09 173.01 103.98 172.91
  Q 103.57 172.88 103.36 173.01
  Q 103.07 173.20 102.97 173.54"
/>
<path stroke="#efeff1" vector-effect="non-scaling-stroke" d="
  M 102.97 173.54
  Q 102.62 173.84 102.09 173.06"
/>
<path stroke="#a3a8aa" vector-effect="non-scaling-stroke" d="
  M 102.09 173.06
  Q 101.32 172.83 101.01 173.34
  Q 100.76 173.74 100.30 173.64
  Q 99.99 173.58 99.75 173.35
  Q 98.15 173.03 98.23 174.48
  Q 98.34 176.44 98.26 178.07"
/>
<path stroke="#efeff1" vector-effect="non-scaling-stroke" d="
  M 98.26 178.07
  Q 99.52 178.23 99.87 179.03
  Q 100.06 179.47 100.44 179.78
  Q 101.20 180.41 102.00 179.83
  Q 102.41 179.53 102.91 179.47
  L 107.22 178.93"
/>
<path stroke="#a3a8aa" vector-effect="non-scaling-stroke" d="
  M 107.22 178.93
  Q 107.70 179.19 108.24 178.79"
/>
<path stroke="#efeff1" vector-effect="non-scaling-stroke" d="
  M 108.24 178.79
  Q 109.76 178.90 111.12 178.47"
/>
<path stroke="#a3a8aa" vector-effect="non-scaling-stroke" d="
  M 111.12 178.47
  Q 113.64 178.74 113.68 176.52
  Q 113.72 174.32 113.59 173.22
  Q 113.52 172.70 113.00 172.64
  Q 111.96 172.52 110.84 173.36"
/>
<path stroke="#efeff1" vector-effect="non-scaling-stroke" d="
  M 110.84 173.36
  Q 110.25 172.84 110.03 171.72
  A 0.82 0.81 -87.2 0 0 109.46 171.08
  Q 107.79 170.57 105.75 171.02"
/>
<path stroke="#a3a8aa" vector-effect="non-scaling-stroke" d="
  M 105.75 171.02
  Q 105.01 170.94 104.56 171.29
  Q 104.19 171.56 104.56 171.83
  Q 104.92 172.09 105.80 172.06"
/>
<path stroke="#93989c" vector-effect="non-scaling-stroke" d="
  M 105.75 171.02
  Q 106.32 171.28 106.37 171.50
  Q 106.49 172.08 105.80 172.06"
/>
<path stroke="#93989c" vector-effect="non-scaling-stroke" d="
  M 110.84 173.36
  Q 111.88 174.54 111.31 175.49
  Q 110.90 176.18 110.57 175.46
  Q 110.23 174.71 110.35 173.77
  Q 110.44 173.09 109.76 173.02
  L 108.42 172.88
  Q 107.65 172.80 107.69 173.58
  L 107.84 177.11
  A 0.10 0.08 -38.0 0 1 107.83 177.15
  Q 106.70 178.62 107.22 178.93"
/>
<path stroke="#93989c" vector-effect="non-scaling-stroke" d="
  M 98.26 178.07
  Q 100.01 178.29 100.04 177.76
  Q 100.13 176.17 100.13 174.59
  Q 100.13 174.37 100.35 174.37
  L 100.63 174.37
  Q 100.63 174.37 100.63 174.50
  L 100.63 177.03
  Q 100.63 177.68 101.27 177.82
  L 101.55 177.89
  A 0.41 0.40 -83.8 0 0 102.04 177.49
  L 102.09 173.06"
/>
<path stroke="#93989c" vector-effect="non-scaling-stroke" d="
  M 102.97 173.54
  L 103.01 177.05
  Q 103.01 177.65 103.52 177.99
  Q 104.72 178.77 105.97 177.66
  C 107.26 176.52 106.58 174.75 106.63 173.25
  Q 106.64 172.98 106.44 172.80
  Q 106.24 172.63 106.05 172.72"
/>
<path stroke="#93989c" vector-effect="non-scaling-stroke" d="
  M 111.12 178.47
  Q 111.59 177.72 111.56 177.27
  Q 111.53 176.69 110.96 176.80
  Q 108.96 177.22 108.24 178.79"
/>
<path stroke="#a3a8aa" vector-effect="non-scaling-stroke" d="
  M 96.6005 178.9183
  A 2.85 0.70 92.0 0 0 97.3996 176.0944
  A 2.85 0.70 92.0 0 0 96.7995 173.2217
  A 2.85 0.70 92.0 0 0 96.0004 176.0456
  A 2.85 0.70 92.0 0 0 96.6005 178.9183"
/>
<path stroke="#a3a8aa" vector-effect="non-scaling-stroke" d="
  M 94.68 180.02
  Q 95.46 179.95 95.65 179.44
  Q 95.77 179.15 95.36 178.86
  Q 95.04 178.64 94.67 178.59
  Q 93.96 178.49 94.07 179.20
  L 94.14 179.59
  A 0.51 0.50 83.3 0 0 94.68 180.02"
/>
<path stroke="#a3a8aa" vector-effect="non-scaling-stroke" d="
  M 98.7790 179.5405
  A 0.83 0.48 2.8 0 0 97.9734 179.0206
  A 0.83 0.48 2.8 0 0 97.1210 179.4595
  A 0.83 0.48 2.8 0 0 97.9266 179.9794
  A 0.83 0.48 2.8 0 0 98.7790 179.5405"
/>
<path stroke="#a3a8aa" vector-effect="non-scaling-stroke" d="
  M 112.2286 184.1157
  A 0.27 0.27 0.0 0 0 111.9435 183.8617
  L 96.3693 184.7597
  A 0.27 0.27 0.0 0 0 96.1153 185.0448
  L 96.1314 185.3243
  A 0.27 0.27 0.0 0 0 96.4165 185.5783
  L 111.9907 184.6803
  A 0.27 0.27 0.0 0 0 112.2447 184.3952
  L 112.2286 184.1157"
/>
<path stroke="#81cdd4" vector-effect="non-scaling-stroke" d="
  M 118.26 168.68
  L 121.14 166.59
  A 0.16 0.16 0.0 0 0 121.17 166.36
  L 121.13 166.30
  A 1.76 1.42 -36.0 0 0 118.87 166.18
  L 118.58 166.39
  A 1.76 1.42 -36.0 0 0 117.99 168.58
  L 118.03 168.64
  A 0.16 0.16 0.0 0 0 118.26 168.68"
/>
<path stroke="#5bb9c6" vector-effect="non-scaling-stroke" d="
  M 108.00 167.07
  Q 106.60 167.38 107.00 168.77
  A 0.57 0.56 55.8 0 0 107.99 168.96
  Q 108.50 168.28 108.39 167.35
  A 0.32 0.32 0.0 0 0 108.00 167.07"
/>
<path stroke="#81dee5" vector-effect="non-scaling-stroke" d="
  M 183.41 173.49
  Q 183.49 173.82 183.83 173.92
  Q 187.67 175.00 188.74 171.74
  Q 189.07 170.73 188.59 169.69
  Q 188.34 169.17 188.31 169.75
  Q 188.09 173.45 183.71 172.58
  A 0.36 0.35 -1.0 0 0 183.29 173.01
  L 183.41 173.49"
/>
<path stroke="#81dee5" vector-effect="non-scaling-stroke" d="
  M 182.6763 174.0297
  A 1.66 0.95 9.7 0 0 181.2001 172.8136
  A 1.66 0.95 9.7 0 0 179.4037 173.4703
  A 1.66 0.95 9.7 0 0 180.8799 174.6864
  A 1.66 0.95 9.7 0 0 182.6763 174.0297"
/>
</g>
<path fill="#ffffff" d="
  M 0.00 0.00
  L 257.00 0.00
  L 257.00 196.00
  L 0.00 196.00
  L 0.00 0.00
  Z
  M 83.13 190.99
  L 198.13 184.52
  A 0.85 0.85 0.0 0 0 198.94 183.67
  L 198.94 134.96
  L 199.22 11.73
  A 0.58 0.57 -89.0 0 0 198.67 11.15
  L 83.49 7.16
  L 68.86 9.03
  A 0.67 0.67 0.0 0 0 68.28 9.69
  Q 68.25 89.87 68.28 169.50
  Q 68.28 173.20 65.37 175.17
  Q 63.90 176.16 62.06 175.90
  Q 60.27 175.65 58.43 175.89
  Q 55.34 176.31 58.13 177.70
  Q 62.39 179.84 65.72 182.26
  C 67.94 183.87 70.25 184.95 72.60 186.29
  Q 72.68 186.33 76.00 188.62
  Q 79.11 190.76 83.13 190.99
  Z"
/>
<path fill="#dfdfe3" d="
  M 83.49 7.16
  L 83.48 138.32
  L 83.13 190.99
  Q 79.11 190.76 76.00 188.62
  Q 72.68 186.33 72.60 186.29
  C 70.25 184.95 67.94 183.87 65.72 182.26
  Q 62.39 179.84 58.13 177.70
  Q 55.34 176.31 58.43 175.89
  Q 60.27 175.65 62.06 175.90
  Q 63.90 176.16 65.37 175.17
  Q 68.28 173.20 68.28 169.50
  Q 68.25 89.87 68.28 9.69
  A 0.67 0.67 0.0 0 1 68.86 9.03
  L 83.49 7.16
  Z"
/>
<path fill="#02bccb" d="
  M 83.49 7.16
  L 198.67 11.15
  A 0.58 0.57 -89.0 0 1 199.22 11.73
  L 198.94 134.96
  Q 179.06 135.71 159.18 136.15
  C 151.74 136.32 144.06 136.82 136.49 136.95
  Q 128.06 137.10 119.50 137.52
  Q 101.53 138.40 83.48 138.32
  L 83.49 7.16
  Z
  M 103.70 57.52
  Q 104.08 60.47 106.90 59.78
  A 0.49 0.49 0.0 0 0 107.23 59.12
  Q 104.79 53.07 102.38 46.59
  Q 101.71 44.78 99.80 45.04
  A 1.41 1.41 0.0 0 0 98.69 45.90
  L 93.47 58.67
  Q 93.18 59.36 93.88 59.65
  C 95.60 60.36 96.77 58.68 97.13 57.25
  Q 97.32 56.52 98.06 56.40
  Q 100.19 56.06 102.83 56.58
  Q 103.60 56.73 103.70 57.52
  Z
  M 112.75 48.20
  L 116.59 48.30
  Q 118.06 48.34 117.72 46.91
  L 117.59 46.39
  Q 117.37 45.49 116.44 45.49
  L 110.59 45.45
  Q 109.37 45.44 109.29 46.66
  L 109.05 50.79
  Q 108.85 54.12 112.11 53.42
  Q 114.47 52.92 114.98 54.86
  Q 115.29 56.04 114.10 56.64
  C 112.86 57.27 111.38 56.31 110.12 56.01
  A 1.36 1.35 -74.2 0 0 108.52 56.91
  Q 108.17 57.94 109.09 58.56
  C 113.25 61.38 118.62 60.04 117.96 53.91
  C 117.63 50.85 115.06 50.55 112.64 50.33
  Q 111.73 50.25 111.82 49.35
  Q 111.83 49.19 111.84 49.04
  Q 111.89 48.18 112.75 48.20
  Z
  M 96.86 68.11
  Q 96.35 68.19 95.85 67.95
  Q 95.55 67.80 95.57 67.47
  Q 95.59 67.26 95.73 67.10
  Q 96.05 66.75 95.67 66.48
  Q 94.86 65.91 94.30 66.67
  Q 93.54 67.71 93.23 69.00
  A 0.42 0.42 0.0 0 0 93.81 69.49
  L 94.61 69.14
  Q 95.14 68.91 95.72 69.03
  L 99.93 69.88
  Q 100.47 69.99 100.83 69.58
  L 101.34 69.01
  Q 101.74 68.56 102.28 68.82
  Q 102.88 69.11 103.31 69.61
  Q 103.61 69.95 104.05 69.98
  Q 105.09 70.06 105.72 69.24
  Q 106.01 68.85 106.40 69.14
  Q 106.97 69.56 107.10 70.19
  Q 107.15 70.41 107.34 70.51
  Q 107.46 70.58 107.59 70.60
  Q 108.19 70.70 108.21 70.09
  Q 108.27 68.11 106.78 66.77
  Q 106.49 66.51 106.11 66.56
  L 104.26 66.81
  Q 103.95 66.85 104.26 66.87
  Q 105.22 66.93 106.20 67.34
  A 0.31 0.31 0.0 0 1 106.37 67.74
  L 106.23 68.10
  Q 106.14 68.34 105.90 68.24
  L 101.80 66.43
  Q 100.36 65.80 100.34 67.37
  Q 100.33 67.95 100.08 68.46
  Q 99.96 68.71 99.68 68.76
  Q 99.48 68.81 99.28 68.72
  A 0.70 0.70 0.0 0 1 98.88 67.93
  Q 98.95 67.66 98.85 67.40
  Q 98.59 66.74 97.88 66.82
  Q 97.53 66.87 97.19 66.86
  Q 96.55 66.85 97.15 67.05
  Q 97.44 67.15 97.40 67.53
  A 0.67 0.67 0.0 0 1 96.86 68.11
  Z
  M 104.15 73.60
  Q 105.17 73.61 105.79 73.00
  Q 106.71 72.11 105.42 72.08
  Q 103.06 72.04 100.76 72.34
  Q 99.24 72.54 100.24 73.96
  Q 100.98 75.00 99.77 74.58
  Q 99.03 74.32 99.00 73.53
  Q 98.99 72.92 98.43 72.67
  Q 97.95 72.45 97.39 72.64
  A 0.45 0.45 0.0 0 0 97.08 73.15
  Q 97.21 73.81 96.66 74.18
  Q 96.01 74.60 95.87 73.85
  Q 95.75 73.28 96.16 73.02
  Q 96.55 72.77 96.15 72.52
  Q 93.93 71.16 93.30 74.18
  A 0.69 0.69 0.0 0 0 93.99 75.02
  Q 94.90 75.00 95.66 74.62
  A 1.03 1.02 -48.8 0 1 96.46 74.56
  L 100.40 75.87
  Q 101.06 76.09 101.00 75.40
  Q 100.92 74.48 101.13 73.61
  Q 101.35 72.72 101.88 73.47
  Q 102.94 74.97 104.53 76.07
  Q 105.48 76.74 105.55 78.12
  Q 105.57 78.62 105.98 78.91
  L 106.88 79.55
  Q 107.57 80.05 107.26 79.26
  Q 106.92 78.40 106.13 77.94
  Q 105.69 77.69 105.64 77.19
  L 105.47 75.54
  Q 105.40 74.96 104.91 74.65
  L 104.01 74.09
  Q 103.21 73.59 104.15 73.60
  Z
  M 109.3997 72.7392
  A 0.27 0.27 0.0 0 0 109.1951 72.4168
  L 107.3994 72.0154
  A 0.27 0.27 0.0 0 0 107.0770 72.2200
  L 106.5403 74.6208
  A 0.27 0.27 0.0 0 0 106.7449 74.9432
  L 108.5406 75.3446
  A 0.27 0.27 0.0 0 0 108.8630 75.1400
  L 109.3997 72.7392
  Z
  M 98.85 79.47
  L 98.81 79.00
  Q 98.76 78.41 98.19 78.54
  Q 97.67 78.64 97.07 78.77
  Q 96.53 78.89 97.06 79.03
  Q 97.23 79.08 97.17 79.35
  Q 97.12 79.53 96.95 79.60
  Q 96.80 79.66 96.66 79.63
  Q 96.37 79.56 96.30 79.27
  Q 96.04 78.16 94.93 77.80
  Q 94.43 77.64 94.01 77.96
  Q 93.13 78.61 93.34 79.84
  Q 93.44 80.41 93.94 80.11
  Q 95.03 79.46 96.06 80.27
  Q 96.49 80.61 97.05 80.61
  L 100.06 80.61
  Q 100.61 80.61 101.04 80.24
  Q 102.37 79.10 103.46 80.42
  Q 103.74 80.76 104.11 80.51
  Q 104.49 80.23 104.97 80.14
  Q 106.06 79.92 105.17 79.25
  Q 103.80 78.20 100.85 78.45
  Q 100.23 78.50 100.12 79.11
  Q 99.95 80.00 99.03 79.70
  Q 98.86 79.65 98.85 79.47
  Z
  M 109.28 89.77
  Q 109.02 89.29 108.94 88.75
  A 0.42 0.42 0.0 0 0 108.22 88.52
  Q 108.05 88.68 108.04 88.90
  Q 107.94 90.25 108.18 91.82
  Q 108.27 92.42 108.74 92.04
  Q 109.30 91.60 110.06 91.61
  Q 110.52 91.62 110.59 91.17
  L 111.22 87.01
  A 1.02 1.01 24.4 0 0 110.86 86.07
  Q 110.26 85.57 110.68 85.10
  Q 111.16 84.56 110.74 83.97
  Q 109.10 81.62 107.04 79.74
  Q 106.89 79.60 106.75 79.74
  L 106.29 80.15
  Q 106.08 80.35 106.32 80.51
  L 109.00 82.36
  Q 109.36 82.61 108.98 82.84
  Q 108.85 82.92 108.68 82.93
  Q 108.19 82.95 108.08 83.43
  Q 108.01 83.73 108.17 84.04
  Q 108.46 84.60 108.89 84.14
  Q 109.17 83.84 109.59 83.79
  Q 109.97 83.75 110.00 84.13
  L 110.03 84.59
  Q 110.05 84.98 109.67 84.97
  Q 109.27 84.96 108.98 84.73
  Q 108.38 84.27 108.19 85.01
  L 107.86 86.29
  Q 107.57 87.39 108.35 86.54
  Q 109.32 85.48 110.56 86.78
  A 1.30 1.29 -40.7 0 1 110.41 88.69
  Q 109.89 89.08 109.80 89.69
  Q 109.66 90.50 109.28 89.77
  Z
  M 106.09 84.18
  L 106.55 83.77
  Q 107.02 83.35 106.41 83.19
  Q 105.99 83.08 105.58 83.19
  A 0.94 0.93 83.9 0 0 104.90 84.04
  Q 104.87 84.55 105.29 84.84
  A 0.53 0.53 0.0 0 1 105.32 85.69
  Q 104.99 85.95 105.03 86.37
  Q 105.05 86.67 105.25 86.90
  Q 105.78 87.53 106.18 86.81
  Q 106.32 86.54 106.36 86.22
  Q 106.44 85.69 106.06 85.30
  Q 105.93 85.17 105.87 85.00
  Q 105.71 84.52 106.09 84.18
  Z
  M 95.51 84.21
  Q 95.66 84.19 95.76 84.10
  Q 96.08 83.83 95.71 83.62
  Q 94.82 83.12 93.79 83.37
  Q 93.23 83.50 93.35 84.08
  Q 93.48 84.68 93.31 85.25
  Q 93.10 85.95 93.84 85.94
  Q 94.95 85.91 95.87 85.57
  Q 96.36 85.40 96.86 85.56
  L 99.71 86.51
  A 1.12 1.11 -50.8 0 0 100.63 86.41
  Q 101.98 85.62 101.02 84.92
  A 0.44 0.42 33.5 0 1 100.90 84.37
  Q 101.21 83.84 101.85 83.99
  A 1.05 1.05 0.0 0 1 102.66 85.14
  Q 102.58 85.80 103.00 86.37
  Q 103.65 87.26 103.73 86.16
  L 103.87 84.44
  Q 103.91 83.82 103.33 83.60
  Q 101.95 83.08 100.15 83.51
  Q 99.59 83.65 100.02 84.03
  Q 100.82 84.74 99.99 85.41
  A 0.69 0.69 0.0 0 1 98.86 84.85
  Q 98.89 84.20 99.30 83.86
  A 0.16 0.16 0.0 0 0 99.29 83.60
  Q 99.02 83.42 98.73 83.48
  Q 97.02 83.82 95.66 84.87
  Q 95.60 84.92 95.53 84.86
  Q 95.42 84.77 95.34 84.68
  Q 94.88 84.25 95.51 84.21
  Z
  M 95.57 90.15
  L 95.97 89.98
  A 0.46 0.46 0.0 0 0 96.00 89.15
  Q 94.91 88.55 94.01 89.13
  Q 93.59 89.41 93.58 89.91
  L 93.55 91.76
  Q 93.53 92.64 94.18 92.04
  Q 94.73 91.54 94.96 90.82
  Q 95.12 90.35 95.57 90.15
  Z
  M 105.79 89.48
  Q 105.55 89.70 105.24 89.76
  Q 104.50 89.92 104.93 90.54
  Q 105.62 91.56 106.23 92.45
  Q 106.39 92.68 106.67 92.63
  Q 107.13 92.53 106.72 92.30
  Q 105.58 91.65 106.32 90.53
  Q 106.65 90.03 106.43 89.48
  Q 106.30 89.16 105.95 89.10
  Q 105.88 89.09 105.87 89.16
  Q 105.86 89.21 105.87 89.26
  Q 105.88 89.39 105.79 89.48
  Z
  M 100.13 90.37
  Q 100.07 90.77 100.20 91.17
  Q 100.49 92.07 100.94 91.24
  Q 101.49 90.22 100.68 89.41
  A 0.44 0.44 0.0 0 0 99.95 89.59
  Q 99.81 90.03 100.13 90.37
  Z
  M 103.11 89.87
  L 102.08 89.99
  Q 101.24 90.09 101.90 90.61
  Q 102.43 91.02 103.09 91.10
  Q 103.71 91.16 103.58 90.55
  Q 103.50 90.17 103.85 90.02
  Q 104.35 89.81 103.92 89.47
  Q 103.65 89.26 103.33 89.41
  Q 103.19 89.48 103.24 89.68
  Q 103.28 89.85 103.11 89.87
  Z
  M 97.50 90.49
  L 97.00 91.01
  Q 96.38 91.66 97.27 91.81
  L 98.45 92.01
  Q 99.15 92.13 99.03 91.43
  Q 98.86 90.46 98.24 89.73
  Q 98.04 89.50 97.74 89.58
  Q 97.49 89.64 97.25 89.75
  Q 96.96 89.87 97.27 89.92
  Q 97.48 89.95 97.57 90.14
  A 0.33 0.32 56.8 0 1 97.50 90.49
  Z
  M 97.56 96.34
  A 1.29 1.28 -83.8 0 1 96.25 97.40
  Q 94.91 97.35 94.19 96.57
  Q 93.50 95.82 94.43 95.39
  Q 95.27 95.02 96.09 94.59
  Q 96.86 94.18 95.99 94.12
  Q 94.89 94.04 94.03 94.80
  A 1.74 1.73 36.0 0 0 94.49 97.68
  Q 96.27 98.46 97.95 97.02
  Q 98.31 96.70 98.78 96.81
  Q 99.24 96.91 99.63 97.16
  Q 100.17 97.51 99.91 96.93
  Q 99.47 95.97 99.77 95.07
  Q 99.99 94.43 99.32 94.40
  C 98.22 94.36 97.72 95.45 97.56 96.34
  Z
  M 105.13 95.50
  L 105.17 97.47
  A 0.29 0.28 -12.6 0 0 105.57 97.72
  L 105.88 97.58
  Q 105.98 97.53 105.96 97.41
  Q 105.62 95.86 106.28 94.69
  Q 106.50 94.30 106.06 94.26
  Q 104.97 94.13 103.96 94.55
  Q 103.52 94.73 103.09 94.54
  Q 102.25 94.18 101.37 94.41
  Q 100.49 94.64 101.33 94.99
  Q 102.95 95.65 104.47 95.06
  Q 105.11 94.80 105.13 95.50
  Z
  M 107.73 96.03
  Q 107.47 96.19 107.34 96.46
  Q 107.05 97.09 107.74 97.18
  L 109.44 97.40
  Q 110.17 97.50 109.99 96.78
  Q 109.69 95.65 108.68 94.61
  Q 108.20 94.13 108.18 94.81
  Q 108.18 94.96 108.19 95.10
  A 0.98 0.98 0.0 0 1 107.73 96.03
  Z
  M 101.96 95.88
  A 0.38 0.38 0.0 0 0 101.47 96.08
  Q 101.18 96.74 100.61 97.21
  Q 99.86 97.83 100.83 97.73
  Q 101.38 97.67 101.85 97.31
  A 0.79 0.78 44.6 0 1 102.82 97.31
  Q 103.05 97.49 103.34 97.59
  Q 104.27 97.90 103.65 97.14
  Q 102.93 96.28 101.96 95.88
  Z"
/>
<path fill="#ffffff" d="
  M 102.83 56.58
  Q 100.19 56.06 98.06 56.40
  Q 97.32 56.52 97.13 57.25
  C 96.77 58.68 95.60 60.36 93.88 59.65
  Q 93.18 59.36 93.47 58.67
  L 98.69 45.90
  A 1.41 1.41 0.0 0 1 99.80 45.04
  Q 101.71 44.78 102.38 46.59
  Q 104.79 53.07 107.23 59.12
  A 0.49 0.49 0.0 0 1 106.90 59.78
  Q 104.08 60.47 103.70 57.52
  Q 103.60 56.73 102.83 56.58
  Z
  M 101.36 53.74
  A 0.34 0.34 0.0 0 0 101.73 53.31
  L 100.84 50.08
  A 0.34 0.34 0.0 0 0 100.20 50.04
  L 98.96 53.01
  A 0.34 0.34 0.0 0 0 99.23 53.48
  L 101.36 53.74
  Z"
/>
<path fill="#ffffff" d="
  M 112.75 48.20
  Q 111.89 48.18 111.84 49.04
  Q 111.83 49.19 111.82 49.35
  Q 111.73 50.25 112.64 50.33
  C 115.06 50.55 117.63 50.85 117.96 53.91
  C 118.62 60.04 113.25 61.38 109.09 58.56
  Q 108.17 57.94 108.52 56.91
  A 1.36 1.35 -74.2 0 1 110.12 56.01
  C 111.38 56.31 112.86 57.27 114.10 56.64
  Q 115.29 56.04 114.98 54.86
  Q 114.47 52.92 112.11 53.42
  Q 108.85 54.12 109.05 50.79
  L 109.29 46.66
  Q 109.37 45.44 110.59 45.45
  L 116.44 45.49
  Q 117.37 45.49 117.59 46.39
  L 117.72 46.91
  Q 118.06 48.34 116.59 48.30
  L 112.75 48.20
  Z"
/>
<path fill="#02bccb" d="
  M 101.36 53.74
  L 99.23 53.48
  A 0.34 0.34 0.0 0 1 98.96 53.01
  L 100.20 50.04
  A 0.34 0.34 0.0 0 1 100.84 50.08
  L 101.73 53.31
  A 0.34 0.34 0.0 0 1 101.36 53.74
  Z"
/>
<path fill="#b3d8e2" d="
  M 96.86 68.11
  A 0.67 0.67 0.0 0 0 97.40 67.53
  Q 97.44 67.15 97.15 67.05
  Q 96.55 66.85 97.19 66.86
  Q 97.53 66.87 97.88 66.82
  Q 98.59 66.74 98.85 67.40
  Q 98.95 67.66 98.88 67.93
  A 0.70 0.70 0.0 0 0 99.28 68.72
  Q 99.48 68.81 99.68 68.76
  Q 99.96 68.71 100.08 68.46
  Q 100.33 67.95 100.34 67.37
  Q 100.36 65.80 101.80 66.43
  L 105.90 68.24
  Q 106.14 68.34 106.23 68.10
  L 106.37 67.74
  A 0.31 0.31 0.0 0 0 106.20 67.34
  Q 105.22 66.93 104.26 66.87
  Q 103.95 66.85 104.26 66.81
  L 106.11 66.56
  Q 106.49 66.51 106.78 66.77
  Q 108.27 68.11 108.21 70.09
  Q 108.19 70.70 107.59 70.60
  Q 107.46 70.58 107.34 70.51
  Q 107.15 70.41 107.10 70.19
  Q 106.97 69.56 106.40 69.14
  Q 106.01 68.85 105.72 69.24
  Q 105.09 70.06 104.05 69.98
  Q 103.61 69.95 103.31 69.61
  Q 102.88 69.11 102.28 68.82
  Q 101.74 68.56 101.34 69.01
  L 100.83 69.58
  Q 100.47 69.99 99.93 69.88
  L 95.72 69.03
  Q 95.14 68.91 94.61 69.14
  L 93.81 69.49
  A 0.42 0.42 0.0 0 1 93.23 69.00
  Q 93.54 67.71 94.30 66.67
  Q 94.86 65.91 95.67 66.48
  Q 96.05 66.75 95.73 67.10
  Q 95.59 67.26 95.57 67.47
  Q 95.55 67.80 95.85 67.95
  Q 96.35 68.19 96.86 68.11
  Z"
/>
<path fill="#b3d8e2" d="
  M 104.01 74.09
  L 104.91 74.65
  Q 105.40 74.96 105.47 75.54
  L 105.64 77.19
  Q 105.69 77.69 106.13 77.94
  Q 106.92 78.40 107.26 79.26
  Q 107.57 80.05 106.88 79.55
  L 105.98 78.91
  Q 105.57 78.62 105.55 78.12
  Q 105.48 76.74 104.53 76.07
  Q 102.94 74.97 101.88 73.47
  Q 101.35 72.72 101.13 73.61
  Q 100.92 74.48 101.00 75.40
  Q 101.06 76.09 100.40 75.87
  L 96.46 74.56
  A 1.03 1.02 -48.8 0 0 95.66 74.62
  Q 94.90 75.00 93.99 75.02
  A 0.69 0.69 0.0 0 1 93.30 74.18
  Q 93.93 71.16 96.15 72.52
  Q 96.55 72.77 96.16 73.02
  Q 95.75 73.28 95.87 73.85
  Q 96.01 74.60 96.66 74.18
  Q 97.21 73.81 97.08 73.15
  A 0.45 0.45 0.0 0 1 97.39 72.64
  Q 97.95 72.45 98.43 72.67
  Q 98.99 72.92 99.00 73.53
  Q 99.03 74.32 99.77 74.58
  Q 100.98 75.00 100.24 73.96
  Q 99.24 72.54 100.76 72.34
  Q 103.06 72.04 105.42 72.08
  Q 106.71 72.11 105.79 73.00
  Q 105.17 73.61 104.15 73.60
  Q 103.21 73.59 104.01 74.09
  Z"
/>
<rect fill="#b3d8e2" x="-1.19" y="-1.50" transform="translate(107.97,73.68) rotate(12.6)" width="2.38" height="3.00" rx="0.27"/>
<path fill="#dfdfe3" d="
  M 99.03 79.70
  Q 99.95 80.00 100.12 79.11
  Q 100.23 78.50 100.85 78.45
  Q 103.80 78.20 105.17 79.25
  Q 106.06 79.92 104.97 80.14
  Q 104.49 80.23 104.11 80.51
  Q 103.74 80.76 103.46 80.42
  Q 102.37 79.10 101.04 80.24
  Q 100.61 80.61 100.06 80.61
  L 97.05 80.61
  Q 96.49 80.61 96.06 80.27
  Q 95.03 79.46 93.94 80.11
  Q 93.44 80.41 93.34 79.84
  Q 93.13 78.61 94.01 77.96
  Q 94.43 77.64 94.93 77.80
  Q 96.04 78.16 96.30 79.27
  Q 96.37 79.56 96.66 79.63
  Q 96.80 79.66 96.95 79.60
  Q 97.12 79.53 97.17 79.35
  Q 97.23 79.08 97.06 79.03
  Q 96.53 78.89 97.07 78.77
  Q 97.67 78.64 98.19 78.54
  Q 98.76 78.41 98.81 79.00
  L 98.85 79.47
  Q 98.86 79.65 99.03 79.70
  Z"
/>
<path fill="#b3d8e2" d="
  M 109.80 89.69
  Q 109.89 89.08 110.41 88.69
  A 1.30 1.29 -40.7 0 0 110.56 86.78
  Q 109.32 85.48 108.35 86.54
  Q 107.57 87.39 107.86 86.29
  L 108.19 85.01
  Q 108.38 84.27 108.98 84.73
  Q 109.27 84.96 109.67 84.97
  Q 110.05 84.98 110.03 84.59
  L 110.00 84.13
  Q 109.97 83.75 109.59 83.79
  Q 109.17 83.84 108.89 84.14
  Q 108.46 84.60 108.17 84.04
  Q 108.01 83.73 108.08 83.43
  Q 108.19 82.95 108.68 82.93
  Q 108.85 82.92 108.98 82.84
  Q 109.36 82.61 109.00 82.36
  L 106.32 80.51
  Q 106.08 80.35 106.29 80.15
  L 106.75 79.74
  Q 106.89 79.60 107.04 79.74
  Q 109.10 81.62 110.74 83.97
  Q 111.16 84.56 110.68 85.10
  Q 110.26 85.57 110.86 86.07
  A 1.02 1.01 24.4 0 1 111.22 87.01
  L 110.59 91.17
  Q 110.52 91.62 110.06 91.61
  Q 109.30 91.60 108.74 92.04
  Q 108.27 92.42 108.18 91.82
  Q 107.94 90.25 108.04 88.90
  Q 108.05 88.68 108.22 88.52
  A 0.42 0.42 0.0 0 1 108.94 88.75
  Q 109.02 89.29 109.28 89.77
  Q 109.66 90.50 109.80 89.69
  Z"
/>
<path fill="#dfdfe3" d="
  M 105.87 85.00
  Q 105.93 85.17 106.06 85.30
  Q 106.44 85.69 106.36 86.22
  Q 106.32 86.54 106.18 86.81
  Q 105.78 87.53 105.25 86.90
  Q 105.05 86.67 105.03 86.37
  Q 104.99 85.95 105.32 85.69
  A 0.53 0.53 0.0 0 0 105.29 84.84
  Q 104.87 84.55 104.90 84.04
  A 0.94 0.93 83.9 0 1 105.58 83.19
  Q 105.99 83.08 106.41 83.19
  Q 107.02 83.35 106.55 83.77
  L 106.09 84.18
  Q 105.71 84.52 105.87 85.00
  Z"
/>
<path fill="#b3d8e2" d="
  M 95.34 84.68
  Q 95.42 84.77 95.53 84.86
  Q 95.60 84.92 95.66 84.87
  Q 97.02 83.82 98.73 83.48
  Q 99.02 83.42 99.29 83.60
  A 0.16 0.16 0.0 0 1 99.30 83.86
  Q 98.89 84.20 98.86 84.85
  A 0.69 0.69 0.0 0 0 99.99 85.41
  Q 100.82 84.74 100.02 84.03
  Q 99.59 83.65 100.15 83.51
  Q 101.95 83.08 103.33 83.60
  Q 103.91 83.82 103.87 84.44
  L 103.73 86.16
  Q 103.65 87.26 103.00 86.37
  Q 102.58 85.80 102.66 85.14
  A 1.05 1.05 0.0 0 0 101.85 83.99
  Q 101.21 83.84 100.90 84.37
  A 0.44 0.42 33.5 0 0 101.02 84.92
  Q 101.98 85.62 100.63 86.41
  A 1.12 1.11 -50.8 0 1 99.71 86.51
  L 96.86 85.56
  Q 96.36 85.40 95.87 85.57
  Q 94.95 85.91 93.84 85.94
  Q 93.10 85.95 93.31 85.25
  Q 93.48 84.68 93.35 84.08
  Q 93.23 83.50 93.79 83.37
  Q 94.82 83.12 95.71 83.62
  Q 96.08 83.83 95.76 84.10
  Q 95.66 84.19 95.51 84.21
  Q 94.88 84.25 95.34 84.68
  Z"
/>
<path fill="#b3d8e2" d="
  M 94.96 90.82
  Q 94.73 91.54 94.18 92.04
  Q 93.53 92.64 93.55 91.76
  L 93.58 89.91
  Q 93.59 89.41 94.01 89.13
  Q 94.91 88.55 96.00 89.15
  A 0.46 0.46 0.0 0 1 95.97 89.98
  L 95.57 90.15
  Q 95.12 90.35 94.96 90.82
  Z"
/>
<path fill="#b3d8e2" d="
  M 105.87 89.26
  Q 105.86 89.21 105.87 89.16
  Q 105.88 89.09 105.95 89.10
  Q 106.30 89.16 106.43 89.48
  Q 106.65 90.03 106.32 90.53
  Q 105.58 91.65 106.72 92.30
  Q 107.13 92.53 106.67 92.63
  Q 106.39 92.68 106.23 92.45
  Q 105.62 91.56 104.93 90.54
  Q 104.50 89.92 105.24 89.76
  Q 105.55 89.70 105.79 89.48
  Q 105.88 89.39 105.87 89.26
  Z"
/>
<path fill="#b3d8e2" d="
  M 100.13 90.37
  Q 99.81 90.03 99.95 89.59
  A 0.44 0.44 0.0 0 1 100.68 89.41
  Q 101.49 90.22 100.94 91.24
  Q 100.49 92.07 100.20 91.17
  Q 100.07 90.77 100.13 90.37
  Z"
/>
<path fill="#b3d8e2" d="
  M 103.24 89.68
  Q 103.19 89.48 103.33 89.41
  Q 103.65 89.26 103.92 89.47
  Q 104.35 89.81 103.85 90.02
  Q 103.50 90.17 103.58 90.55
  Q 103.71 91.16 103.09 91.10
  Q 102.43 91.02 101.90 90.61
  Q 101.24 90.09 102.08 89.99
  L 103.11 89.87
  Q 103.28 89.85 103.24 89.68
  Z"
/>
<path fill="#b3d8e2" d="
  M 97.57 90.14
  Q 97.48 89.95 97.27 89.92
  Q 96.96 89.87 97.25 89.75
  Q 97.49 89.64 97.74 89.58
  Q 98.04 89.50 98.24 89.73
  Q 98.86 90.46 99.03 91.43
  Q 99.15 92.13 98.45 92.01
  L 97.27 91.81
  Q 96.38 91.66 97.00 91.01
  L 97.50 90.49
  A 0.33 0.32 56.8 0 0 97.57 90.14
  Z"
/>
<path fill="#b3d8e2" d="
  M 97.56 96.34
  C 97.72 95.45 98.22 94.36 99.32 94.40
  Q 99.99 94.43 99.77 95.07
  Q 99.47 95.97 99.91 96.93
  Q 100.17 97.51 99.63 97.16
  Q 99.24 96.91 98.78 96.81
  Q 98.31 96.70 97.95 97.02
  Q 96.27 98.46 94.49 97.68
  A 1.74 1.73 36.0 0 1 94.03 94.80
  Q 94.89 94.04 95.99 94.12
  Q 96.86 94.18 96.09 94.59
  Q 95.27 95.02 94.43 95.39
  Q 93.50 95.82 94.19 96.57
  Q 94.91 97.35 96.25 97.40
  A 1.29 1.28 -83.8 0 0 97.56 96.34
  Z"
/>
<path fill="#b3d8e2" d="
  M 104.47 95.06
  Q 102.95 95.65 101.33 94.99
  Q 100.49 94.64 101.37 94.41
  Q 102.25 94.18 103.09 94.54
  Q 103.52 94.73 103.96 94.55
  Q 104.97 94.13 106.06 94.26
  Q 106.50 94.30 106.28 94.69
  Q 105.62 95.86 105.96 97.41
  Q 105.98 97.53 105.88 97.58
  L 105.57 97.72
  A 0.29 0.28 -12.6 0 1 105.17 97.47
  L 105.13 95.50
  Q 105.11 94.80 104.47 95.06
  Z"
/>
<path fill="#b3d8e2" d="
  M 108.19 95.10
  Q 108.18 94.96 108.18 94.81
  Q 108.20 94.13 108.68 94.61
  Q 109.69 95.65 109.99 96.78
  Q 110.17 97.50 109.44 97.40
  L 107.74 97.18
  Q 107.05 97.09 107.34 96.46
  Q 107.47 96.19 107.73 96.03
  A 0.98 0.98 0.0 0 0 108.19 95.10
  Z"
/>
<path fill="#b3d8e2" d="
  M 101.96 95.88
  Q 102.93 96.28 103.65 97.14
  Q 104.27 97.90 103.34 97.59
  Q 103.05 97.49 102.82 97.31
  A 0.79 0.78 44.6 0 0 101.85 97.31
  Q 101.38 97.67 100.83 97.73
  Q 99.86 97.83 100.61 97.21
  Q 101.18 96.74 101.47 96.08
  A 0.38 0.38 0.0 0 1 101.96 95.88
  Z"
/>
<path fill="#039aa9" d="
  M 198.94 134.96
  L 198.94 183.67
  A 0.85 0.85 0.0 0 1 198.13 184.52
  L 83.13 190.99
  L 83.48 138.32
  Q 101.53 138.40 119.50 137.52
  Q 128.06 137.10 136.49 136.95
  C 144.06 136.82 151.74 136.32 159.18 136.15
  Q 179.06 135.71 198.94 134.96
  Z
  M 124.49 153.08
  L 122.90 151.53
  A 2.72 2.72 0.0 0 1 123.54 147.18
  Q 125.39 146.20 127.89 147.05
  Q 127.91 147.05 127.91 147.04
  L 127.96 146.79
  Q 128.00 146.61 127.83 146.58
  Q 125.23 146.06 122.71 146.66
  Q 121.79 146.88 121.81 147.82
  L 121.85 150.49
  A 0.62 0.60 -9.7 0 1 121.42 151.08
  Q 121.19 151.16 121.04 151.34
  Q 120.36 152.16 121.38 151.88
  Q 122.09 151.68 122.60 152.16
  Q 122.90 152.43 122.88 152.83
  L 122.78 155.35
  Q 122.75 156.22 123.55 155.87
  Q 124.92 155.28 126.14 155.92
  Q 126.68 156.20 127.05 155.71
  L 127.90 154.57
  Q 128.36 153.95 127.80 153.42
  L 126.90 152.56
  Q 126.52 152.20 126.15 152.57
  Q 125.79 152.94 125.32 153.20
  Q 124.86 153.45 124.49 153.08
  Z
  M 99.91 148.13
  Q 100.18 148.60 100.71 148.66
  Q 101.45 148.76 100.90 148.25
  Q 100.35 147.75 100.20 147.02
  Q 100.10 146.56 99.63 146.53
  Q 98.47 146.44 97.33 146.60
  Q 96.91 146.66 97.34 146.69
  Q 98.29 146.75 99.04 147.22
  Q 99.59 147.57 99.91 148.13
  Z
  M 96.38 146.67
  Q 93.89 147.06 91.37 147.80
  Q 91.31 147.81 91.33 147.88
  L 91.41 148.14
  Q 91.48 148.39 91.73 148.30
  Q 93.88 147.57 96.35 147.09
  Q 96.48 147.07 96.46 146.94
  L 96.41 146.69
  Q 96.41 146.66 96.38 146.67
  Z
  M 102.04 160.60
  L 93.17 160.66
  Q 92.79 160.67 93.04 160.96
  Q 93.66 161.71 94.63 161.67
  Q 98.42 161.53 102.04 160.60
  Q 103.34 160.70 103.38 159.76
  Q 103.56 155.87 101.62 152.68
  A 1.37 1.37 0.0 0 0 99.46 152.44
  L 98.92 153.00
  Q 98.39 153.54 98.10 152.85
  Q 97.78 152.08 96.92 152.29
  Q 96.55 152.37 96.23 152.56
  Q 95.17 153.15 93.93 152.48
  Q 92.17 151.51 92.43 153.50
  Q 92.65 155.20 92.39 156.93
  Q 92.24 157.93 92.81 157.09
  C 94.50 154.56 96.31 156.93 98.06 155.63
  Q 98.52 155.30 98.98 155.63
  Q 100.03 156.39 100.91 155.62
  Q 101.30 155.28 101.65 155.67
  Q 103.60 157.81 102.04 160.60
  Z
  M 105.32 152.06
  Q 105.15 152.08 105.16 152.24
  Q 105.32 154.75 105.45 157.13
  Q 105.50 158.20 105.65 157.13
  Q 105.97 154.90 105.53 152.22
  Q 105.51 152.05 105.33 152.06
  L 105.32 152.06
  Z
  M 125.54 157.24
  A 0.45 0.44 -51.6 0 0 125.62 158.00
  Q 126.15 158.23 126.73 158.04
  A 0.60 0.59 -47.1 0 0 126.69 156.90
  Q 126.17 156.77 125.54 157.24
  Z
  M 122.67 158.21
  Q 122.70 158.44 122.82 158.61
  Q 122.98 158.86 123.26 158.77
  Q 123.80 158.59 124.00 158.03
  A 0.68 0.68 0.0 0 0 123.50 157.14
  Q 122.97 157.03 122.59 157.42
  Q 122.51 157.50 122.49 157.62
  Q 122.45 157.80 122.57 157.96
  Q 122.66 158.07 122.67 158.21
  Z
  M 114.08 185.68
  A 1.08 1.08 0.0 0 0 115.09 184.60
  L 115.15 165.72
  A 1.08 1.08 0.0 0 0 114.02 164.64
  L 93.89 165.56
  A 1.08 1.08 0.0 0 0 92.86 166.64
  L 92.76 185.93
  A 1.08 1.08 0.0 0 0 93.91 187.01
  L 114.08 185.68
  Z
  M 120.70 165.16
  Q 119.30 164.35 117.83 165.63
  A 2.19 2.12 79.8 0 0 117.20 166.57
  Q 116.41 168.86 118.35 169.49
  A 2.65 2.64 -76.9 0 0 121.77 167.36
  Q 121.91 166.44 122.46 165.66
  Q 123.05 164.82 122.10 165.21
  Q 121.95 165.27 121.80 165.31
  Q 121.22 165.46 120.70 165.16
  Z
  M 171.14 173.84
  Q 170.16 173.37 169.40 172.43
  Q 168.48 171.29 168.28 172.74
  L 168.02 174.73
  Q 167.91 175.51 168.69 175.43
  Q 171.49 175.13 174.01 175.09
  Q 176.41 175.06 177.66 172.53
  Q 177.70 172.43 177.80 172.47
  L 178.11 172.58
  Q 178.50 172.72 178.39 173.13
  L 177.28 177.02
  Q 177.11 177.65 177.76 177.62
  L 187.02 177.25
  Q 187.75 177.23 187.87 176.50
  L 188.16 174.76
  Q 188.28 174.04 188.86 174.47
  Q 190.42 175.63 191.42 174.39
  Q 192.31 173.28 190.88 173.34
  Q 189.55 173.40 189.66 172.11
  Q 189.75 170.99 189.93 169.79
  Q 190.06 168.93 189.40 168.45
  Q 189.12 168.25 188.90 168.52
  Q 188.80 168.65 188.63 168.63
  Q 188.17 168.60 188.15 168.13
  Q 188.12 167.42 187.65 166.93
  Q 187.16 166.42 186.47 166.47
  L 177.80 167.03
  Q 177.18 167.07 177.15 167.70
  L 176.99 171.29
  A 1.58 1.58 0.0 0 1 175.49 172.80
  Q 173.71 172.89 172.46 172.20
  Q 172.03 171.96 171.87 172.43
  Q 171.70 172.95 171.71 173.48
  Q 171.72 174.12 171.14 173.84
  Z"
/>
<path fill="#b3d8e2" d="
  M 125.32 153.20
  Q 125.79 152.94 126.15 152.57
  Q 126.52 152.20 126.90 152.56
  L 127.80 153.42
  Q 128.36 153.95 127.90 154.57
  L 127.05 155.71
  Q 126.68 156.20 126.14 155.92
  Q 124.92 155.28 123.55 155.87
  Q 122.75 156.22 122.78 155.35
  L 122.88 152.83
  Q 122.90 152.43 122.60 152.16
  Q 122.09 151.68 121.38 151.88
  Q 120.36 152.16 121.04 151.34
  Q 121.19 151.16 121.42 151.08
  A 0.62 0.60 -9.7 0 0 121.85 150.49
  L 121.81 147.82
  Q 121.79 146.88 122.71 146.66
  Q 125.23 146.06 127.83 146.58
  Q 128.00 146.61 127.96 146.79
  L 127.91 147.04
  Q 127.91 147.05 127.89 147.05
  Q 125.39 146.20 123.54 147.18
  A 2.72 2.72 0.0 0 0 122.90 151.53
  L 124.49 153.08
  Q 124.86 153.45 125.32 153.20
  Z
  M 125.78 154.25
  Q 125.66 154.86 126.24 155.05
  Q 126.53 155.14 126.78 154.97
  Q 127.04 154.79 127.04 154.46
  Q 127.04 154.00 126.84 153.61
  Q 126.48 152.90 126.05 153.57
  Q 125.85 153.88 125.78 154.25
  Z"
/>
<path fill="#dfdfe3" d="
  M 99.04 147.22
  Q 98.29 146.75 97.34 146.69
  Q 96.91 146.66 97.33 146.60
  Q 98.47 146.44 99.63 146.53
  Q 100.10 146.56 100.20 147.02
  Q 100.35 147.75 100.90 148.25
  Q 101.45 148.76 100.71 148.66
  Q 100.18 148.60 99.91 148.13
  Q 99.59 147.57 99.04 147.22
  Z"
/>
<path fill="#02bccb" d="
  M 96.38 146.67
  Q 96.41 146.66 96.41 146.69
  L 96.46 146.94
  Q 96.48 147.07 96.35 147.09
  Q 93.88 147.57 91.73 148.30
  Q 91.48 148.39 91.41 148.14
  L 91.33 147.88
  Q 91.31 147.81 91.37 147.80
  Q 93.89 147.06 96.38 146.67
  Z"
/>
<path fill="#b3d8e2" d="
  M 102.04 160.60
  Q 103.60 157.81 101.65 155.67
  Q 101.30 155.28 100.91 155.62
  Q 100.03 156.39 98.98 155.63
  Q 98.52 155.30 98.06 155.63
  C 96.31 156.93 94.50 154.56 92.81 157.09
  Q 92.24 157.93 92.39 156.93
  Q 92.65 155.20 92.43 153.50
  Q 92.17 151.51 93.93 152.48
  Q 95.17 153.15 96.23 152.56
  Q 96.55 152.37 96.92 152.29
  Q 97.78 152.08 98.10 152.85
  Q 98.39 153.54 98.92 153.00
  L 99.46 152.44
  A 1.37 1.37 0.0 0 1 101.62 152.68
  Q 103.56 155.87 103.38 159.76
  Q 103.34 160.70 102.04 160.60
  Z
  M 100.88 153.96
  Q 100.88 153.35 100.42 153.75
  Q 99.89 154.23 100.26 154.74
  A 0.34 0.34 0.0 0 0 100.88 154.54
  L 100.88 153.96
  Z"
/>
<path fill="#02bccb" d="
  M 105.53 152.22
  Q 105.97 154.90 105.65 157.13
  Q 105.50 158.20 105.45 157.13
  Q 105.32 154.75 105.16 152.24
  Q 105.15 152.08 105.32 152.06
  L 105.33 152.06
  Q 105.51 152.05 105.53 152.22
  Z"
/>
<path fill="#039aa9" d="
  M 125.78 154.25
  Q 125.85 153.88 126.05 153.57
  Q 126.48 152.90 126.84 153.61
  Q 127.04 154.00 127.04 154.46
  Q 127.04 154.79 126.78 154.97
  Q 126.53 155.14 126.24 155.05
  Q 125.66 154.86 125.78 154.25
  Z"
/>
<path fill="#dfdfe3" d="
  M 100.88 153.96
  L 100.88 154.54
  A 0.34 0.34 0.0 0 1 100.26 154.74
  Q 99.89 154.23 100.42 153.75
  Q 100.88 153.35 100.88 153.96
  Z"
/>
<path fill="#b3d8e2" d="
  M 125.54 157.24
  Q 126.17 156.77 126.69 156.90
  A 0.60 0.59 -47.1 0 1 126.73 158.04
  Q 126.15 158.23 125.62 158.00
  A 0.45 0.44 -51.6 0 1 125.54 157.24
  Z"
/>
<path fill="#b3d8e2" d="
  M 122.57 157.96
  Q 122.45 157.80 122.49 157.62
  Q 122.51 157.50 122.59 157.42
  Q 122.97 157.03 123.50 157.14
  A 0.68 0.68 0.0 0 1 124.00 158.03
  Q 123.80 158.59 123.26 158.77
  Q 122.98 158.86 122.82 158.61
  Q 122.70 158.44 122.67 158.21
  Q 122.66 158.07 122.57 157.96
  Z"
/>
<path fill="#b3d8e2" d="
  M 102.04 160.60
  Q 98.42 161.53 94.63 161.67
  Q 93.66 161.71 93.04 160.96
  Q 92.79 160.67 93.17 160.66
  L 102.04 160.60
  Z"
/>
<path fill="#ffffff" d="
  M 114.08 185.68
  L 93.91 187.01
  A 1.08 1.08 0.0 0 1 92.76 185.93
  L 92.86 166.64
  A 1.08 1.08 0.0 0 1 93.89 165.56
  L 114.02 164.64
  A 1.08 1.08 0.0 0 1 115.15 165.72
  L 115.09 184.60
  A 1.08 1.08 0.0 0 1 114.08 185.68
  Z
  M 102.22 170.23
  Q 103.10 170.60 104.03 170.13
  L 112.77 170.02
  Q 113.45 170.01 113.48 169.32
  L 113.59 166.64
  A 0.82 0.81 1.0 0 0 112.76 165.79
  L 100.49 165.92
  A 0.38 0.38 0.0 0 0 100.19 166.53
  L 100.95 167.50
  A 0.91 0.90 -46.2 0 1 100.97 168.58
  Q 100.73 168.91 100.35 169.00
  Q 99.48 169.20 99.50 168.31
  L 99.55 166.85
  Q 99.57 166.13 98.87 166.25
  L 95.26 166.91
  Q 94.57 167.03 94.50 167.74
  L 94.26 170.02
  Q 94.18 170.83 95.00 170.77
  L 102.22 170.23
  Z
  M 105.80 172.06
  L 106.05 172.72
  Q 105.09 173.01 103.98 172.91
  Q 103.57 172.88 103.36 173.01
  Q 103.07 173.20 102.97 173.54
  Q 102.62 173.84 102.09 173.06
  Q 101.32 172.83 101.01 173.34
  Q 100.76 173.74 100.30 173.64
  Q 99.99 173.58 99.75 173.35
  Q 98.15 173.03 98.23 174.48
  Q 98.34 176.44 98.26 178.07
  Q 99.52 178.23 99.87 179.03
  Q 100.06 179.47 100.44 179.78
  Q 101.20 180.41 102.00 179.83
  Q 102.41 179.53 102.91 179.47
  L 107.22 178.93
  Q 107.70 179.19 108.24 178.79
  Q 109.76 178.90 111.12 178.47
  Q 113.64 178.74 113.68 176.52
  Q 113.72 174.32 113.59 173.22
  Q 113.52 172.70 113.00 172.64
  Q 111.96 172.52 110.84 173.36
  Q 110.25 172.84 110.03 171.72
  A 0.82 0.81 -87.2 0 0 109.46 171.08
  Q 107.79 170.57 105.75 171.02
  Q 105.01 170.94 104.56 171.29
  Q 104.19 171.56 104.56 171.83
  Q 104.92 172.09 105.80 172.06
  Z
  M 96.6005 178.9183
  A 2.85 0.70 92.0 0 0 97.3996 176.0944
  A 2.85 0.70 92.0 0 0 96.7995 173.2217
  A 2.85 0.70 92.0 0 0 96.0004 176.0456
  A 2.85 0.70 92.0 0 0 96.6005 178.9183
  Z
  M 94.68 180.02
  Q 95.46 179.95 95.65 179.44
  Q 95.77 179.15 95.36 178.86
  Q 95.04 178.64 94.67 178.59
  Q 93.96 178.49 94.07 179.20
  L 94.14 179.59
  A 0.51 0.50 83.3 0 0 94.68 180.02
  Z
  M 98.7790 179.5405
  A 0.83 0.48 2.8 0 0 97.9734 179.0206
  A 0.83 0.48 2.8 0 0 97.1210 179.4595
  A 0.83 0.48 2.8 0 0 97.9266 179.9794
  A 0.83 0.48 2.8 0 0 98.7790 179.5405
  Z
  M 112.2286 184.1157
  A 0.27 0.27 0.0 0 0 111.9435 183.8617
  L 96.3693 184.7597
  A 0.27 0.27 0.0 0 0 96.1153 185.0448
  L 96.1314 185.3243
  A 0.27 0.27 0.0 0 0 96.4165 185.5783
  L 111.9907 184.6803
  A 0.27 0.27 0.0 0 0 112.2447 184.3952
  L 112.2286 184.1157
  Z"
/>
<path fill="#ffffff" d="
  M 121.80 165.31
  Q 121.95 165.27 122.10 165.21
  Q 123.05 164.82 122.46 165.66
  Q 121.91 166.44 121.77 167.36
  A 2.65 2.64 -76.9 0 1 118.35 169.49
  Q 116.41 168.86 117.20 166.57
  A 2.19 2.12 79.8 0 1 117.83 165.63
  Q 119.30 164.35 120.70 165.16
  Q 121.22 165.46 121.80 165.31
  Z
  M 118.26 168.68
  L 121.14 166.59
  A 0.16 0.16 0.0 0 0 121.17 166.36
  L 121.13 166.30
  A 1.76 1.42 -36.0 0 0 118.87 166.18
  L 118.58 166.39
  A 1.76 1.42 -36.0 0 0 117.99 168.58
  L 118.03 168.64
  A 0.16 0.16 0.0 0 0 118.26 168.68
  Z"
/>
<path fill="#039aa9" d="
  M 104.03 170.13
  L 103.54 170.02
  Q 103.06 169.90 103.08 169.42
  Q 103.08 169.29 103.13 169.17
  Q 103.20 169.02 103.36 168.96
  L 105.81 168.08
  Q 106.02 168.01 106.13 167.81
  Q 106.29 167.52 106.10 167.31
  A 0.65 0.64 -31.0 0 0 105.40 167.14
  Q 104.07 167.62 102.46 167.22
  Q 101.99 167.10 101.76 167.46
  Q 101.48 167.89 101.82 168.28
  Q 102.67 169.23 102.22 170.23
  L 95.00 170.77
  Q 94.18 170.83 94.26 170.02
  L 94.50 167.74
  Q 94.57 167.03 95.26 166.91
  L 98.87 166.25
  Q 99.57 166.13 99.55 166.85
  L 99.50 168.31
  Q 99.48 169.20 100.35 169.00
  Q 100.73 168.91 100.97 168.58
  A 0.91 0.90 -46.2 0 0 100.95 167.50
  L 100.19 166.53
  A 0.38 0.38 0.0 0 1 100.49 165.92
  L 112.76 165.79
  A 0.82 0.81 1.0 0 1 113.59 166.64
  L 113.48 169.32
  Q 113.45 170.01 112.77 170.02
  L 104.03 170.13
  Z
  M 108.00 167.07
  Q 106.60 167.38 107.00 168.77
  A 0.57 0.56 55.8 0 0 107.99 168.96
  Q 108.50 168.28 108.39 167.35
  A 0.32 0.32 0.0 0 0 108.00 167.07
  Z"
/>
<path fill="#039aa9" d="
  M 118.26 168.68
  A 0.16 0.16 0.0 0 1 118.03 168.64
  L 117.99 168.58
  A 1.76 1.42 -36.0 0 1 118.58 166.39
  L 118.87 166.18
  A 1.76 1.42 -36.0 0 1 121.13 166.30
  L 121.17 166.36
  A 0.16 0.16 0.0 0 1 121.14 166.59
  L 118.26 168.68
  Z"
/>
<path fill="#ffffff" d="
  M 171.71 173.48
  Q 171.70 172.95 171.87 172.43
  Q 172.03 171.96 172.46 172.20
  Q 173.71 172.89 175.49 172.80
  A 1.58 1.58 0.0 0 0 176.99 171.29
  L 177.15 167.70
  Q 177.18 167.07 177.80 167.03
  L 186.47 166.47
  Q 187.16 166.42 187.65 166.93
  Q 188.12 167.42 188.15 168.13
  Q 188.17 168.60 188.63 168.63
  Q 188.80 168.65 188.90 168.52
  Q 189.12 168.25 189.40 168.45
  Q 190.06 168.93 189.93 169.79
  Q 189.75 170.99 189.66 172.11
  Q 189.55 173.40 190.88 173.34
  Q 192.31 173.28 191.42 174.39
  Q 190.42 175.63 188.86 174.47
  Q 188.28 174.04 188.16 174.76
  L 187.87 176.50
  Q 187.75 177.23 187.02 177.25
  L 177.76 177.62
  Q 177.11 177.65 177.28 177.02
  L 178.39 173.13
  Q 178.50 172.72 178.11 172.58
  L 177.80 172.47
  Q 177.70 172.43 177.66 172.53
  Q 176.41 175.06 174.01 175.09
  Q 171.49 175.13 168.69 175.43
  Q 167.91 175.51 168.02 174.73
  L 168.28 172.74
  Q 168.48 171.29 169.40 172.43
  Q 170.16 173.37 171.14 173.84
  Q 171.72 174.12 171.71 173.48
  Z
  M 183.41 173.49
  Q 183.49 173.82 183.83 173.92
  Q 187.67 175.00 188.74 171.74
  Q 189.07 170.73 188.59 169.69
  Q 188.34 169.17 188.31 169.75
  Q 188.09 173.45 183.71 172.58
  A 0.36 0.35 -1.0 0 0 183.29 173.01
  L 183.41 173.49
  Z
  M 182.6763 174.0297
  A 1.66 0.95 9.7 0 0 181.2001 172.8136
  A 1.66 0.95 9.7 0 0 179.4037 173.4703
  A 1.66 0.95 9.7 0 0 180.8799 174.6864
  A 1.66 0.95 9.7 0 0 182.6763 174.0297
  Z"
/>
<path fill="#b3d8e2" d="
  M 104.03 170.13
  Q 103.10 170.60 102.22 170.23
  Q 102.67 169.23 101.82 168.28
  Q 101.48 167.89 101.76 167.46
  Q 101.99 167.10 102.46 167.22
  Q 104.07 167.62 105.40 167.14
  A 0.65 0.64 -31.0 0 1 106.10 167.31
  Q 106.29 167.52 106.13 167.81
  Q 106.02 168.01 105.81 168.08
  L 103.36 168.96
  Q 103.20 169.02 103.13 169.17
  Q 103.08 169.29 103.08 169.42
  Q 103.06 169.90 103.54 170.02
  L 104.03 170.13
  Z"
/>
<path fill="#b3d8e2" d="
  M 108.00 167.07
  A 0.32 0.32 0.0 0 1 108.39 167.35
  Q 108.50 168.28 107.99 168.96
  A 0.57 0.56 55.8 0 1 107.00 168.77
  Q 106.60 167.38 108.00 167.07
  Z"
/>
<path fill="#02bccb" d="
  M 183.41 173.49
  L 183.29 173.01
  A 0.36 0.35 -1.0 0 1 183.71 172.58
  Q 188.09 173.45 188.31 169.75
  Q 188.34 169.17 188.59 169.69
  Q 189.07 170.73 188.74 171.74
  Q 187.67 175.00 183.83 173.92
  Q 183.49 173.82 183.41 173.49
  Z"
/>
<path fill="#465155" d="
  M 105.75 171.02
  Q 106.32 171.28 106.37 171.50
  Q 106.49 172.08 105.80 172.06
  Q 104.92 172.09 104.56 171.83
  Q 104.19 171.56 104.56 171.29
  Q 105.01 170.94 105.75 171.02
  Z"
/>
<path fill="#dfdfe3" d="
  M 105.75 171.02
  Q 107.79 170.57 109.46 171.08
  A 0.82 0.81 -87.2 0 1 110.03 171.72
  Q 110.25 172.84 110.84 173.36
  Q 111.88 174.54 111.31 175.49
  Q 110.90 176.18 110.57 175.46
  Q 110.23 174.71 110.35 173.77
  Q 110.44 173.09 109.76 173.02
  L 108.42 172.88
  Q 107.65 172.80 107.69 173.58
  L 107.84 177.11
  A 0.10 0.08 -38.0 0 1 107.83 177.15
  Q 106.70 178.62 107.22 178.93
  L 102.91 179.47
  Q 102.41 179.53 102.00 179.83
  Q 101.20 180.41 100.44 179.78
  Q 100.06 179.47 99.87 179.03
  Q 99.52 178.23 98.26 178.07
  Q 100.01 178.29 100.04 177.76
  Q 100.13 176.17 100.13 174.59
  Q 100.13 174.37 100.35 174.37
  L 100.63 174.37
  Q 100.63 174.37 100.63 174.50
  L 100.63 177.03
  Q 100.63 177.68 101.27 177.82
  L 101.55 177.89
  A 0.41 0.40 -83.8 0 0 102.04 177.49
  L 102.09 173.06
  Q 102.62 173.84 102.97 173.54
  L 103.01 177.05
  Q 103.01 177.65 103.52 177.99
  Q 104.72 178.77 105.97 177.66
  C 107.26 176.52 106.58 174.75 106.63 173.25
  Q 106.64 172.98 106.44 172.80
  Q 106.24 172.63 106.05 172.72
  L 105.80 172.06
  Q 106.49 172.08 106.37 171.50
  Q 106.32 171.28 105.75 171.02
  Z"
/>
<path fill="#465155" d="
  M 111.12 178.47
  Q 111.59 177.72 111.56 177.27
  Q 111.53 176.69 110.96 176.80
  Q 108.96 177.22 108.24 178.79
  Q 107.70 179.19 107.22 178.93
  Q 106.70 178.62 107.83 177.15
  A 0.10 0.08 -38.0 0 0 107.84 177.11
  L 107.69 173.58
  Q 107.65 172.80 108.42 172.88
  L 109.76 173.02
  Q 110.44 173.09 110.35 173.77
  Q 110.23 174.71 110.57 175.46
  Q 110.90 176.18 111.31 175.49
  Q 111.88 174.54 110.84 173.36
  Q 111.96 172.52 113.00 172.64
  Q 113.52 172.70 113.59 173.22
  Q 113.72 174.32 113.68 176.52
  Q 113.64 178.74 111.12 178.47
  Z"
/>
<path fill="#465155" d="
  M 106.05 172.72
  Q 106.24 172.63 106.44 172.80
  Q 106.64 172.98 106.63 173.25
  C 106.58 174.75 107.26 176.52 105.97 177.66
  Q 104.72 178.77 103.52 177.99
  Q 103.01 177.65 103.01 177.05
  L 102.97 173.54
  Q 103.07 173.20 103.36 173.01
  Q 103.57 172.88 103.98 172.91
  Q 105.09 173.01 106.05 172.72
  Z"
/>
<ellipse fill="#02bccb" cx="0.00" cy="0.00" transform="translate(181.04,173.75) rotate(9.7)" rx="1.66" ry="0.95"/>
<path fill="#465155" d="
  M 102.09 173.06
  L 102.04 177.49
  A 0.41 0.40 -83.8 0 1 101.55 177.89
  L 101.27 177.82
  Q 100.63 177.68 100.63 177.03
  L 100.63 174.50
  Q 100.63 174.37 100.63 174.37
  L 100.35 174.37
  Q 100.13 174.37 100.13 174.59
  Q 100.13 176.17 100.04 177.76
  Q 100.01 178.29 98.26 178.07
  Q 98.34 176.44 98.23 174.48
  Q 98.15 173.03 99.75 173.35
  Q 99.99 173.58 100.30 173.64
  Q 100.76 173.74 101.01 173.34
  Q 101.32 172.83 102.09 173.06
  Z"
/>
<ellipse fill="#465155" cx="0.00" cy="0.00" transform="translate(96.70,176.07) rotate(92.0)" rx="2.85" ry="0.70"/>
<path fill="#dfdfe3" d="
  M 111.12 178.47
  Q 109.76 178.90 108.24 178.79
  Q 108.96 177.22 110.96 176.80
  Q 111.53 176.69 111.56 177.27
  Q 111.59 177.72 111.12 178.47
  Z"
/>
<path fill="#465155" d="
  M 94.68 180.02
  A 0.51 0.50 83.3 0 1 94.14 179.59
  L 94.07 179.20
  Q 93.96 178.49 94.67 178.59
  Q 95.04 178.64 95.36 178.86
  Q 95.77 179.15 95.65 179.44
  Q 95.46 179.95 94.68 180.02
  Z"
/>
<ellipse fill="#465155" cx="0.00" cy="0.00" transform="translate(97.95,179.50) rotate(2.8)" rx="0.83" ry="0.48"/>
<rect fill="#465155" x="-8.07" y="-0.41" transform="translate(104.18,184.72) rotate(-3.3)" width="16.14" height="0.82" rx="0.27"/>
</svg>
