<?xml version="1.0" encoding="UTF-8" standalone="no"?>
<!DOCTYPE svg PUBLIC "-//W3C//DTD SVG 1.1//EN" "http://www.w3.org/Graphics/SVG/1.1/DTD/svg11.dtd">
<svg xmlns="http://www.w3.org/2000/svg" version="1.1" viewBox="0.00 0.00 257.00 196.00">
<g stroke-width="2.00" fill="none" stroke-linecap="butt">
<path stroke="#cf151a" vector-effect="non-scaling-stroke" d="
  M 83.38 7.21
  Q 82.95 30.15 83.21 52.93
  C 83.25 55.71 82.83 58.36 83.01 61.17
  Q 83.21 64.21 83.18 67.32
  Q 83.03 88.37 83.23 109.25
  Q 83.28 114.09 83.27 118.25
  Q 83.23 134.01 82.81 146.66
  Q 82.81 146.70 82.81 146.74
  L 82.92 174.86
  Q 82.92 175.32 83.09 175.73
  Q 83.40 176.52 83.43 177.43
  Q 83.60 181.98 82.87 185.74
  Q 82.57 187.26 83.95 187.47"
/>
<path stroke="#c22127" vector-effect="non-scaling-stroke" d="
  M 75.52 184.93
  L 74.96 143.88"
/>
<path stroke="#c84247" vector-effect="non-scaling-stroke" d="
  M 74.96 143.88
  C 76.35 139.27 75.89 134.30 76.64 129.56
  A 0.96 0.95 -70.0 0 0 76.20 128.61
  L 74.07 127.24
  Q 73.63 126.96 73.24 127.32
  Q 72.79 127.73 73.20 127.89"
/>
<path stroke="#c22127" vector-effect="non-scaling-stroke" d="
  M 73.20 127.89
  Q 72.77 128.41 72.75 129.16
  Q 72.74 129.56 72.35 129.62
  Q 72.17 129.64 72.01 129.47
  Q 71.67 129.12 71.32 129.47
  Q 70.57 130.24 70.05 129.54"
/>
<path stroke="#dd616c" vector-effect="non-scaling-stroke" d="
  M 74.96 143.88
  Q 72.23 136.42 73.20 127.89"
/>
<path stroke="#ee1926" vector-effect="non-scaling-stroke" d="
  M 93.02 7.56
  Q 92.27 9.52 92.11 13.50
  Q 91.78 21.50 92.09 29.50
  C 92.13 30.57 92.63 31.49 92.62 32.48
  Q 92.56 41.94 92.62 51.66
  C 92.62 52.83 92.21 53.97 92.32 55.15
  C 92.73 59.50 92.03 64.22 93.46 68.22
  Q 94.67 71.59 97.04 74.44"
/>
<path stroke="#f6848c" vector-effect="non-scaling-stroke" d="
  M 97.04 74.44
  L 97.15 79.04"
/>
<path stroke="#ee1926" vector-effect="non-scaling-stroke" d="
  M 97.15 79.04
  L 96.69 79.84
  A 1.96 1.92 56.7 0 0 96.46 81.00
  C 96.89 84.65 95.41 88.15 95.58 91.90
  Q 95.70 94.50 95.62 96.96
  Q 95.60 97.49 95.85 97.96
  Q 96.75 99.66 95.54 100.87
  Q 95.34 101.07 95.38 101.35
  Q 95.51 102.26 95.83 103.00
  Q 96.14 103.73 96.47 103.00
  Q 96.93 101.97 97.44 101.66"
/>
<path stroke="#f2898d" vector-effect="non-scaling-stroke" d="
  M 97.44 101.66
  Q 96.62 104.01 97.82 103.89"
/>
<path stroke="#ee1926" vector-effect="non-scaling-stroke" d="
  M 97.82 103.89
  Q 96.48 106.40 99.22 106.39"
/>
<path stroke="#f6848c" vector-effect="non-scaling-stroke" d="
  M 99.22 106.39
  Q 99.06 106.73 99.06 107.08
  Q 99.07 107.60 99.59 107.60
  L 109.20 107.60"
/>
<path stroke="#ee1926" vector-effect="non-scaling-stroke" d="
  M 109.20 107.60
  Q 109.12 107.87 109.24 108.22
  Q 109.41 108.70 109.90 108.84
  L 111.75 109.37"
/>
<path stroke="#f2898d" vector-effect="non-scaling-stroke" d="
  M 111.75 109.37
  Q 110.98 109.52 110.36 109.34
  Q 109.37 109.05 109.48 110.08
  Q 109.60 111.16 110.54 110.95"
/>
<path stroke="#ee1926" vector-effect="non-scaling-stroke" d="
  M 110.54 110.95
  Q 109.59 112.45 109.39 113.81"
/>
<path stroke="#ea555f" vector-effect="non-scaling-stroke" d="
  M 109.39 113.81
  Q 109.50 113.43 108.92 113.15
  Q 108.42 112.91 107.88 113.07
  Q 104.02 114.21 100.01 113.20
  Q 99.27 113.01 98.65 113.45
  Q 98.10 113.84 97.58 113.38
  A 0.42 0.42 0.0 0 0 96.88 113.67
  Q 96.87 113.83 96.91 113.99
  Q 97.03 114.48 97.54 114.49
  L 106.73 114.58"
/>
<path stroke="#ee1926" vector-effect="non-scaling-stroke" d="
  M 106.73 114.58
  Q 105.25 114.92 103.86 115.29
  Q 102.81 115.57 102.04 116.41
  Q 101.50 117.01 100.92 117.60
  A 1.14 1.11 63.4 0 0 100.61 118.57
  Q 100.85 119.97 100.68 121.62
  Q 100.55 122.97 99.63 124.20
  Q 98.07 126.28 97.21 126.84
  Q 95.51 127.97 94.36 129.88
  Q 94.15 130.23 94.25 130.62
  Q 94.74 132.56 95.86 134.07
  Q 96.15 134.46 96.15 134.96
  L 96.15 135.54
  Q 96.15 136.25 96.82 136.02
  Q 97.35 135.84 97.91 135.76
  A 3.31 3.29 -88.4 0 0 100.67 133.14
  Q 101.23 130.35 103.96 127.82
  Q 104.25 127.55 104.64 127.64
  A 0.80 0.80 0.0 0 0 105.45 127.37
  Q 106.79 125.70 108.50 125.66
  Q 113.47 125.55 118.50 125.49
  Q 121.61 125.45 123.91 127.06
  Q 124.77 127.66 125.61 127.05
  Q 130.11 123.84 134.79 125.08
  Q 135.32 125.23 135.84 125.01
  Q 136.63 124.68 136.74 123.87
  Q 136.81 123.33 137.20 122.95
  Q 138.64 121.58 139.10 119.80
  Q 139.43 118.49 140.37 117.37
  Q 144.62 112.21 146.61 108.87
  Q 149.06 104.75 150.40 102.96
  Q 150.70 102.56 151.17 102.40
  Q 153.19 101.69 154.82 99.83
  Q 157.65 96.60 159.55 93.53
  C 162.01 89.57 165.49 86.49 168.11 82.53
  Q 170.59 78.80 175.07 76.30
  A 1.01 1.01 0.0 0 0 175.57 75.66
  L 175.72 75.05
  Q 175.85 74.53 176.37 74.35
  Q 177.76 73.87 178.12 72.64
  Q 178.27 72.15 178.79 72.16
  Q 179.21 72.17 179.45 71.84
  Q 179.79 71.37 179.98 70.77
  Q 180.26 69.88 181.09 69.88"
/>
<path stroke="#ef444f" vector-effect="non-scaling-stroke" d="
  M 181.09 69.88
  Q 180.61 71.56 179.85 73.18
  C 179.18 74.61 179.11 75.78 179.04 77.27
  Q 179.02 77.80 178.71 78.24
  Q 177.28 80.27 176.09 82.34
  Q 175.54 83.31 174.68 84.00
  C 173.31 85.12 172.29 85.73 171.29 87.34
  Q 169.55 90.14 168.47 93.25
  Q 167.65 95.61 166.57 97.04
  Q 164.83 99.33 164.20 100.70
  Q 161.75 105.95 159.62 111.51
  Q 159.45 111.97 158.98 112.11
  Q 157.66 112.49 158.08 113.88
  A 1.72 1.72 0.0 0 1 157.18 115.93
  Q 155.15 116.91 155.00 119.19
  C 154.93 120.29 154.45 120.98 153.96 121.92
  Q 153.55 122.71 152.82 123.34
  Q 151.35 124.59 149.90 125.87
  Q 149.51 126.22 149.36 126.72
  Q 148.86 128.50 148.48 130.33
  Q 147.98 132.81 146.98 134.18
  Q 145.41 136.36 143.51 138.49
  Q 142.31 139.85 140.56 139.40
  C 139.63 139.17 138.19 139.34 137.28 139.95
  Q 135.75 140.98 134.24 142.04
  Q 132.92 142.96 131.46 144.43
  Q 126.55 149.37 120.89 152.69
  Q 119.84 153.30 118.98 154.22
  Q 118.10 155.15 116.90 155.67
  A 1.70 1.61 4.6 0 0 116.18 156.25
  Q 114.11 159.21 111.24 162.09
  Q 110.14 163.19 108.85 163.69
  Q 105.48 165.00 104.81 168.85
  Q 104.49 170.67 103.10 171.92
  Q 102.68 172.30 102.55 172.86
  Q 102.32 173.86 101.65 174.40
  Q 99.46 176.15 97.05 178.11
  A 1.03 1.03 0.0 0 0 97.24 179.83
  Q 98.50 180.46 98.01 182.87
  Q 97.89 183.50 97.90 184.13
  Q 97.92 184.54 97.62 184.83
  Q 97.43 185.01 97.19 185.10
  A 0.64 0.64 0.0 0 1 96.44 184.85
  Q 95.12 182.93 95.58 181.36
  Q 96.26 179.05 94.38 180.63
  L 92.88 181.90
  Q 92.48 182.24 92.30 182.72
  Q 91.93 183.72 91.33 184.61
  Q 91.13 184.90 89.97 185.79
  Q 89.17 186.41 89.02 187.48"
/>
<path stroke="#ec3542" vector-effect="non-scaling-stroke" d="
  M 189.61 56.34
  L 181.09 69.88"
/>
<path stroke="#e74653" vector-effect="non-scaling-stroke" d="
  M 106.73 114.58
  Q 108.36 114.69 109.39 113.81"
/>
<path stroke="#ef7a80" vector-effect="non-scaling-stroke" d="
  M 110.54 110.95
  L 115.46 110.29
  Q 115.99 110.22 115.93 109.69
  Q 115.84 108.88 114.99 108.74
  Q 113.54 108.50 111.75 109.37"
/>
<path stroke="#f37580" vector-effect="non-scaling-stroke" d="
  M 109.20 107.60
  Q 109.72 107.15 109.48 106.58
  Q 109.27 106.08 108.73 106.07
  Q 108.37 106.07 108.06 106.25
  Q 107.60 106.51 107.08 106.51
  L 99.22 106.39"
/>
<path stroke="#ef7a80" vector-effect="non-scaling-stroke" d="
  M 97.82 103.89
  L 101.08 97.59
  Q 101.34 97.10 101.89 97.07
  L 107.08 96.78
  Q 107.71 96.74 107.91 97.34
  L 109.49 102.10
  Q 109.82 103.08 110.85 103.04
  L 111.16 103.03
  Q 112.00 102.99 111.72 102.19
  L 105.29 83.68
  Q 104.60 81.71 103.90 83.68
  L 97.44 101.66"
/>
<path stroke="#f37580" vector-effect="non-scaling-stroke" d="
  M 97.15 79.04
  Q 97.39 78.98 97.60 78.94
  Q 98.23 78.83 98.02 78.23
  Q 97.71 77.36 98.47 76.76
  A 0.51 0.51 0.0 0 0 98.43 75.92
  Q 97.58 75.41 98.12 74.55
  A 0.47 0.47 0.0 0 1 98.97 74.65
  L 100.24 78.31
  A 1.23 1.22 82.8 0 0 101.31 79.14
  L 104.29 79.38
  Q 105.08 79.44 105.69 78.94
  Q 106.30 78.45 107.08 78.64
  Q 107.77 78.80 107.62 78.11
  Q 107.47 77.40 107.94 76.73
  Q 108.39 76.07 107.60 76.15
  Q 106.55 76.26 105.73 75.71
  Q 105.26 75.40 104.75 75.65
  Q 103.52 76.26 102.24 75.60
  Q 101.50 75.22 101.78 76.01
  L 102.37 77.68
  Q 102.49 78.01 102.19 78.19
  L 101.90 78.36
  Q 101.48 78.62 101.32 78.15
  Q 100.68 76.35 99.85 74.69
  Q 99.50 73.98 98.72 73.71
  Q 97.62 73.32 97.04 74.44"
/>
<path stroke="#e8717c" vector-effect="non-scaling-stroke" d="
  M 189.54 63.98
  Q 186.37 67.67 185.14 72.34
  Q 185.10 72.49 185.04 72.62
  Q 184.96 72.78 184.79 72.83
  Q 184.25 73.00 184.35 73.56
  Q 184.54 74.64 183.51 75.15
  Q 183.09 75.35 183.12 75.82
  Q 183.14 76.20 182.97 76.55
  Q 180.60 81.49 178.31 86.25
  C 177.81 87.30 176.88 88.06 176.53 89.14
  Q 176.15 90.29 175.52 91.31
  Q 174.69 92.65 174.07 94.34
  Q 173.04 97.11 171.20 99.96
  Q 170.88 100.46 170.88 101.07
  A 1.48 1.38 -29.6 0 1 170.63 101.87
  Q 168.99 104.35 167.30 107.25
  Q 166.06 109.36 165.39 111.84
  Q 165.10 112.91 164.43 113.75
  Q 163.57 114.85 163.24 116.16
  Q 161.66 122.33 157.98 126.93
  Q 157.65 127.34 157.64 127.86
  L 157.60 130.81
  Q 157.59 131.32 157.23 131.67
  Q 154.03 134.70 153.70 138.26
  Q 153.60 139.37 154.34 140.20
  Q 154.68 140.60 154.68 141.12
  Q 154.68 144.64 153.07 147.76
  A 1.75 1.71 57.0 0 0 152.88 148.70
  Q 152.97 149.77 152.39 150.61
  A 1.87 1.77 66.1 0 0 152.07 151.51
  Q 151.90 153.75 151.37 155.75
  Q 150.92 157.46 151.94 162.52"
/>
<path stroke="#e2505b" vector-effect="non-scaling-stroke" d="
  M 151.94 162.52
  Q 150.96 160.61 149.78 159.54
  A 1.78 1.76 -40.9 0 0 147.59 159.39
  L 145.32 160.94
  A 2.76 2.75 60.3 0 0 144.38 164.39
  L 149.32 174.92
  Q 149.58 175.46 150.07 175.82
  Q 151.67 177.01 152.02 178.48
  Q 152.33 179.81 151.14 179.14
  C 148.22 177.47 148.47 175.05 147.05 172.52
  Q 145.68 170.06 144.44 167.35
  C 143.97 166.31 143.09 165.87 142.98 164.67
  A 1.72 1.71 -8.9 0 0 140.90 163.16
  Q 138.82 163.61 137.12 164.67
  Q 135.66 165.57 133.97 165.65
  Q 132.00 165.74 130.17 165.90
  Q 129.64 165.94 129.32 166.36
  Q 128.33 167.60 126.85 168.41
  A 1.11 1.08 36.0 0 1 126.08 168.52
  Q 124.51 168.18 123.09 168.46
  Q 122.70 168.54 122.47 168.87
  Q 122.13 169.35 121.58 169.35
  Q 121.09 169.35 120.78 169.73
  Q 119.60 171.22 118.02 172.20
  Q 116.82 172.95 115.37 173.05
  Q 113.71 173.17 112.72 174.32
  Q 112.40 174.69 112.43 175.18
  Q 112.52 176.73 112.14 177.25
  Q 110.05 180.17 106.95 181.55
  C 105.80 182.06 105.10 182.73 104.07 183.37
  Q 103.63 183.65 103.48 184.14
  L 102.95 185.86"
/>
<path stroke="#dd616c" vector-effect="non-scaling-stroke" d="
  M 189.62 69.44
  L 189.25 74.05
  A 1.21 1.15 73.0 0 1 188.85 74.85
  Q 187.74 75.79 187.50 77.28
  Q 186.86 81.28 185.34 85.19
  Q 184.74 86.74 184.82 88.44
  C 184.96 91.46 183.03 92.88 182.15 95.45
  Q 180.80 99.41 180.17 103.72
  Q 179.55 107.95 176.45 112.07
  Q 176.05 112.60 176.09 113.26
  Q 176.33 117.50 176.53 121.76
  C 176.65 124.21 178.40 126.05 180.03 127.67
  Q 180.29 127.93 180.66 127.89
  Q 180.80 127.88 180.93 127.87
  Q 181.51 127.80 181.93 128.20
  Q 182.90 129.12 184.36 129.14
  Q 184.92 129.15 185.17 129.66
  Q 185.44 130.19 185.98 130.46
  Q 186.41 130.67 186.53 131.14
  Q 186.70 131.76 186.93 132.36
  Q 187.12 132.83 187.64 133.44
  Q 189.45 135.54 189.34 138.73"
/>
<path stroke="#dd616c" vector-effect="non-scaling-stroke" d="
  M 174.88 178.74
  Q 171.11 176.62 163.76 177.37
  Q 159.97 177.76 156.52 174.35
  C 155.33 173.17 153.95 169.00 153.54 167.25
  Q 152.97 164.78 151.94 162.52"
/>
<path stroke="#d07675" vector-effect="non-scaling-stroke" d="
  M 75.35 59.74
  L 79.13 60.43
  A 0.53 0.53 0.0 0 0 79.73 60.04
  Q 80.00 58.95 79.75 57.78
  Q 79.61 57.05 78.94 57.38
  Q 78.31 57.69 77.61 57.72
  Q 76.92 57.76 76.59 57.15
  L 74.69 53.54
  A 1.10 1.10 0.0 0 1 76.00 51.98
  L 78.87 52.89
  Q 79.50 53.09 79.54 52.44
  L 79.65 50.97
  Q 79.71 50.16 78.91 50.09
  Q 76.97 49.92 75.21 49.00
  Q 74.42 48.59 75.01 47.94
  Q 75.59 47.30 76.29 46.88
  Q 77.00 46.46 77.30 47.23
  Q 77.67 48.16 78.48 48.69
  Q 79.03 49.06 79.22 48.42
  Q 79.50 47.47 79.40 46.47
  Q 79.36 46.03 78.92 45.96
  Q 77.70 45.77 77.89 44.20
  Q 78.00 43.30 78.65 43.07
  Q 78.87 42.99 78.95 43.22
  Q 78.97 43.27 79.01 43.31
  Q 79.50 43.92 79.43 43.14
  Q 79.34 42.22 79.56 41.31
  Q 79.75 40.55 78.96 40.54
  Q 77.81 40.52 76.77 40.28
  Q 72.96 39.39 76.66 38.11
  L 78.84 37.36
  Q 79.31 37.19 79.42 36.71
  Q 79.75 35.23 79.36 33.80
  A 1.75 1.75 0.0 0 0 78.54 32.74
  C 75.40 30.91 73.52 28.11 75.37 24.41
  A 1.03 1.01 15.0 0 1 76.34 23.86
  Q 78.03 23.99 79.13 25.69
  Q 79.56 26.35 79.69 25.58
  Q 80.12 23.22 78.17 21.62
  A 2.09 2.07 -43.5 0 0 75.61 21.56
  Q 74.18 22.63 74.18 24.43
  Q 74.18 27.45 74.14 30.90
  Q 74.12 32.22 75.37 32.33
  Q 75.99 32.38 76.00 33.00
  L 76.05 35.43
  Q 76.06 36.09 75.41 35.97
  Q 75.23 35.94 75.08 35.85
  Q 74.27 35.40 74.28 36.32
  L 74.32 42.26
  Q 74.32 43.11 75.00 42.60
  Q 75.69 42.08 76.41 42.59
  A 0.81 0.81 0.0 0 1 76.32 43.96
  C 74.96 44.71 74.10 45.95 74.24 47.54
  C 74.52 50.60 73.97 53.34 74.40 56.45
  Q 74.73 58.81 74.20 61.26
  A 1.68 1.68 0.0 0 0 75.39 63.24
  L 78.06 63.98
  A 0.63 0.63 0.0 0 1 78.14 65.16
  Q 77.28 65.53 76.33 65.71
  C 74.56 66.05 73.85 68.14 75.21 69.36
  A 1.83 1.80 66.1 0 0 76.40 69.83
  Q 78.11 69.86 78.96 71.17
  Q 79.35 71.78 79.44 71.06
  Q 79.67 69.14 77.87 68.80
  Q 77.51 68.73 77.35 68.42
  Q 77.18 68.12 77.50 67.75
  A 0.32 0.30 -78.6 0 1 77.65 67.64
  L 78.57 67.31
  Q 79.18 67.08 79.20 66.43
  L 79.29 63.50
  Q 79.31 62.79 78.63 62.59
  L 75.72 61.76
  Q 74.90 61.53 74.77 60.68
  L 74.72 60.35
  A 0.54 0.53 0.5 0 1 75.35 59.74"
/>
<path stroke="#d07675" vector-effect="non-scaling-stroke" d="
  M 79.6214 29.6251
  A 1.05 0.80 -31.9 0 0 78.3072 29.5008
  A 1.05 0.80 -31.9 0 0 77.8386 30.7349
  A 1.05 0.80 -31.9 0 0 79.1528 30.8592
  A 1.05 0.80 -31.9 0 0 79.6214 29.6251"
/>
<path stroke="#c84247" vector-effect="non-scaling-stroke" d="
  M 74.38 101.04
  Q 73.73 102.74 74.39 104.55"
/>
<path stroke="#d47174" vector-effect="non-scaling-stroke" d="
  M 74.39 104.55
  Q 73.75 105.83 72.04 107.17
  A 0.72 0.71 -39.2 0 0 71.93 108.19
  L 72.13 108.43
  A 0.47 0.47 0.0 0 0 72.85 108.43
  Q 75.07 105.74 78.22 104.34
  A 1.04 1.04 0.0 0 0 78.46 102.59
  L 75.43 100.07
  Q 75.08 99.78 74.96 99.33
  Q 74.44 97.28 72.48 96.08
  Q 71.97 95.76 71.89 96.36
  L 71.82 96.91
  A 0.35 0.35 0.0 0 0 71.95 97.22
  Q 73.96 98.71 74.38 101.04"
/>
<path stroke="#efb1b9" vector-effect="non-scaling-stroke" d="
  M 74.39 104.55
  Q 74.24 104.19 74.95 104.02"
/>
<path stroke="#e99099" vector-effect="non-scaling-stroke" d="
  M 74.95 104.02
  Q 75.80 104.06 76.28 103.67
  Q 76.71 103.32 76.42 102.84
  Q 75.95 102.07 74.99 101.73"
/>
<path stroke="#efb1b9" vector-effect="non-scaling-stroke" d="
  M 74.99 101.73
  Q 74.50 101.34 74.38 101.04"
/>
<path stroke="#dd616c" vector-effect="non-scaling-stroke" d="
  M 74.99 101.73
  Q 74.23 102.78 74.95 104.02"
/>
<path stroke="#d47174" vector-effect="non-scaling-stroke" d="
  M 74.20 114.25
  L 74.46 110.67
  Q 74.50 110.19 74.27 109.75
  Q 73.87 108.99 73.09 109.06
  A 0.11 0.11 0.0 0 0 72.99 109.19
  Q 73.45 113.44 72.39 117.03
  Q 72.25 117.53 72.50 117.99
  Q 72.97 118.83 73.15 119.79
  Q 73.30 120.55 73.80 119.97
  Q 74.00 119.74 74.04 119.42
  A 0.36 0.36 0.0 0 1 74.48 119.12
  L 78.28 120.04
  A 0.40 0.40 0.0 0 0 78.74 119.49
  Q 77.51 116.77 75.47 114.80
  Q 75.32 114.66 75.15 114.59
  Q 74.90 114.49 74.64 114.58
  A 0.33 0.33 0.0 0 1 74.20 114.25"
/>
<path stroke="#c22127" vector-effect="non-scaling-stroke" d="
  M 78.36 152.47
  C 78.42 155.80 78.91 158.85 78.82 162.19
  Q 78.69 167.18 79.70 172.64
  Q 79.87 173.58 80.82 173.64
  L 81.20 173.66
  A 0.55 0.55 0.0 0 0 81.79 173.09
  Q 81.15 155.37 81.38 137.26
  C 81.41 134.44 80.76 131.93 79.94 129.40
  Q 79.27 127.32 79.16 129.50
  C 78.96 133.58 77.99 137.61 77.95 141.53
  Q 77.90 146.80 77.87 151.75
  Q 77.87 151.99 78.12 152.10
  Q 78.36 152.20 78.36 152.47"
/>
<path stroke="#f6848c" vector-effect="non-scaling-stroke" d="
  M 103.94 110.88
  Q 104.87 111.38 105.50 110.50
  Q 106.41 109.23 104.85 109.28
  Q 102.80 109.33 100.75 109.73
  Q 100.23 109.83 99.77 109.58
  Q 99.20 109.26 98.88 109.82
  A 0.63 0.63 0.0 0 0 99.29 110.75
  Q 101.00 111.11 102.72 110.72
  Q 103.37 110.57 103.94 110.88"
/>
<path stroke="#f37580" vector-effect="non-scaling-stroke" d="
  M 153.43 34.62
  Q 152.81 34.93 152.20 34.91
  Q 151.69 34.89 151.52 35.37
  Q 151.35 35.81 151.73 36.22
  Q 152.80 37.36 152.89 38.77
  Q 152.92 39.34 152.44 39.66
  C 149.72 41.39 148.61 44.21 144.92 44.29
  A 0.47 0.47 0.0 0 1 144.44 43.76
  Q 145.05 39.00 145.54 34.24
  Q 145.73 32.38 147.36 31.69
  Q 147.82 31.50 147.94 31.02
  Q 148.12 30.26 147.63 29.71
  Q 147.35 29.38 146.92 29.38
  L 140.82 29.31
  A 0.80 0.79 72.5 0 0 140.17 30.57
  L 141.24 32.08
  Q 141.56 32.53 141.49 33.08
  L 140.23 43.02
  Q 139.91 45.53 138.62 43.36
  Q 137.42 41.33 136.48 38.97
  Q 136.24 38.36 136.86 38.13
  C 140.18 36.92 141.04 33.39 138.70 30.78
  Q 137.39 29.32 135.42 29.24
  L 127.01 28.92
  Q 125.11 28.85 126.18 30.42
  C 128.04 33.17 126.29 39.88 125.78 43.29
  A 0.48 0.48 0.0 0 1 125.08 43.65
  Q 124.48 43.33 124.33 42.66
  Q 122.89 35.98 121.44 29.70
  Q 121.28 29.02 120.59 28.99
  L 118.56 28.91
  Q 118.03 28.88 117.77 29.34
  Q 115.17 33.74 113.23 38.24
  C 112.26 40.49 109.76 42.69 107.64 43.72
  Q 103.57 45.71 102.02 41.35
  Q 100.45 36.92 103.58 32.80
  C 106.42 29.08 109.82 32.08 110.69 35.32
  Q 110.97 36.38 112.02 36.20
  Q 112.62 36.10 112.61 35.48
  Q 112.53 31.81 111.44 28.88
  Q 111.23 28.31 110.67 28.54
  L 109.97 28.83
  Q 109.45 29.04 108.91 28.89
  Q 100.04 26.40 97.27 34.81
  C 96.26 37.88 97.05 43.48 100.40 45.44
  C 104.12 47.62 106.25 45.31 109.83 45.67
  Q 112.20 45.90 114.83 45.80
  A 0.59 0.59 0.0 0 0 115.40 45.21
  Q 115.39 44.24 114.47 43.88
  Q 113.94 43.67 114.00 43.10
  Q 114.17 41.61 115.29 40.55
  Q 115.67 40.18 116.20 40.31
  Q 117.78 40.70 119.45 40.55
  Q 120.02 40.50 120.02 41.08
  L 120.03 42.73
  Q 120.03 43.61 119.22 43.96
  Q 118.34 44.35 117.89 45.11
  Q 117.39 45.94 118.36 45.96
  L 130.88 46.24
  Q 131.49 46.25 131.57 45.65
  Q 131.76 44.27 130.52 43.85
  Q 129.84 43.62 129.95 42.91
  L 130.49 39.63
  A 0.82 0.81 36.7 0 1 132.03 39.41
  L 134.91 45.34
  A 1.47 1.45 -11.6 0 0 136.18 46.16
  L 150.74 46.56
  A 0.42 0.42 0.0 0 0 151.17 46.09
  Q 151.05 45.24 151.39 44.57
  Q 151.70 43.96 151.90 44.62
  Q 152.63 46.98 154.91 46.65
  C 157.03 46.35 159.14 46.82 161.29 46.95
  A 0.72 0.72 0.0 0 0 161.99 45.95
  C 161.49 44.80 160.84 43.85 160.97 42.54
  Q 161.30 39.23 161.88 35.98
  Q 162.16 34.44 162.66 35.92
  Q 164.41 41.13 166.23 45.69
  Q 166.89 47.35 168.76 46.94
  A 1.28 1.28 0.0 0 0 169.75 45.88
  L 171.64 32.60"
/>
<path stroke="#ec3542" vector-effect="non-scaling-stroke" d="
  M 171.64 32.60
  Q 176.30 35.21 177.18 32.71"
/>
<path stroke="#f37580" vector-effect="non-scaling-stroke" d="
  M 177.18 32.71
  Q 177.90 29.34 175.41 29.25
  A 0.98 0.96 23.2 0 0 174.71 29.52
  Q 174.50 29.74 174.51 29.86"
/>
<path stroke="#ec3542" vector-effect="non-scaling-stroke" d="
  M 174.51 29.86
  L 173.22 30.44"
/>
<path stroke="#f37580" vector-effect="non-scaling-stroke" d="
  M 173.22 30.44
  L 168.28 30.25
  A 0.62 0.61 -12.2 0 0 167.70 31.14
  C 168.22 32.17 169.04 32.90 168.92 34.16
  Q 168.76 35.76 168.48 37.21
  Q 168.15 38.94 167.51 37.30
  L 164.90 30.64
  Q 164.71 30.14 164.17 30.09
  L 160.21 29.72"
/>
<path stroke="#d55961" vector-effect="non-scaling-stroke" d="
  M 160.21 29.72
  Q 159.21 28.33 158.55 26.05
  Q 158.41 25.57 158.02 25.25
  C 154.80 22.59 151.08 24.82 150.63 28.72
  Q 150.20 32.37 153.43 34.62"
/>
<path stroke="#ddc4c8" vector-effect="non-scaling-stroke" d="
  M 160.21 29.72
  Q 159.24 30.81 159.85 32.36"
/>
<path stroke="#d55961" vector-effect="non-scaling-stroke" d="
  M 159.85 32.36
  Q 157.98 33.33 156.85 35.04"
/>
<path stroke="#ddc4c8" vector-effect="non-scaling-stroke" d="
  M 156.85 35.04
  Q 154.65 35.08 153.43 34.62"
/>
<path stroke="#f37580" vector-effect="non-scaling-stroke" d="
  M 156.85 35.04
  L 155.74 43.00
  Q 155.59 44.09 156.69 44.03
  L 157.33 44.00
  Q 158.53 43.93 158.66 42.75
  L 159.85 32.36"
/>
<path stroke="#f4a0a9" vector-effect="non-scaling-stroke" d="
  M 173.22 30.44
  Q 173.40 30.49 173.56 30.54
  Q 173.88 30.63 173.80 30.96
  Q 173.26 33.14 171.64 32.60"
/>
<path stroke="#f4a0a9" vector-effect="non-scaling-stroke" d="
  M 177.18 32.71
  Q 175.72 33.70 174.51 29.86"
/>
<path stroke="#ef7a80" vector-effect="non-scaling-stroke" d="
  M 173.44 65.56
  L 172.25 65.98
  Q 170.83 66.47 171.14 65.00
  Q 171.24 64.55 170.95 64.17
  Q 170.34 63.37 170.22 64.36
  Q 170.12 65.20 170.11 66.01
  A 0.68 0.68 0.0 0 0 170.73 66.70
  Q 173.49 66.96 176.24 66.31
  Q 176.96 66.13 176.32 65.76
  Q 176.19 65.69 176.24 65.49
  Q 176.39 64.97 176.91 65.08
  Q 177.77 65.26 177.93 66.11
  Q 178.05 66.78 177.72 67.31
  Q 176.87 68.71 177.05 70.44
  A 0.44 0.43 88.3 0 1 176.60 70.92
  Q 176.23 70.90 175.99 70.62
  Q 175.56 70.14 174.91 70.06
  Q 173.24 69.86 172.72 71.43
  Q 172.25 72.84 171.65 71.48
  Q 171.15 70.33 169.82 70.13
  Q 169.19 70.03 168.68 70.39
  Q 167.85 70.97 166.77 71.08
  Q 166.17 71.14 166.58 71.58
  Q 166.70 71.70 166.84 71.77
  Q 167.32 72.02 167.77 71.73
  Q 170.48 70.01 171.49 72.92
  Q 171.87 74.01 172.61 73.12
  L 174.10 71.31
  Q 174.48 70.85 175.03 71.07
  L 176.59 71.71
  A 0.85 0.85 0.0 0 0 177.76 70.84
  Q 177.62 69.40 178.38 68.25
  Q 178.77 67.67 179.40 67.95
  Q 179.97 68.20 180.48 67.88
  Q 180.99 67.55 181.00 66.95
  Q 181.02 65.93 180.56 64.94
  Q 180.28 64.34 180.71 63.84
  L 182.42 61.85
  Q 182.77 61.44 182.41 61.04
  Q 181.47 59.98 180.53 58.84
  Q 180.07 58.29 180.63 57.84
  Q 181.04 57.52 181.01 57.00
  L 180.95 55.72
  Q 180.92 55.04 180.25 54.91
  L 178.55 54.57
  Q 178.11 54.48 178.05 54.04
  L 177.74 51.77
  Q 177.54 50.33 176.32 51.13
  Q 175.79 51.49 175.26 51.81
  Q 174.37 52.36 173.99 51.38
  Q 173.54 50.23 172.84 49.34
  A 0.76 0.76 0.0 0 0 171.51 49.61
  Q 171.23 50.67 170.48 51.43
  Q 170.18 51.74 169.83 51.48
  Q 168.79 50.69 167.42 50.52
  Q 166.73 50.44 166.73 51.13
  L 166.74 53.55
  A 1.06 1.05 8.5 0 1 165.38 54.55
  Q 164.02 54.14 163.39 55.33
  Q 163.05 55.97 163.45 56.58
  Q 164.76 58.54 162.76 60.03
  Q 162.34 60.35 162.23 60.87
  Q 161.91 62.45 163.44 62.89
  Q 164.05 63.07 163.97 63.69
  Q 163.82 64.97 163.08 66.05
  A 1.17 1.17 0.0 0 0 164.15 67.87
  Q 166.23 67.68 166.28 69.55
  Q 166.29 69.93 166.59 70.16
  Q 166.91 70.42 167.18 69.90
  A 0.64 0.64 0.0 0 0 167.20 69.37
  Q 166.52 67.73 167.09 66.44
  Q 167.30 65.98 167.80 66.04
  L 168.22 66.09
  Q 168.86 66.17 168.90 65.53
  Q 168.91 65.23 168.81 64.95
  Q 168.59 64.36 168.07 64.72
  Q 167.45 65.15 167.13 64.50
  Q 166.93 64.09 166.54 64.33
  Q 166.08 64.61 165.94 65.16
  Q 165.84 65.54 166.13 65.81
  Q 166.54 66.20 166.34 66.71
  Q 166.12 67.24 165.56 67.18
  Q 164.74 67.08 164.13 66.71
  Q 163.64 66.42 164.03 66.01
  Q 166.07 63.84 163.53 62.15
  A 0.89 0.89 0.0 0 1 163.54 60.65
  Q 166.08 59.04 164.66 56.50
  Q 164.36 55.96 164.93 55.71
  L 166.06 55.22
  Q 166.51 55.02 166.65 55.49
  C 167.33 57.70 166.87 60.63 166.76 62.94
  A 0.27 0.26 -88.9 0 0 167.02 63.22
  L 167.28 63.23
  A 0.45 0.44 -84.0 0 0 167.73 62.86
  Q 168.21 60.23 168.71 57.92
  Q 169.09 56.14 167.60 55.25
  Q 167.12 54.95 167.32 54.43
  Q 167.69 53.51 167.55 52.60
  Q 167.45 51.92 168.13 51.90
  Q 169.06 51.87 169.72 52.53
  Q 170.03 52.85 170.44 52.66
  Q 171.82 51.98 172.03 50.41
  Q 172.05 50.23 172.21 50.14
  Q 172.34 50.07 172.47 50.11
  Q 172.76 50.22 172.82 50.52
  C 173.01 51.48 173.52 52.84 174.72 52.80
  Q 175.44 52.77 175.97 52.29
  A 0.67 0.67 0.0 0 1 177.08 52.68
  L 177.39 54.70
  A 0.73 0.72 89.0 0 0 178.03 55.32
  Q 179.45 55.47 180.01 56.53
  Q 180.24 56.95 180.00 57.37
  Q 178.94 59.23 180.90 60.60
  Q 181.75 61.20 181.05 61.97
  L 179.61 63.53
  Q 179.28 63.90 179.51 64.33
  Q 179.99 65.26 180.07 66.24
  A 0.76 0.75 -19.8 0 1 179.74 66.93
  L 179.24 67.27
  Q 178.46 67.81 178.57 66.86
  L 178.77 65.20
  Q 178.85 64.56 178.21 64.57
  L 172.39 64.61
  Q 171.74 64.62 172.13 65.14
  Q 172.33 65.41 172.70 65.52
  A 0.35 0.34 -57.3 0 0 173.04 65.44
  Q 173.22 65.28 173.44 65.36
  Q 173.72 65.46 173.44 65.56"
/>
<path stroke="#f37580" vector-effect="non-scaling-stroke" d="
  M 172.9539 59.3095
  A 2.20 0.87 91.2 0 0 173.8698 57.1282
  A 2.20 0.87 91.2 0 0 173.0461 54.9105
  A 2.20 0.87 91.2 0 0 172.1302 57.0918
  A 2.20 0.87 91.2 0 0 172.9539 59.3095"
/>
<path stroke="#ef7a80" vector-effect="non-scaling-stroke" d="
  M 176.90 55.12
  L 175.82 55.18
  A 0.24 0.24 0.0 0 0 175.60 55.43
  L 175.61 55.65
  A 7.58 0.76 86.9 0 0 176.78 63.18
  L 176.82 63.17
  A 7.58 0.76 86.9 0 0 177.17 55.56
  L 177.15 55.34
  A 0.24 0.24 0.0 0 0 176.90 55.12"
/>
<path stroke="#ef7a80" vector-effect="non-scaling-stroke" d="
  M 170.77 63.37
  L 171.27 55.23
  A 0.02 0.02 0.0 0 0 171.25 55.21
  L 171.22 55.21
  A 3.94 1.65 -86.5 0 0 169.33 59.04
  L 169.31 59.36
  A 3.94 1.65 -86.5 0 0 170.72 63.39
  L 170.75 63.39
  A 0.02 0.02 0.0 0 0 170.77 63.37"
/>
<path stroke="#f37580" vector-effect="non-scaling-stroke" d="
  M 109.50 77.89
  Q 109.03 78.55 109.78 78.90
  A 0.73 0.73 0.0 0 0 110.82 78.13
  Q 110.44 75.76 110.86 73.34
  Q 110.90 73.10 110.66 73.09
  L 110.35 73.07
  A 0.13 0.13 0.0 0 0 110.21 73.22
  Q 110.56 75.13 109.49 76.27
  Q 109.06 76.73 109.48 77.26
  Q 109.72 77.57 109.50 77.89"
/>
<path stroke="#f37580" vector-effect="non-scaling-stroke" d="
  M 120.77 75.47
  Q 120.06 76.35 120.45 77.29
  Q 120.75 78.01 119.96 77.99
  L 119.24 77.97
  Q 118.51 77.95 118.40 77.23
  L 118.02 74.73
  Q 117.79 73.21 117.08 74.57
  L 116.33 76.02
  Q 116.08 76.51 115.59 76.80
  Q 114.89 77.21 115.12 78.25
  Q 115.51 80.04 115.90 78.25
  Q 116.09 77.35 116.98 76.69
  Q 117.75 76.12 117.44 77.03
  Q 117.33 77.37 117.32 77.74
  A 0.78 0.77 5.2 0 0 117.97 78.51
  L 120.43 78.90
  Q 121.15 79.02 121.34 78.31
  Q 121.74 76.78 121.26 75.45"
/>
<path stroke="#e74653" vector-effect="non-scaling-stroke" d="
  M 121.26 75.45
  Q 121.37 74.43 122.21 73.70
  A 0.26 0.26 0.0 0 0 122.24 73.34
  L 122.06 73.12
  Q 121.90 72.93 121.72 73.10
  Q 120.64 74.12 120.77 75.47"
/>
<path stroke="#efb1b9" vector-effect="non-scaling-stroke" d="
  M 121.26 75.45
  Q 121.00 75.31 120.77 75.47"
/>
<path stroke="#f37580" vector-effect="non-scaling-stroke" d="
  M 127.4341 73.7020
  A 0.51 0.51 0.0 0 0 126.9552 73.1626
  L 126.6957 73.1472
  A 0.51 0.51 0.0 0 0 126.1563 73.6261
  L 125.8859 78.1780
  A 0.51 0.51 0.0 0 0 126.3648 78.7174
  L 126.6243 78.7328
  A 0.51 0.51 0.0 0 0 127.1637 78.2539
  L 127.4341 73.7020"
/>
<path stroke="#f37580" vector-effect="non-scaling-stroke" d="
  M 113.62 74.61
  C 114.38 76.42 112.68 76.90 113.10 78.49
  Q 113.35 79.44 113.72 78.53
  L 114.94 75.46
  A 1.08 1.06 44.3 0 0 114.92 74.64
  Q 114.46 73.56 113.74 74.14
  A 0.40 0.40 0.0 0 0 113.62 74.61"
/>
<path stroke="#f37580" vector-effect="non-scaling-stroke" d="
  M 124.2082 74.8416
  A 0.29 0.29 0.0 0 0 123.8794 74.5965
  L 122.9888 74.7264
  A 0.29 0.29 0.0 0 0 122.7437 75.0553
  L 123.2518 78.5384
  A 0.29 0.29 0.0 0 0 123.5806 78.7835
  L 124.4712 78.6536
  A 0.29 0.29 0.0 0 0 124.7163 78.3247
  L 124.2082 74.8416"
/>
<path stroke="#e74653" vector-effect="non-scaling-stroke" d="
  M 136.61 75.11
  Q 137.15 74.76 136.59 74.44
  Q 136.53 74.41 136.47 74.46
  Q 135.79 75.12 134.72 75.18
  Q 133.65 75.23 134.44 75.94
  Q 134.49 75.98 134.56 75.98
  Q 135.35 75.97 135.87 76.54
  Q 136.45 77.18 137.18 77.53
  Q 137.99 77.91 137.61 77.10
  Q 137.25 76.32 136.59 75.82
  A 0.44 0.44 0.0 0 1 136.61 75.11"
/>
<path stroke="#e74653" vector-effect="non-scaling-stroke" d="
  M 139.05 76.10
  Q 139.21 76.14 139.37 76.12
  Q 139.86 76.08 139.83 75.59
  L 139.80 74.96
  Q 139.76 74.41 139.25 74.61
  Q 138.24 75.01 137.95 76.05
  A 0.47 0.47 0.0 0 0 138.52 76.63
  Q 138.81 76.55 138.83 76.26
  Q 138.85 76.06 139.05 76.10"
/>
<path stroke="#f37580" vector-effect="non-scaling-stroke" d="
  M 137.07 78.63
  L 133.67 77.24"
/>
<path stroke="#e74653" vector-effect="non-scaling-stroke" d="
  M 133.67 77.24
  Q 133.12 77.05 133.24 75.95
  Q 133.33 75.14 132.52 75.22
  Q 131.73 75.30 131.10 75.75
  Q 130.80 75.97 130.85 76.33
  Q 130.86 76.48 130.91 76.62
  A 0.43 0.42 73.1 0 0 131.42 76.90
  Q 132.59 76.62 133.07 77.24"
/>
<path stroke="#f37580" vector-effect="non-scaling-stroke" d="
  M 133.07 77.24
  L 132.88 77.42
  Q 132.63 77.68 132.93 77.88
  Q 134.62 79.01 136.42 79.02"
/>
<path stroke="#e74653" vector-effect="non-scaling-stroke" d="
  M 136.42 79.02
  Q 136.95 79.50 137.78 79.27
  Q 140.85 78.40 143.08 78.41
  Q 143.63 78.42 143.59 77.87
  Q 143.56 77.48 143.21 76.95"
/>
<path stroke="#ec3542" vector-effect="non-scaling-stroke" d="
  M 143.21 76.95
  Q 143.40 76.56 142.83 75.73"
/>
<path stroke="#e74653" vector-effect="non-scaling-stroke" d="
  M 142.83 75.73
  Q 142.87 75.42 142.70 75.20
  Q 142.36 74.77 141.91 75.08
  Q 140.63 75.94 140.28 77.33
  Q 140.16 77.78 139.70 77.86
  L 138.75 78.01
  Q 138.30 78.07 138.07 78.46
  Q 137.62 79.18 137.07 78.63"
/>
<path stroke="#e8717c" vector-effect="non-scaling-stroke" d="
  M 142.83 75.73
  L 141.67 77.26
  Q 141.34 77.70 141.89 77.70
  Q 142.66 77.69 143.21 76.95"
/>
<path stroke="#efb1b9" vector-effect="non-scaling-stroke" d="
  M 136.42 79.02
  Q 136.87 78.94 137.07 78.63"
/>
<path stroke="#efb1b9" vector-effect="non-scaling-stroke" d="
  M 133.67 77.24
  Q 133.53 77.35 133.07 77.24"
/>
<path stroke="#ef7a80" vector-effect="non-scaling-stroke" d="
  M 130.1108 78.4244
  A 0.99 0.75 7.8 0 0 129.2318 77.5469
  A 0.99 0.75 7.8 0 0 128.1492 78.1556
  A 0.99 0.75 7.8 0 0 129.0282 79.0331
  A 0.99 0.75 7.8 0 0 130.1108 78.4244"
/>
<path stroke="#ef7a80" vector-effect="non-scaling-stroke" d="
  M 120.08 99.82
  L 120.14 102.19
  A 0.68 0.67 14.7 0 0 120.47 102.75
  L 120.87 102.97
  A 0.44 0.44 0.0 0 0 121.51 102.72
  Q 121.97 101.32 121.77 99.82
  Q 121.66 99.03 122.46 99.01
  L 123.56 98.99
  Q 124.04 98.98 124.28 98.56
  Q 124.43 98.30 124.37 98.01
  Q 124.24 97.47 123.70 97.31
  L 122.51 96.97
  Q 121.98 96.82 121.98 96.26
  L 122.02 83.59
  Q 122.02 81.63 120.98 83.29
  L 111.57 98.30
  A 0.79 0.79 0.0 0 0 112.28 99.51
  L 119.41 99.19
  Q 120.06 99.16 120.08 99.82"
/>
<path stroke="#e74653" vector-effect="non-scaling-stroke" d="
  M 126.7891 109.4272
  A 0.61 0.61 0.0 0 0 126.1759 108.8204
  L 118.6960 108.8596
  A 0.61 0.61 0.0 0 0 118.0892 109.4728
  L 118.0909 109.8128
  A 0.61 0.61 0.0 0 0 118.7041 110.4196
  L 126.1840 110.3804
  A 0.61 0.61 0.0 0 0 126.7908 109.7672
  L 126.7891 109.4272"
/>
<path stroke="#d07675" vector-effect="non-scaling-stroke" d="
  M 78.47 35.22
  A 0.41 0.40 -28.0 0 0 78.65 34.64
  Q 78.27 34.03 77.65 33.85
  Q 77.10 33.69 77.12 34.25
  L 77.15 35.08
  Q 77.17 35.80 77.83 35.51
  L 78.47 35.22"
/>
<path stroke="#f37580" vector-effect="non-scaling-stroke" d="
  M 131.05 34.91
  A 1.11 1.11 0.0 0 0 132.43 36.23
  L 134.44 35.68
  A 1.11 1.11 0.0 0 0 135.20 34.92
  L 135.78 32.94
  A 1.11 1.11 0.0 0 0 134.88 31.53
  L 132.97 31.24
  A 1.11 1.11 0.0 0 0 131.72 32.08
  L 131.05 34.91"
/>
<path stroke="#f37580" vector-effect="non-scaling-stroke" d="
  M 118.31 33.92
  L 116.69 37.07
  Q 116.36 37.71 117.07 37.75
  L 118.42 37.81
  Q 119.18 37.85 119.11 37.09
  L 118.84 34.02
  Q 118.75 33.06 118.31 33.92"
/>
<path stroke="#f37580" vector-effect="non-scaling-stroke" d="
  M 104.78 78.15
  L 105.47 78.26
  Q 106.15 78.38 106.19 77.69
  Q 106.23 76.99 105.95 76.38
  A 0.46 0.45 46.7 0 0 105.13 76.35
  Q 104.56 77.46 103.68 76.54
  Q 103.23 76.08 103.00 76.68
  Q 102.82 77.15 102.81 77.71
  Q 102.80 78.16 103.15 78.46
  Q 103.55 78.82 103.95 78.42
  A 0.96 0.94 -62.4 0 1 104.78 78.15"
/>
<path stroke="#ef7a80" vector-effect="non-scaling-stroke" d="
  M 107.09 94.66
  Q 105.71 91.50 105.08 88.76
  Q 104.62 86.74 104.07 88.74
  Q 103.32 91.44 101.98 94.35
  Q 101.62 95.14 102.49 95.11
  L 106.93 94.92
  A 0.19 0.18 77.6 0 0 107.09 94.66"
/>
<path stroke="#ef7a80" vector-effect="non-scaling-stroke" d="
  M 114.57 96.74
  A 0.30 0.30 0.0 0 0 114.83 97.20
  L 119.80 97.27
  A 0.30 0.30 0.0 0 0 120.10 96.97
  L 120.19 88.64
  A 0.30 0.30 0.0 0 0 119.63 88.48
  L 114.57 96.74"
/>
<path stroke="#d47174" vector-effect="non-scaling-stroke" d="
  M 74.21 115.19
  Q 73.66 116.99 75.04 117.82
  A 0.40 0.40 0.0 0 0 75.62 117.32
  L 74.75 115.16
  Q 74.45 114.42 74.21 115.19"
/>
</g>
<path fill="#ad0202" d="
  M 83.38 7.21
  Q 82.95 30.15 83.21 52.93
  C 83.25 55.71 82.83 58.36 83.01 61.17
  Q 83.21 64.21 83.18 67.32
  Q 83.03 88.37 83.23 109.25
  Q 83.28 114.09 83.27 118.25
  Q 83.23 134.01 82.81 146.66
  Q 82.81 146.70 82.81 146.74
  L 82.92 174.86
  Q 82.92 175.32 83.09 175.73
  Q 83.40 176.52 83.43 177.43
  Q 83.60 181.98 82.87 185.74
  Q 82.57 187.26 83.95 187.47
  Q 78.92 186.93 75.52 184.93
  L 74.96 143.88
  C 76.35 139.27 75.89 134.30 76.64 129.56
  A 0.96 0.95 -70.0 0 0 76.20 128.61
  L 74.07 127.24
  Q 73.63 126.96 73.24 127.32
  Q 72.79 127.73 73.20 127.89
  Q 72.77 128.41 72.75 129.16
  Q 72.74 129.56 72.35 129.62
  Q 72.17 129.64 72.01 129.47
  Q 71.67 129.12 71.32 129.47
  Q 70.57 130.24 70.05 129.54
  Q 70.35 79.65 70.15 29.75
  Q 70.12 20.77 69.68 11.77
  A 1.47 1.46 67.9 0 1 70.16 10.62
  L 73.01 8.04
  A 1.13 1.09 -71.0 0 1 73.54 7.77
  Q 79.19 6.71 83.38 7.21
  Z
  M 75.35 59.74
  L 79.13 60.43
  A 0.53 0.53 0.0 0 0 79.73 60.04
  Q 80.00 58.95 79.75 57.78
  Q 79.61 57.05 78.94 57.38
  Q 78.31 57.69 77.61 57.72
  Q 76.92 57.76 76.59 57.15
  L 74.69 53.54
  A 1.10 1.10 0.0 0 1 76.00 51.98
  L 78.87 52.89
  Q 79.50 53.09 79.54 52.44
  L 79.65 50.97
  Q 79.71 50.16 78.91 50.09
  Q 76.97 49.92 75.21 49.00
  Q 74.42 48.59 75.01 47.94
  Q 75.59 47.30 76.29 46.88
  Q 77.00 46.46 77.30 47.23
  Q 77.67 48.16 78.48 48.69
  Q 79.03 49.06 79.22 48.42
  Q 79.50 47.47 79.40 46.47
  Q 79.36 46.03 78.92 45.96
  Q 77.70 45.77 77.89 44.20
  Q 78.00 43.30 78.65 43.07
  Q 78.87 42.99 78.95 43.22
  Q 78.97 43.27 79.01 43.31
  Q 79.50 43.92 79.43 43.14
  Q 79.34 42.22 79.56 41.31
  Q 79.75 40.55 78.96 40.54
  Q 77.81 40.52 76.77 40.28
  Q 72.96 39.39 76.66 38.11
  L 78.84 37.36
  Q 79.31 37.19 79.42 36.71
  Q 79.75 35.23 79.36 33.80
  A 1.75 1.75 0.0 0 0 78.54 32.74
  C 75.40 30.91 73.52 28.11 75.37 24.41
  A 1.03 1.01 15.0 0 1 76.34 23.86
  Q 78.03 23.99 79.13 25.69
  Q 79.56 26.35 79.69 25.58
  Q 80.12 23.22 78.17 21.62
  A 2.09 2.07 -43.5 0 0 75.61 21.56
  Q 74.18 22.63 74.18 24.43
  Q 74.18 27.45 74.14 30.90
  Q 74.12 32.22 75.37 32.33
  Q 75.99 32.38 76.00 33.00
  L 76.05 35.43
  Q 76.06 36.09 75.41 35.97
  Q 75.23 35.94 75.08 35.85
  Q 74.27 35.40 74.28 36.32
  L 74.32 42.26
  Q 74.32 43.11 75.00 42.60
  Q 75.69 42.08 76.41 42.59
  A 0.81 0.81 0.0 0 1 76.32 43.96
  C 74.96 44.71 74.10 45.95 74.24 47.54
  C 74.52 50.60 73.97 53.34 74.40 56.45
  Q 74.73 58.81 74.20 61.26
  A 1.68 1.68 0.0 0 0 75.39 63.24
  L 78.06 63.98
  A 0.63 0.63 0.0 0 1 78.14 65.16
  Q 77.28 65.53 76.33 65.71
  C 74.56 66.05 73.85 68.14 75.21 69.36
  A 1.83 1.80 66.1 0 0 76.40 69.83
  Q 78.11 69.86 78.96 71.17
  Q 79.35 71.78 79.44 71.06
  Q 79.67 69.14 77.87 68.80
  Q 77.51 68.73 77.35 68.42
  Q 77.18 68.12 77.50 67.75
  A 0.32 0.30 -78.6 0 1 77.65 67.64
  L 78.57 67.31
  Q 79.18 67.08 79.20 66.43
  L 79.29 63.50
  Q 79.31 62.79 78.63 62.59
  L 75.72 61.76
  Q 74.90 61.53 74.77 60.68
  L 74.72 60.35
  A 0.54 0.53 0.5 0 1 75.35 59.74
  Z
  M 79.6214 29.6251
  A 1.05 0.80 -31.9 0 0 78.3072 29.5008
  A 1.05 0.80 -31.9 0 0 77.8386 30.7349
  A 1.05 0.80 -31.9 0 0 79.1528 30.8592
  A 1.05 0.80 -31.9 0 0 79.6214 29.6251
  Z
  M 74.38 101.04
  Q 73.73 102.74 74.39 104.55
  Q 73.75 105.83 72.04 107.17
  A 0.72 0.71 -39.2 0 0 71.93 108.19
  L 72.13 108.43
  A 0.47 0.47 0.0 0 0 72.85 108.43
  Q 75.07 105.74 78.22 104.34
  A 1.04 1.04 0.0 0 0 78.46 102.59
  L 75.43 100.07
  Q 75.08 99.78 74.96 99.33
  Q 74.44 97.28 72.48 96.08
  Q 71.97 95.76 71.89 96.36
  L 71.82 96.91
  A 0.35 0.35 0.0 0 0 71.95 97.22
  Q 73.96 98.71 74.38 101.04
  Z
  M 74.20 114.25
  L 74.46 110.67
  Q 74.50 110.19 74.27 109.75
  Q 73.87 108.99 73.09 109.06
  A 0.11 0.11 0.0 0 0 72.99 109.19
  Q 73.45 113.44 72.39 117.03
  Q 72.25 117.53 72.50 117.99
  Q 72.97 118.83 73.15 119.79
  Q 73.30 120.55 73.80 119.97
  Q 74.00 119.74 74.04 119.42
  A 0.36 0.36 0.0 0 1 74.48 119.12
  L 78.28 120.04
  A 0.40 0.40 0.0 0 0 78.74 119.49
  Q 77.51 116.77 75.47 114.80
  Q 75.32 114.66 75.15 114.59
  Q 74.90 114.49 74.64 114.58
  A 0.33 0.33 0.0 0 1 74.20 114.25
  Z
  M 78.36 152.47
  C 78.42 155.80 78.91 158.85 78.82 162.19
  Q 78.69 167.18 79.70 172.64
  Q 79.87 173.58 80.82 173.64
  L 81.20 173.66
  A 0.55 0.55 0.0 0 0 81.79 173.09
  Q 81.15 155.37 81.38 137.26
  C 81.41 134.44 80.76 131.93 79.94 129.40
  Q 79.27 127.32 79.16 129.50
  C 78.96 133.58 77.99 137.61 77.95 141.53
  Q 77.90 146.80 77.87 151.75
  Q 77.87 151.99 78.12 152.10
  Q 78.36 152.20 78.36 152.47
  Z"
/>
<path fill="#f12832" d="
  M 83.38 7.21
  L 93.02 7.56
  Q 92.27 9.52 92.11 13.50
  Q 91.78 21.50 92.09 29.50
  C 92.13 30.57 92.63 31.49 92.62 32.48
  Q 92.56 41.94 92.62 51.66
  C 92.62 52.83 92.21 53.97 92.32 55.15
  C 92.73 59.50 92.03 64.22 93.46 68.22
  Q 94.67 71.59 97.04 74.44
  L 97.15 79.04
  L 96.69 79.84
  A 1.96 1.92 56.7 0 0 96.46 81.00
  C 96.89 84.65 95.41 88.15 95.58 91.90
  Q 95.70 94.50 95.62 96.96
  Q 95.60 97.49 95.85 97.96
  Q 96.75 99.66 95.54 100.87
  Q 95.34 101.07 95.38 101.35
  Q 95.51 102.26 95.83 103.00
  Q 96.14 103.73 96.47 103.00
  Q 96.93 101.97 97.44 101.66
  Q 96.62 104.01 97.82 103.89
  Q 96.48 106.40 99.22 106.39
  Q 99.06 106.73 99.06 107.08
  Q 99.07 107.60 99.59 107.60
  L 109.20 107.60
  Q 109.12 107.87 109.24 108.22
  Q 109.41 108.70 109.90 108.84
  L 111.75 109.37
  Q 110.98 109.52 110.36 109.34
  Q 109.37 109.05 109.48 110.08
  Q 109.60 111.16 110.54 110.95
  Q 109.59 112.45 109.39 113.81
  Q 109.50 113.43 108.92 113.15
  Q 108.42 112.91 107.88 113.07
  Q 104.02 114.21 100.01 113.20
  Q 99.27 113.01 98.65 113.45
  Q 98.10 113.84 97.58 113.38
  A 0.42 0.42 0.0 0 0 96.88 113.67
  Q 96.87 113.83 96.91 113.99
  Q 97.03 114.48 97.54 114.49
  L 106.73 114.58
  Q 105.25 114.92 103.86 115.29
  Q 102.81 115.57 102.04 116.41
  Q 101.50 117.01 100.92 117.60
  A 1.14 1.11 63.4 0 0 100.61 118.57
  Q 100.85 119.97 100.68 121.62
  Q 100.55 122.97 99.63 124.20
  Q 98.07 126.28 97.21 126.84
  Q 95.51 127.97 94.36 129.88
  Q 94.15 130.23 94.25 130.62
  Q 94.74 132.56 95.86 134.07
  Q 96.15 134.46 96.15 134.96
  L 96.15 135.54
  Q 96.15 136.25 96.82 136.02
  Q 97.35 135.84 97.91 135.76
  A 3.31 3.29 -88.4 0 0 100.67 133.14
  Q 101.23 130.35 103.96 127.82
  Q 104.25 127.55 104.64 127.64
  A 0.80 0.80 0.0 0 0 105.45 127.37
  Q 106.79 125.70 108.50 125.66
  Q 113.47 125.55 118.50 125.49
  Q 121.61 125.45 123.91 127.06
  Q 124.77 127.66 125.61 127.05
  Q 130.11 123.84 134.79 125.08
  Q 135.32 125.23 135.84 125.01
  Q 136.63 124.68 136.74 123.87
  Q 136.81 123.33 137.20 122.95
  Q 138.64 121.58 139.10 119.80
  Q 139.43 118.49 140.37 117.37
  Q 144.62 112.21 146.61 108.87
  Q 149.06 104.75 150.40 102.96
  Q 150.70 102.56 151.17 102.40
  Q 153.19 101.69 154.82 99.83
  Q 157.65 96.60 159.55 93.53
  C 162.01 89.57 165.49 86.49 168.11 82.53
  Q 170.59 78.80 175.07 76.30
  A 1.01 1.01 0.0 0 0 175.57 75.66
  L 175.72 75.05
  Q 175.85 74.53 176.37 74.35
  Q 177.76 73.87 178.12 72.64
  Q 178.27 72.15 178.79 72.16
  Q 179.21 72.17 179.45 71.84
  Q 179.79 71.37 179.98 70.77
  Q 180.26 69.88 181.09 69.88
  Q 180.61 71.56 179.85 73.18
  C 179.18 74.61 179.11 75.78 179.04 77.27
  Q 179.02 77.80 178.71 78.24
  Q 177.28 80.27 176.09 82.34
  Q 175.54 83.31 174.68 84.00
  C 173.31 85.12 172.29 85.73 171.29 87.34
  Q 169.55 90.14 168.47 93.25
  Q 167.65 95.61 166.57 97.04
  Q 164.83 99.33 164.20 100.70
  Q 161.75 105.95 159.62 111.51
  Q 159.45 111.97 158.98 112.11
  Q 157.66 112.49 158.08 113.88
  A 1.72 1.72 0.0 0 1 157.18 115.93
  Q 155.15 116.91 155.00 119.19
  C 154.93 120.29 154.45 120.98 153.96 121.92
  Q 153.55 122.71 152.82 123.34
  Q 151.35 124.59 149.90 125.87
  Q 149.51 126.22 149.36 126.72
  Q 148.86 128.50 148.48 130.33
  Q 147.98 132.81 146.98 134.18
  Q 145.41 136.36 143.51 138.49
  Q 142.31 139.85 140.56 139.40
  C 139.63 139.17 138.19 139.34 137.28 139.95
  Q 135.75 140.98 134.24 142.04
  Q 132.92 142.96 131.46 144.43
  Q 126.55 149.37 120.89 152.69
  Q 119.84 153.30 118.98 154.22
  Q 118.10 155.15 116.90 155.67
  A 1.70 1.61 4.6 0 0 116.18 156.25
  Q 114.11 159.21 111.24 162.09
  Q 110.14 163.19 108.85 163.69
  Q 105.48 165.00 104.81 168.85
  Q 104.49 170.67 103.10 171.92
  Q 102.68 172.30 102.55 172.86
  Q 102.32 173.86 101.65 174.40
  Q 99.46 176.15 97.05 178.11
  A 1.03 1.03 0.0 0 0 97.24 179.83
  Q 98.50 180.46 98.01 182.87
  Q 97.89 183.50 97.90 184.13
  Q 97.92 184.54 97.62 184.83
  Q 97.43 185.01 97.19 185.10
  A 0.64 0.64 0.0 0 1 96.44 184.85
  Q 95.12 182.93 95.58 181.36
  Q 96.26 179.05 94.38 180.63
  L 92.88 181.90
  Q 92.48 182.24 92.30 182.72
  Q 91.93 183.72 91.33 184.61
  Q 91.13 184.90 89.97 185.79
  Q 89.17 186.41 89.02 187.48
  L 83.95 187.47
  Q 82.57 187.26 82.87 185.74
  Q 83.60 181.98 83.43 177.43
  Q 83.40 176.52 83.09 175.73
  Q 82.92 175.32 82.92 174.86
  L 82.81 146.74
  Q 82.81 146.70 82.81 146.66
  Q 83.23 134.01 83.27 118.25
  Q 83.28 114.09 83.23 109.25
  Q 83.03 88.37 83.18 67.32
  Q 83.21 64.21 83.01 61.17
  C 82.83 58.36 83.25 55.71 83.21 52.93
  Q 82.95 30.15 83.38 7.21
  Z
  M 103.94 110.88
  Q 104.87 111.38 105.50 110.50
  Q 106.41 109.23 104.85 109.28
  Q 102.80 109.33 100.75 109.73
  Q 100.23 109.83 99.77 109.58
  Q 99.20 109.26 98.88 109.82
  A 0.63 0.63 0.0 0 0 99.29 110.75
  Q 101.00 111.11 102.72 110.72
  Q 103.37 110.57 103.94 110.88
  Z"
/>
<path fill="#eb0a19" d="
  M 93.02 7.56
  L 187.67 12.53
  Q 189.61 12.63 189.61 14.58
  L 189.61 56.34
  L 181.09 69.88
  Q 180.26 69.88 179.98 70.77
  Q 179.79 71.37 179.45 71.84
  Q 179.21 72.17 178.79 72.16
  Q 178.27 72.15 178.12 72.64
  Q 177.76 73.87 176.37 74.35
  Q 175.85 74.53 175.72 75.05
  L 175.57 75.66
  A 1.01 1.01 0.0 0 1 175.07 76.30
  Q 170.59 78.80 168.11 82.53
  C 165.49 86.49 162.01 89.57 159.55 93.53
  Q 157.65 96.60 154.82 99.83
  Q 153.19 101.69 151.17 102.40
  Q 150.70 102.56 150.40 102.96
  Q 149.06 104.75 146.61 108.87
  Q 144.62 112.21 140.37 117.37
  Q 139.43 118.49 139.10 119.80
  Q 138.64 121.58 137.20 122.95
  Q 136.81 123.33 136.74 123.87
  Q 136.63 124.68 135.84 125.01
  Q 135.32 125.23 134.79 125.08
  Q 130.11 123.84 125.61 127.05
  Q 124.77 127.66 123.91 127.06
  Q 121.61 125.45 118.50 125.49
  Q 113.47 125.55 108.50 125.66
  Q 106.79 125.70 105.45 127.37
  A 0.80 0.80 0.0 0 1 104.64 127.64
  Q 104.25 127.55 103.96 127.82
  Q 101.23 130.35 100.67 133.14
  A 3.31 3.29 -88.4 0 1 97.91 135.76
  Q 97.35 135.84 96.82 136.02
  Q 96.15 136.25 96.15 135.54
  L 96.15 134.96
  Q 96.15 134.46 95.86 134.07
  Q 94.74 132.56 94.25 130.62
  Q 94.15 130.23 94.36 129.88
  Q 95.51 127.97 97.21 126.84
  Q 98.07 126.28 99.63 124.20
  Q 100.55 122.97 100.68 121.62
  Q 100.85 119.97 100.61 118.57
  A 1.14 1.11 63.4 0 1 100.92 117.60
  Q 101.50 117.01 102.04 116.41
  Q 102.81 115.57 103.86 115.29
  Q 105.25 114.92 106.73 114.58
  Q 108.36 114.69 109.39 113.81
  Q 109.59 112.45 110.54 110.95
  L 115.46 110.29
  Q 115.99 110.22 115.93 109.69
  Q 115.84 108.88 114.99 108.74
  Q 113.54 108.50 111.75 109.37
  L 109.90 108.84
  Q 109.41 108.70 109.24 108.22
  Q 109.12 107.87 109.20 107.60
  Q 109.72 107.15 109.48 106.58
  Q 109.27 106.08 108.73 106.07
  Q 108.37 106.07 108.06 106.25
  Q 107.60 106.51 107.08 106.51
  L 99.22 106.39
  Q 96.48 106.40 97.82 103.89
  L 101.08 97.59
  Q 101.34 97.10 101.89 97.07
  L 107.08 96.78
  Q 107.71 96.74 107.91 97.34
  L 109.49 102.10
  Q 109.82 103.08 110.85 103.04
  L 111.16 103.03
  Q 112.00 102.99 111.72 102.19
  L 105.29 83.68
  Q 104.60 81.71 103.90 83.68
  L 97.44 101.66
  Q 96.93 101.97 96.47 103.00
  Q 96.14 103.73 95.83 103.00
  Q 95.51 102.26 95.38 101.35
  Q 95.34 101.07 95.54 100.87
  Q 96.75 99.66 95.85 97.96
  Q 95.60 97.49 95.62 96.96
  Q 95.70 94.50 95.58 91.90
  C 95.41 88.15 96.89 84.65 96.46 81.00
  A 1.96 1.92 56.7 0 1 96.69 79.84
  L 97.15 79.04
  Q 97.39 78.98 97.60 78.94
  Q 98.23 78.83 98.02 78.23
  Q 97.71 77.36 98.47 76.76
  A 0.51 0.51 0.0 0 0 98.43 75.92
  Q 97.58 75.41 98.12 74.55
  A 0.47 0.47 0.0 0 1 98.97 74.65
  L 100.24 78.31
  A 1.23 1.22 82.8 0 0 101.31 79.14
  L 104.29 79.38
  Q 105.08 79.44 105.69 78.94
  Q 106.30 78.45 107.08 78.64
  Q 107.77 78.80 107.62 78.11
  Q 107.47 77.40 107.94 76.73
  Q 108.39 76.07 107.60 76.15
  Q 106.55 76.26 105.73 75.71
  Q 105.26 75.40 104.75 75.65
  Q 103.52 76.26 102.24 75.60
  Q 101.50 75.22 101.78 76.01
  L 102.37 77.68
  Q 102.49 78.01 102.19 78.19
  L 101.90 78.36
  Q 101.48 78.62 101.32 78.15
  Q 100.68 76.35 99.85 74.69
  Q 99.50 73.98 98.72 73.71
  Q 97.62 73.32 97.04 74.44
  Q 94.67 71.59 93.46 68.22
  C 92.03 64.22 92.73 59.50 92.32 55.15
  C 92.21 53.97 92.62 52.83 92.62 51.66
  Q 92.56 41.94 92.62 32.48
  C 92.63 31.49 92.13 30.57 92.09 29.50
  Q 91.78 21.50 92.11 13.50
  Q 92.27 9.52 93.02 7.56
  Z
  M 153.43 34.62
  Q 152.81 34.93 152.20 34.91
  Q 151.69 34.89 151.52 35.37
  Q 151.35 35.81 151.73 36.22
  Q 152.80 37.36 152.89 38.77
  Q 152.92 39.34 152.44 39.66
  C 149.72 41.39 148.61 44.21 144.92 44.29
  A 0.47 0.47 0.0 0 1 144.44 43.76
  Q 145.05 39.00 145.54 34.24
  Q 145.73 32.38 147.36 31.69
  Q 147.82 31.50 147.94 31.02
  Q 148.12 30.26 147.63 29.71
  Q 147.35 29.38 146.92 29.38
  L 140.82 29.31
  A 0.80 0.79 72.5 0 0 140.17 30.57
  L 141.24 32.08
  Q 141.56 32.53 141.49 33.08
  L 140.23 43.02
  Q 139.91 45.53 138.62 43.36
  Q 137.42 41.33 136.48 38.97
  Q 136.24 38.36 136.86 38.13
  C 140.18 36.92 141.04 33.39 138.70 30.78
  Q 137.39 29.32 135.42 29.24
  L 127.01 28.92
  Q 125.11 28.85 126.18 30.42
  C 128.04 33.17 126.29 39.88 125.78 43.29
  A 0.48 0.48 0.0 0 1 125.08 43.65
  Q 124.48 43.33 124.33 42.66
  Q 122.89 35.98 121.44 29.70
  Q 121.28 29.02 120.59 28.99
  L 118.56 28.91
  Q 118.03 28.88 117.77 29.34
  Q 115.17 33.74 113.23 38.24
  C 112.26 40.49 109.76 42.69 107.64 43.72
  Q 103.57 45.71 102.02 41.35
  Q 100.45 36.92 103.58 32.80
  C 106.42 29.08 109.82 32.08 110.69 35.32
  Q 110.97 36.38 112.02 36.20
  Q 112.62 36.10 112.61 35.48
  Q 112.53 31.81 111.44 28.88
  Q 111.23 28.31 110.67 28.54
  L 109.97 28.83
  Q 109.45 29.04 108.91 28.89
  Q 100.04 26.40 97.27 34.81
  C 96.26 37.88 97.05 43.48 100.40 45.44
  C 104.12 47.62 106.25 45.31 109.83 45.67
  Q 112.20 45.90 114.83 45.80
  A 0.59 0.59 0.0 0 0 115.40 45.21
  Q 115.39 44.24 114.47 43.88
  Q 113.94 43.67 114.00 43.10
  Q 114.17 41.61 115.29 40.55
  Q 115.67 40.18 116.20 40.31
  Q 117.78 40.70 119.45 40.55
  Q 120.02 40.50 120.02 41.08
  L 120.03 42.73
  Q 120.03 43.61 119.22 43.96
  Q 118.34 44.35 117.89 45.11
  Q 117.39 45.94 118.36 45.96
  L 130.88 46.24
  Q 131.49 46.25 131.57 45.65
  Q 131.76 44.27 130.52 43.85
  Q 129.84 43.62 129.95 42.91
  L 130.49 39.63
  A 0.82 0.81 36.7 0 1 132.03 39.41
  L 134.91 45.34
  A 1.47 1.45 -11.6 0 0 136.18 46.16
  L 150.74 46.56
  A 0.42 0.42 0.0 0 0 151.17 46.09
  Q 151.05 45.24 151.39 44.57
  Q 151.70 43.96 151.90 44.62
  Q 152.63 46.98 154.91 46.65
  C 157.03 46.35 159.14 46.82 161.29 46.95
  A 0.72 0.72 0.0 0 0 161.99 45.95
  C 161.49 44.80 160.84 43.85 160.97 42.54
  Q 161.30 39.23 161.88 35.98
  Q 162.16 34.44 162.66 35.92
  Q 164.41 41.13 166.23 45.69
  Q 166.89 47.35 168.76 46.94
  A 1.28 1.28 0.0 0 0 169.75 45.88
  L 171.64 32.60
  Q 176.30 35.21 177.18 32.71
  Q 177.90 29.34 175.41 29.25
  A 0.98 0.96 23.2 0 0 174.71 29.52
  Q 174.50 29.74 174.51 29.86
  L 173.22 30.44
  L 168.28 30.25
  A 0.62 0.61 -12.2 0 0 167.70 31.14
  C 168.22 32.17 169.04 32.90 168.92 34.16
  Q 168.76 35.76 168.48 37.21
  Q 168.15 38.94 167.51 37.30
  L 164.90 30.64
  Q 164.71 30.14 164.17 30.09
  L 160.21 29.72
  Q 159.21 28.33 158.55 26.05
  Q 158.41 25.57 158.02 25.25
  C 154.80 22.59 151.08 24.82 150.63 28.72
  Q 150.20 32.37 153.43 34.62
  Z
  M 173.44 65.56
  L 172.25 65.98
  Q 170.83 66.47 171.14 65.00
  Q 171.24 64.55 170.95 64.17
  Q 170.34 63.37 170.22 64.36
  Q 170.12 65.20 170.11 66.01
  A 0.68 0.68 0.0 0 0 170.73 66.70
  Q 173.49 66.96 176.24 66.31
  Q 176.96 66.13 176.32 65.76
  Q 176.19 65.69 176.24 65.49
  Q 176.39 64.97 176.91 65.08
  Q 177.77 65.26 177.93 66.11
  Q 178.05 66.78 177.72 67.31
  Q 176.87 68.71 177.05 70.44
  A 0.44 0.43 88.3 0 1 176.60 70.92
  Q 176.23 70.90 175.99 70.62
  Q 175.56 70.14 174.91 70.06
  Q 173.24 69.86 172.72 71.43
  Q 172.25 72.84 171.65 71.48
  Q 171.15 70.33 169.82 70.13
  Q 169.19 70.03 168.68 70.39
  Q 167.85 70.97 166.77 71.08
  Q 166.17 71.14 166.58 71.58
  Q 166.70 71.70 166.84 71.77
  Q 167.32 72.02 167.77 71.73
  Q 170.48 70.01 171.49 72.92
  Q 171.87 74.01 172.61 73.12
  L 174.10 71.31
  Q 174.48 70.85 175.03 71.07
  L 176.59 71.71
  A 0.85 0.85 0.0 0 0 177.76 70.84
  Q 177.62 69.40 178.38 68.25
  Q 178.77 67.67 179.40 67.95
  Q 179.97 68.20 180.48 67.88
  Q 180.99 67.55 181.00 66.95
  Q 181.02 65.93 180.56 64.94
  Q 180.28 64.34 180.71 63.84
  L 182.42 61.85
  Q 182.77 61.44 182.41 61.04
  Q 181.47 59.98 180.53 58.84
  Q 180.07 58.29 180.63 57.84
  Q 181.04 57.52 181.01 57.00
  L 180.95 55.72
  Q 180.92 55.04 180.25 54.91
  L 178.55 54.57
  Q 178.11 54.48 178.05 54.04
  L 177.74 51.77
  Q 177.54 50.33 176.32 51.13
  Q 175.79 51.49 175.26 51.81
  Q 174.37 52.36 173.99 51.38
  Q 173.54 50.23 172.84 49.34
  A 0.76 0.76 0.0 0 0 171.51 49.61
  Q 171.23 50.67 170.48 51.43
  Q 170.18 51.74 169.83 51.48
  Q 168.79 50.69 167.42 50.52
  Q 166.73 50.44 166.73 51.13
  L 166.74 53.55
  A 1.06 1.05 8.5 0 1 165.38 54.55
  Q 164.02 54.14 163.39 55.33
  Q 163.05 55.97 163.45 56.58
  Q 164.76 58.54 162.76 60.03
  Q 162.34 60.35 162.23 60.87
  Q 161.91 62.45 163.44 62.89
  Q 164.05 63.07 163.97 63.69
  Q 163.82 64.97 163.08 66.05
  A 1.17 1.17 0.0 0 0 164.15 67.87
  Q 166.23 67.68 166.28 69.55
  Q 166.29 69.93 166.59 70.16
  Q 166.91 70.42 167.18 69.90
  A 0.64 0.64 0.0 0 0 167.20 69.37
  Q 166.52 67.73 167.09 66.44
  Q 167.30 65.98 167.80 66.04
  L 168.22 66.09
  Q 168.86 66.17 168.90 65.53
  Q 168.91 65.23 168.81 64.95
  Q 168.59 64.36 168.07 64.72
  Q 167.45 65.15 167.13 64.50
  Q 166.93 64.09 166.54 64.33
  Q 166.08 64.61 165.94 65.16
  Q 165.84 65.54 166.13 65.81
  Q 166.54 66.20 166.34 66.71
  Q 166.12 67.24 165.56 67.18
  Q 164.74 67.08 164.13 66.71
  Q 163.64 66.42 164.03 66.01
  Q 166.07 63.84 163.53 62.15
  A 0.89 0.89 0.0 0 1 163.54 60.65
  Q 166.08 59.04 164.66 56.50
  Q 164.36 55.96 164.93 55.71
  L 166.06 55.22
  Q 166.51 55.02 166.65 55.49
  C 167.33 57.70 166.87 60.63 166.76 62.94
  A 0.27 0.26 -88.9 0 0 167.02 63.22
  L 167.28 63.23
  A 0.45 0.44 -84.0 0 0 167.73 62.86
  Q 168.21 60.23 168.71 57.92
  Q 169.09 56.14 167.60 55.25
  Q 167.12 54.95 167.32 54.43
  Q 167.69 53.51 167.55 52.60
  Q 167.45 51.92 168.13 51.90
  Q 169.06 51.87 169.72 52.53
  Q 170.03 52.85 170.44 52.66
  Q 171.82 51.98 172.03 50.41
  Q 172.05 50.23 172.21 50.14
  Q 172.34 50.07 172.47 50.11
  Q 172.76 50.22 172.82 50.52
  C 173.01 51.48 173.52 52.84 174.72 52.80
  Q 175.44 52.77 175.97 52.29
  A 0.67 0.67 0.0 0 1 177.08 52.68
  L 177.39 54.70
  A 0.73 0.72 89.0 0 0 178.03 55.32
  Q 179.45 55.47 180.01 56.53
  Q 180.24 56.95 180.00 57.37
  Q 178.94 59.23 180.90 60.60
  Q 181.75 61.20 181.05 61.97
  L 179.61 63.53
  Q 179.28 63.90 179.51 64.33
  Q 179.99 65.26 180.07 66.24
  A 0.76 0.75 -19.8 0 1 179.74 66.93
  L 179.24 67.27
  Q 178.46 67.81 178.57 66.86
  L 178.77 65.20
  Q 178.85 64.56 178.21 64.57
  L 172.39 64.61
  Q 171.74 64.62 172.13 65.14
  Q 172.33 65.41 172.70 65.52
  A 0.35 0.34 -57.3 0 0 173.04 65.44
  Q 173.22 65.28 173.44 65.36
  Q 173.72 65.46 173.44 65.56
  Z
  M 172.9539 59.3095
  A 2.20 0.87 91.2 0 0 173.8698 57.1282
  A 2.20 0.87 91.2 0 0 173.0461 54.9105
  A 2.20 0.87 91.2 0 0 172.1302 57.0918
  A 2.20 0.87 91.2 0 0 172.9539 59.3095
  Z
  M 176.90 55.12
  L 175.82 55.18
  A 0.24 0.24 0.0 0 0 175.60 55.43
  L 175.61 55.65
  A 7.58 0.76 86.9 0 0 176.78 63.18
  L 176.82 63.17
  A 7.58 0.76 86.9 0 0 177.17 55.56
  L 177.15 55.34
  A 0.24 0.24 0.0 0 0 176.90 55.12
  Z
  M 170.77 63.37
  L 171.27 55.23
  A 0.02 0.02 0.0 0 0 171.25 55.21
  L 171.22 55.21
  A 3.94 1.65 -86.5 0 0 169.33 59.04
  L 169.31 59.36
  A 3.94 1.65 -86.5 0 0 170.72 63.39
  L 170.75 63.39
  A 0.02 0.02 0.0 0 0 170.77 63.37
  Z
  M 109.50 77.89
  Q 109.03 78.55 109.78 78.90
  A 0.73 0.73 0.0 0 0 110.82 78.13
  Q 110.44 75.76 110.86 73.34
  Q 110.90 73.10 110.66 73.09
  L 110.35 73.07
  A 0.13 0.13 0.0 0 0 110.21 73.22
  Q 110.56 75.13 109.49 76.27
  Q 109.06 76.73 109.48 77.26
  Q 109.72 77.57 109.50 77.89
  Z
  M 120.77 75.47
  Q 120.06 76.35 120.45 77.29
  Q 120.75 78.01 119.96 77.99
  L 119.24 77.97
  Q 118.51 77.95 118.40 77.23
  L 118.02 74.73
  Q 117.79 73.21 117.08 74.57
  L 116.33 76.02
  Q 116.08 76.51 115.59 76.80
  Q 114.89 77.21 115.12 78.25
  Q 115.51 80.04 115.90 78.25
  Q 116.09 77.35 116.98 76.69
  Q 117.75 76.12 117.44 77.03
  Q 117.33 77.37 117.32 77.74
  A 0.78 0.77 5.2 0 0 117.97 78.51
  L 120.43 78.90
  Q 121.15 79.02 121.34 78.31
  Q 121.74 76.78 121.26 75.45
  Q 121.37 74.43 122.21 73.70
  A 0.26 0.26 0.0 0 0 122.24 73.34
  L 122.06 73.12
  Q 121.90 72.93 121.72 73.10
  Q 120.64 74.12 120.77 75.47
  Z
  M 127.4341 73.7020
  A 0.51 0.51 0.0 0 0 126.9552 73.1626
  L 126.6957 73.1472
  A 0.51 0.51 0.0 0 0 126.1563 73.6261
  L 125.8859 78.1780
  A 0.51 0.51 0.0 0 0 126.3648 78.7174
  L 126.6243 78.7328
  A 0.51 0.51 0.0 0 0 127.1637 78.2539
  L 127.4341 73.7020
  Z
  M 113.62 74.61
  C 114.38 76.42 112.68 76.90 113.10 78.49
  Q 113.35 79.44 113.72 78.53
  L 114.94 75.46
  A 1.08 1.06 44.3 0 0 114.92 74.64
  Q 114.46 73.56 113.74 74.14
  A 0.40 0.40 0.0 0 0 113.62 74.61
  Z
  M 124.2082 74.8416
  A 0.29 0.29 0.0 0 0 123.8794 74.5965
  L 122.9888 74.7264
  A 0.29 0.29 0.0 0 0 122.7437 75.0553
  L 123.2518 78.5384
  A 0.29 0.29 0.0 0 0 123.5806 78.7835
  L 124.4712 78.6536
  A 0.29 0.29 0.0 0 0 124.7163 78.3247
  L 124.2082 74.8416
  Z
  M 136.61 75.11
  Q 137.15 74.76 136.59 74.44
  Q 136.53 74.41 136.47 74.46
  Q 135.79 75.12 134.72 75.18
  Q 133.65 75.23 134.44 75.94
  Q 134.49 75.98 134.56 75.98
  Q 135.35 75.97 135.87 76.54
  Q 136.45 77.18 137.18 77.53
  Q 137.99 77.91 137.61 77.10
  Q 137.25 76.32 136.59 75.82
  A 0.44 0.44 0.0 0 1 136.61 75.11
  Z
  M 139.05 76.10
  Q 139.21 76.14 139.37 76.12
  Q 139.86 76.08 139.83 75.59
  L 139.80 74.96
  Q 139.76 74.41 139.25 74.61
  Q 138.24 75.01 137.95 76.05
  A 0.47 0.47 0.0 0 0 138.52 76.63
  Q 138.81 76.55 138.83 76.26
  Q 138.85 76.06 139.05 76.10
  Z
  M 137.07 78.63
  L 133.67 77.24
  Q 133.12 77.05 133.24 75.95
  Q 133.33 75.14 132.52 75.22
  Q 131.73 75.30 131.10 75.75
  Q 130.80 75.97 130.85 76.33
  Q 130.86 76.48 130.91 76.62
  A 0.43 0.42 73.1 0 0 131.42 76.90
  Q 132.59 76.62 133.07 77.24
  L 132.88 77.42
  Q 132.63 77.68 132.93 77.88
  Q 134.62 79.01 136.42 79.02
  Q 136.95 79.50 137.78 79.27
  Q 140.85 78.40 143.08 78.41
  Q 143.63 78.42 143.59 77.87
  Q 143.56 77.48 143.21 76.95
  Q 143.40 76.56 142.83 75.73
  Q 142.87 75.42 142.70 75.20
  Q 142.36 74.77 141.91 75.08
  Q 140.63 75.94 140.28 77.33
  Q 140.16 77.78 139.70 77.86
  L 138.75 78.01
  Q 138.30 78.07 138.07 78.46
  Q 137.62 79.18 137.07 78.63
  Z
  M 130.1108 78.4244
  A 0.99 0.75 7.8 0 0 129.2318 77.5469
  A 0.99 0.75 7.8 0 0 128.1492 78.1556
  A 0.99 0.75 7.8 0 0 129.0282 79.0331
  A 0.99 0.75 7.8 0 0 130.1108 78.4244
  Z
  M 120.08 99.82
  L 120.14 102.19
  A 0.68 0.67 14.7 0 0 120.47 102.75
  L 120.87 102.97
  A 0.44 0.44 0.0 0 0 121.51 102.72
  Q 121.97 101.32 121.77 99.82
  Q 121.66 99.03 122.46 99.01
  L 123.56 98.99
  Q 124.04 98.98 124.28 98.56
  Q 124.43 98.30 124.37 98.01
  Q 124.24 97.47 123.70 97.31
  L 122.51 96.97
  Q 121.98 96.82 121.98 96.26
  L 122.02 83.59
  Q 122.02 81.63 120.98 83.29
  L 111.57 98.30
  A 0.79 0.79 0.0 0 0 112.28 99.51
  L 119.41 99.19
  Q 120.06 99.16 120.08 99.82
  Z
  M 126.7891 109.4272
  A 0.61 0.61 0.0 0 0 126.1759 108.8204
  L 118.6960 108.8596
  A 0.61 0.61 0.0 0 0 118.0892 109.4728
  L 118.0909 109.8128
  A 0.61 0.61 0.0 0 0 118.7041 110.4196
  L 126.1840 110.3804
  A 0.61 0.61 0.0 0 0 126.7908 109.7672
  L 126.7891 109.4272
  Z"
/>
<path fill="#f2e9e7" d="
  M 75.35 59.74
  A 0.54 0.53 0.5 0 0 74.72 60.35
  L 74.77 60.68
  Q 74.90 61.53 75.72 61.76
  L 78.63 62.59
  Q 79.31 62.79 79.29 63.50
  L 79.20 66.43
  Q 79.18 67.08 78.57 67.31
  L 77.65 67.64
  A 0.32 0.30 -78.6 0 0 77.50 67.75
  Q 77.18 68.12 77.35 68.42
  Q 77.51 68.73 77.87 68.80
  Q 79.67 69.14 79.44 71.06
  Q 79.35 71.78 78.96 71.17
  Q 78.11 69.86 76.40 69.83
  A 1.83 1.80 66.1 0 1 75.21 69.36
  C 73.85 68.14 74.56 66.05 76.33 65.71
  Q 77.28 65.53 78.14 65.16
  A 0.63 0.63 0.0 0 0 78.06 63.98
  L 75.39 63.24
  A 1.68 1.68 0.0 0 1 74.20 61.26
  Q 74.73 58.81 74.40 56.45
  C 73.97 53.34 74.52 50.60 74.24 47.54
  C 74.10 45.95 74.96 44.71 76.32 43.96
  A 0.81 0.81 0.0 0 0 76.41 42.59
  Q 75.69 42.08 75.00 42.60
  Q 74.32 43.11 74.32 42.26
  L 74.28 36.32
  Q 74.27 35.40 75.08 35.85
  Q 75.23 35.94 75.41 35.97
  Q 76.06 36.09 76.05 35.43
  L 76.00 33.00
  Q 75.99 32.38 75.37 32.33
  Q 74.12 32.22 74.14 30.90
  Q 74.18 27.45 74.18 24.43
  Q 74.18 22.63 75.61 21.56
  A 2.09 2.07 -43.5 0 1 78.17 21.62
  Q 80.12 23.22 79.69 25.58
  Q 79.56 26.35 79.13 25.69
  Q 78.03 23.99 76.34 23.86
  A 1.03 1.01 15.0 0 0 75.37 24.41
  C 73.52 28.11 75.40 30.91 78.54 32.74
  A 1.75 1.75 0.0 0 1 79.36 33.80
  Q 79.75 35.23 79.42 36.71
  Q 79.31 37.19 78.84 37.36
  L 76.66 38.11
  Q 72.96 39.39 76.77 40.28
  Q 77.81 40.52 78.96 40.54
  Q 79.75 40.55 79.56 41.31
  Q 79.34 42.22 79.43 43.14
  Q 79.50 43.92 79.01 43.31
  Q 78.97 43.27 78.95 43.22
  Q 78.87 42.99 78.65 43.07
  Q 78.00 43.30 77.89 44.20
  Q 77.70 45.77 78.92 45.96
  Q 79.36 46.03 79.40 46.47
  Q 79.50 47.47 79.22 48.42
  Q 79.03 49.06 78.48 48.69
  Q 77.67 48.16 77.30 47.23
  Q 77.00 46.46 76.29 46.88
  Q 75.59 47.30 75.01 47.94
  Q 74.42 48.59 75.21 49.00
  Q 76.97 49.92 78.91 50.09
  Q 79.71 50.16 79.65 50.97
  L 79.54 52.44
  Q 79.50 53.09 78.87 52.89
  L 76.00 51.98
  A 1.10 1.10 0.0 0 0 74.69 53.54
  L 76.59 57.15
  Q 76.92 57.76 77.61 57.72
  Q 78.31 57.69 78.94 57.38
  Q 79.61 57.05 79.75 57.78
  Q 80.00 58.95 79.73 60.04
  A 0.53 0.53 0.0 0 1 79.13 60.43
  L 75.35 59.74
  Z
  M 78.47 35.22
  A 0.41 0.40 -28.0 0 0 78.65 34.64
  Q 78.27 34.03 77.65 33.85
  Q 77.10 33.69 77.12 34.25
  L 77.15 35.08
  Q 77.17 35.80 77.83 35.51
  L 78.47 35.22
  Z"
/>
<path fill="#bfa8a9" d="
  M 160.21 29.72
  Q 159.24 30.81 159.85 32.36
  Q 157.98 33.33 156.85 35.04
  Q 154.65 35.08 153.43 34.62
  Q 150.20 32.37 150.63 28.72
  C 151.08 24.82 154.80 22.59 158.02 25.25
  Q 158.41 25.57 158.55 26.05
  Q 159.21 28.33 160.21 29.72
  Z"
/>
<path fill="#fae0e6" d="
  M 153.43 34.62
  Q 154.65 35.08 156.85 35.04
  L 155.74 43.00
  Q 155.59 44.09 156.69 44.03
  L 157.33 44.00
  Q 158.53 43.93 158.66 42.75
  L 159.85 32.36
  Q 159.24 30.81 160.21 29.72
  L 164.17 30.09
  Q 164.71 30.14 164.90 30.64
  L 167.51 37.30
  Q 168.15 38.94 168.48 37.21
  Q 168.76 35.76 168.92 34.16
  C 169.04 32.90 168.22 32.17 167.70 31.14
  A 0.62 0.61 -12.2 0 1 168.28 30.25
  L 173.22 30.44
  Q 173.40 30.49 173.56 30.54
  Q 173.88 30.63 173.80 30.96
  Q 173.26 33.14 171.64 32.60
  L 169.75 45.88
  A 1.28 1.28 0.0 0 1 168.76 46.94
  Q 166.89 47.35 166.23 45.69
  Q 164.41 41.13 162.66 35.92
  Q 162.16 34.44 161.88 35.98
  Q 161.30 39.23 160.97 42.54
  C 160.84 43.85 161.49 44.80 161.99 45.95
  A 0.72 0.72 0.0 0 1 161.29 46.95
  C 159.14 46.82 157.03 46.35 154.91 46.65
  Q 152.63 46.98 151.90 44.62
  Q 151.70 43.96 151.39 44.57
  Q 151.05 45.24 151.17 46.09
  A 0.42 0.42 0.0 0 1 150.74 46.56
  L 136.18 46.16
  A 1.47 1.45 -11.6 0 1 134.91 45.34
  L 132.03 39.41
  A 0.82 0.81 36.7 0 0 130.49 39.63
  L 129.95 42.91
  Q 129.84 43.62 130.52 43.85
  Q 131.76 44.27 131.57 45.65
  Q 131.49 46.25 130.88 46.24
  L 118.36 45.96
  Q 117.39 45.94 117.89 45.11
  Q 118.34 44.35 119.22 43.96
  Q 120.03 43.61 120.03 42.73
  L 120.02 41.08
  Q 120.02 40.50 119.45 40.55
  Q 117.78 40.70 116.20 40.31
  Q 115.67 40.18 115.29 40.55
  Q 114.17 41.61 114.00 43.10
  Q 113.94 43.67 114.47 43.88
  Q 115.39 44.24 115.40 45.21
  A 0.59 0.59 0.0 0 1 114.83 45.80
  Q 112.20 45.90 109.83 45.67
  C 106.25 45.31 104.12 47.62 100.40 45.44
  C 97.05 43.48 96.26 37.88 97.27 34.81
  Q 100.04 26.40 108.91 28.89
  Q 109.45 29.04 109.97 28.83
  L 110.67 28.54
  Q 111.23 28.31 111.44 28.88
  Q 112.53 31.81 112.61 35.48
  Q 112.62 36.10 112.02 36.20
  Q 110.97 36.38 110.69 35.32
  C 109.82 32.08 106.42 29.08 103.58 32.80
  Q 100.45 36.92 102.02 41.35
  Q 103.57 45.71 107.64 43.72
  C 109.76 42.69 112.26 40.49 113.23 38.24
  Q 115.17 33.74 117.77 29.34
  Q 118.03 28.88 118.56 28.91
  L 120.59 28.99
  Q 121.28 29.02 121.44 29.70
  Q 122.89 35.98 124.33 42.66
  Q 124.48 43.33 125.08 43.65
  A 0.48 0.48 0.0 0 0 125.78 43.29
  C 126.29 39.88 128.04 33.17 126.18 30.42
  Q 125.11 28.85 127.01 28.92
  L 135.42 29.24
  Q 137.39 29.32 138.70 30.78
  C 141.04 33.39 140.18 36.92 136.86 38.13
  Q 136.24 38.36 136.48 38.97
  Q 137.42 41.33 138.62 43.36
  Q 139.91 45.53 140.23 43.02
  L 141.49 33.08
  Q 141.56 32.53 141.24 32.08
  L 140.17 30.57
  A 0.80 0.79 72.5 0 1 140.82 29.31
  L 146.92 29.38
  Q 147.35 29.38 147.63 29.71
  Q 148.12 30.26 147.94 31.02
  Q 147.82 31.50 147.36 31.69
  Q 145.73 32.38 145.54 34.24
  Q 145.05 39.00 144.44 43.76
  A 0.47 0.47 0.0 0 0 144.92 44.29
  C 148.61 44.21 149.72 41.39 152.44 39.66
  Q 152.92 39.34 152.89 38.77
  Q 152.80 37.36 151.73 36.22
  Q 151.35 35.81 151.52 35.37
  Q 151.69 34.89 152.20 34.91
  Q 152.81 34.93 153.43 34.62
  Z
  M 131.05 34.91
  A 1.11 1.11 0.0 0 0 132.43 36.23
  L 134.44 35.68
  A 1.11 1.11 0.0 0 0 135.20 34.92
  L 135.78 32.94
  A 1.11 1.11 0.0 0 0 134.88 31.53
  L 132.97 31.24
  A 1.11 1.11 0.0 0 0 131.72 32.08
  L 131.05 34.91
  Z
  M 118.31 33.92
  L 116.69 37.07
  Q 116.36 37.71 117.07 37.75
  L 118.42 37.81
  Q 119.18 37.85 119.11 37.09
  L 118.84 34.02
  Q 118.75 33.06 118.31 33.92
  Z"
/>
<ellipse fill="#f2e9e7" cx="0.00" cy="0.00" transform="translate(78.73,30.18) rotate(-31.9)" rx="1.05" ry="0.80"/>
<path fill="#fae0e6" d="
  M 177.18 32.71
  Q 175.72 33.70 174.51 29.86
  Q 174.50 29.74 174.71 29.52
  A 0.98 0.96 23.2 0 1 175.41 29.25
  Q 177.90 29.34 177.18 32.71
  Z"
/>
<path fill="#ed606b" d="
  M 174.51 29.86
  Q 175.72 33.70 177.18 32.71
  Q 176.30 35.21 171.64 32.60
  Q 173.26 33.14 173.80 30.96
  Q 173.88 30.63 173.56 30.54
  Q 173.40 30.49 173.22 30.44
  L 174.51 29.86
  Z"
/>
<path fill="#eb0a19" d="
  M 131.05 34.91
  L 131.72 32.08
  A 1.11 1.11 0.0 0 1 132.97 31.24
  L 134.88 31.53
  A 1.11 1.11 0.0 0 1 135.78 32.94
  L 135.20 34.92
  A 1.11 1.11 0.0 0 1 134.44 35.68
  L 132.43 36.23
  A 1.11 1.11 0.0 0 1 131.05 34.91
  Z"
/>
<path fill="#eb0a19" d="
  M 159.85 32.36
  L 158.66 42.75
  Q 158.53 43.93 157.33 44.00
  L 156.69 44.03
  Q 155.59 44.09 155.74 43.00
  L 156.85 35.04
  Q 157.98 33.33 159.85 32.36
  Z"
/>
<path fill="#eb0a19" d="
  M 116.69 37.07
  L 118.31 33.92
  Q 118.75 33.06 118.84 34.02
  L 119.11 37.09
  Q 119.18 37.85 118.42 37.81
  L 117.07 37.75
  Q 116.36 37.71 116.69 37.07
  Z"
/>
<path fill="#ad0202" d="
  M 78.47 35.22
  L 77.83 35.51
  Q 77.17 35.80 77.15 35.08
  L 77.12 34.25
  Q 77.10 33.69 77.65 33.85
  Q 78.27 34.03 78.65 34.64
  A 0.41 0.40 -28.0 0 1 78.47 35.22
  Z"
/>
<path fill="#f2e9e7" d="
  M 173.44 65.36
  Q 173.22 65.28 173.04 65.44
  A 0.35 0.34 -57.3 0 1 172.70 65.52
  Q 172.33 65.41 172.13 65.14
  Q 171.74 64.62 172.39 64.61
  L 178.21 64.57
  Q 178.85 64.56 178.77 65.20
  L 178.57 66.86
  Q 178.46 67.81 179.24 67.27
  L 179.74 66.93
  A 0.76 0.75 -19.8 0 0 180.07 66.24
  Q 179.99 65.26 179.51 64.33
  Q 179.28 63.90 179.61 63.53
  L 181.05 61.97
  Q 181.75 61.20 180.90 60.60
  Q 178.94 59.23 180.00 57.37
  Q 180.24 56.95 180.01 56.53
  Q 179.45 55.47 178.03 55.32
  A 0.73 0.72 89.0 0 1 177.39 54.70
  L 177.08 52.68
  A 0.67 0.67 0.0 0 0 175.97 52.29
  Q 175.44 52.77 174.72 52.80
  C 173.52 52.84 173.01 51.48 172.82 50.52
  Q 172.76 50.22 172.47 50.11
  Q 172.34 50.07 172.21 50.14
  Q 172.05 50.23 172.03 50.41
  Q 171.82 51.98 170.44 52.66
  Q 170.03 52.85 169.72 52.53
  Q 169.06 51.87 168.13 51.90
  Q 167.45 51.92 167.55 52.60
  Q 167.69 53.51 167.32 54.43
  Q 167.12 54.95 167.60 55.25
  Q 169.09 56.14 168.71 57.92
  Q 168.21 60.23 167.73 62.86
  A 0.45 0.44 -84.0 0 1 167.28 63.23
  L 167.02 63.22
  A 0.27 0.26 -88.9 0 1 166.76 62.94
  C 166.87 60.63 167.33 57.70 166.65 55.49
  Q 166.51 55.02 166.06 55.22
  L 164.93 55.71
  Q 164.36 55.96 164.66 56.50
  Q 166.08 59.04 163.54 60.65
  A 0.89 0.89 0.0 0 0 163.53 62.15
  Q 166.07 63.84 164.03 66.01
  Q 163.64 66.42 164.13 66.71
  Q 164.74 67.08 165.56 67.18
  Q 166.12 67.24 166.34 66.71
  Q 166.54 66.20 166.13 65.81
  Q 165.84 65.54 165.94 65.16
  Q 166.08 64.61 166.54 64.33
  Q 166.93 64.09 167.13 64.50
  Q 167.45 65.15 168.07 64.72
  Q 168.59 64.36 168.81 64.95
  Q 168.91 65.23 168.90 65.53
  Q 168.86 66.17 168.22 66.09
  L 167.80 66.04
  Q 167.30 65.98 167.09 66.44
  Q 166.52 67.73 167.20 69.37
  A 0.64 0.64 0.0 0 1 167.18 69.90
  Q 166.91 70.42 166.59 70.16
  Q 166.29 69.93 166.28 69.55
  Q 166.23 67.68 164.15 67.87
  A 1.17 1.17 0.0 0 1 163.08 66.05
  Q 163.82 64.97 163.97 63.69
  Q 164.05 63.07 163.44 62.89
  Q 161.91 62.45 162.23 60.87
  Q 162.34 60.35 162.76 60.03
  Q 164.76 58.54 163.45 56.58
  Q 163.05 55.97 163.39 55.33
  Q 164.02 54.14 165.38 54.55
  A 1.06 1.05 8.5 0 0 166.74 53.55
  L 166.73 51.13
  Q 166.73 50.44 167.42 50.52
  Q 168.79 50.69 169.83 51.48
  Q 170.18 51.74 170.48 51.43
  Q 171.23 50.67 171.51 49.61
  A 0.76 0.76 0.0 0 1 172.84 49.34
  Q 173.54 50.23 173.99 51.38
  Q 174.37 52.36 175.26 51.81
  Q 175.79 51.49 176.32 51.13
  Q 177.54 50.33 177.74 51.77
  L 178.05 54.04
  Q 178.11 54.48 178.55 54.57
  L 180.25 54.91
  Q 180.92 55.04 180.95 55.72
  L 181.01 57.00
  Q 181.04 57.52 180.63 57.84
  Q 180.07 58.29 180.53 58.84
  Q 181.47 59.98 182.41 61.04
  Q 182.77 61.44 182.42 61.85
  L 180.71 63.84
  Q 180.28 64.34 180.56 64.94
  Q 181.02 65.93 181.00 66.95
  Q 180.99 67.55 180.48 67.88
  Q 179.97 68.20 179.40 67.95
  Q 178.77 67.67 178.38 68.25
  Q 177.62 69.40 177.76 70.84
  A 0.85 0.85 0.0 0 1 176.59 71.71
  L 175.03 71.07
  Q 174.48 70.85 174.10 71.31
  L 172.61 73.12
  Q 171.87 74.01 171.49 72.92
  Q 170.48 70.01 167.77 71.73
  Q 167.32 72.02 166.84 71.77
  Q 166.70 71.70 166.58 71.58
  Q 166.17 71.14 166.77 71.08
  Q 167.85 70.97 168.68 70.39
  Q 169.19 70.03 169.82 70.13
  Q 171.15 70.33 171.65 71.48
  Q 172.25 72.84 172.72 71.43
  Q 173.24 69.86 174.91 70.06
  Q 175.56 70.14 175.99 70.62
  Q 176.23 70.90 176.60 70.92
  A 0.44 0.43 88.3 0 0 177.05 70.44
  Q 176.87 68.71 177.72 67.31
  Q 178.05 66.78 177.93 66.11
  Q 177.77 65.26 176.91 65.08
  Q 176.39 64.97 176.24 65.49
  Q 176.19 65.69 176.32 65.76
  Q 176.96 66.13 176.24 66.31
  Q 173.49 66.96 170.73 66.70
  A 0.68 0.68 0.0 0 1 170.11 66.01
  Q 170.12 65.20 170.22 64.36
  Q 170.34 63.37 170.95 64.17
  Q 171.24 64.55 171.14 65.00
  Q 170.83 66.47 172.25 65.98
  L 173.44 65.56
  Q 173.72 65.46 173.44 65.36
  Z"
/>
<ellipse fill="#fae0e6" cx="0.00" cy="0.00" transform="translate(173.00,57.11) rotate(91.2)" rx="2.20" ry="0.87"/>
<path fill="#f2e9e7" d="
  M 176.90 55.12
  A 0.24 0.24 0.0 0 1 177.15 55.34
  L 177.17 55.56
  A 7.58 0.76 86.9 0 1 176.82 63.17
  L 176.78 63.18
  A 7.58 0.76 86.9 0 1 175.61 55.65
  L 175.60 55.43
  A 0.24 0.24 0.0 0 1 175.82 55.18
  L 176.90 55.12
  Z"
/>
<path fill="#f2e9e7" d="
  M 170.77 63.37
  A 0.02 0.02 0.0 0 1 170.75 63.39
  L 170.72 63.39
  A 3.94 1.65 -86.5 0 1 169.31 59.36
  L 169.33 59.04
  A 3.94 1.65 -86.5 0 1 171.22 55.21
  L 171.25 55.21
  A 0.02 0.02 0.0 0 1 171.27 55.23
  L 170.77 63.37
  Z"
/>
<path fill="#ed606b" d="
  M 189.61 56.34
  L 189.54 63.98
  Q 186.37 67.67 185.14 72.34
  Q 185.10 72.49 185.04 72.62
  Q 184.96 72.78 184.79 72.83
  Q 184.25 73.00 184.35 73.56
  Q 184.54 74.64 183.51 75.15
  Q 183.09 75.35 183.12 75.82
  Q 183.14 76.20 182.97 76.55
  Q 180.60 81.49 178.31 86.25
  C 177.81 87.30 176.88 88.06 176.53 89.14
  Q 176.15 90.29 175.52 91.31
  Q 174.69 92.65 174.07 94.34
  Q 173.04 97.11 171.20 99.96
  Q 170.88 100.46 170.88 101.07
  A 1.48 1.38 -29.6 0 1 170.63 101.87
  Q 168.99 104.35 167.30 107.25
  Q 166.06 109.36 165.39 111.84
  Q 165.10 112.91 164.43 113.75
  Q 163.57 114.85 163.24 116.16
  Q 161.66 122.33 157.98 126.93
  Q 157.65 127.34 157.64 127.86
  L 157.60 130.81
  Q 157.59 131.32 157.23 131.67
  Q 154.03 134.70 153.70 138.26
  Q 153.60 139.37 154.34 140.20
  Q 154.68 140.60 154.68 141.12
  Q 154.68 144.64 153.07 147.76
  A 1.75 1.71 57.0 0 0 152.88 148.70
  Q 152.97 149.77 152.39 150.61
  A 1.87 1.77 66.1 0 0 152.07 151.51
  Q 151.90 153.75 151.37 155.75
  Q 150.92 157.46 151.94 162.52
  Q 150.96 160.61 149.78 159.54
  A 1.78 1.76 -40.9 0 0 147.59 159.39
  L 145.32 160.94
  A 2.76 2.75 60.3 0 0 144.38 164.39
  L 149.32 174.92
  Q 149.58 175.46 150.07 175.82
  Q 151.67 177.01 152.02 178.48
  Q 152.33 179.81 151.14 179.14
  C 148.22 177.47 148.47 175.05 147.05 172.52
  Q 145.68 170.06 144.44 167.35
  C 143.97 166.31 143.09 165.87 142.98 164.67
  A 1.72 1.71 -8.9 0 0 140.90 163.16
  Q 138.82 163.61 137.12 164.67
  Q 135.66 165.57 133.97 165.65
  Q 132.00 165.74 130.17 165.90
  Q 129.64 165.94 129.32 166.36
  Q 128.33 167.60 126.85 168.41
  A 1.11 1.08 36.0 0 1 126.08 168.52
  Q 124.51 168.18 123.09 168.46
  Q 122.70 168.54 122.47 168.87
  Q 122.13 169.35 121.58 169.35
  Q 121.09 169.35 120.78 169.73
  Q 119.60 171.22 118.02 172.20
  Q 116.82 172.95 115.37 173.05
  Q 113.71 173.17 112.72 174.32
  Q 112.40 174.69 112.43 175.18
  Q 112.52 176.73 112.14 177.25
  Q 110.05 180.17 106.95 181.55
  C 105.80 182.06 105.10 182.73 104.07 183.37
  Q 103.63 183.65 103.48 184.14
  L 102.95 185.86
  L 89.02 187.48
  Q 89.17 186.41 89.97 185.79
  Q 91.13 184.90 91.33 184.61
  Q 91.93 183.72 92.30 182.72
  Q 92.48 182.24 92.88 181.90
  L 94.38 180.63
  Q 96.26 179.05 95.58 181.36
  Q 95.12 182.93 96.44 184.85
  A 0.64 0.64 0.0 0 0 97.19 185.10
  Q 97.43 185.01 97.62 184.83
  Q 97.92 184.54 97.90 184.13
  Q 97.89 183.50 98.01 182.87
  Q 98.50 180.46 97.24 179.83
  A 1.03 1.03 0.0 0 1 97.05 178.11
  Q 99.46 176.15 101.65 174.40
  Q 102.32 173.86 102.55 172.86
  Q 102.68 172.30 103.10 171.92
  Q 104.49 170.67 104.81 168.85
  Q 105.48 165.00 108.85 163.69
  Q 110.14 163.19 111.24 162.09
  Q 114.11 159.21 116.18 156.25
  A 1.70 1.61 4.6 0 1 116.90 155.67
  Q 118.10 155.15 118.98 154.22
  Q 119.84 153.30 120.89 152.69
  Q 126.55 149.37 131.46 144.43
  Q 132.92 142.96 134.24 142.04
  Q 135.75 140.98 137.28 139.95
  C 138.19 139.34 139.63 139.17 140.56 139.40
  Q 142.31 139.85 143.51 138.49
  Q 145.41 136.36 146.98 134.18
  Q 147.98 132.81 148.48 130.33
  Q 148.86 128.50 149.36 126.72
  Q 149.51 126.22 149.90 125.87
  Q 151.35 124.59 152.82 123.34
  Q 153.55 122.71 153.96 121.92
  C 154.45 120.98 154.93 120.29 155.00 119.19
  Q 155.15 116.91 157.18 115.93
  A 1.72 1.72 0.0 0 0 158.08 113.88
  Q 157.66 112.49 158.98 112.11
  Q 159.45 111.97 159.62 111.51
  Q 161.75 105.95 164.20 100.70
  Q 164.83 99.33 166.57 97.04
  Q 167.65 95.61 168.47 93.25
  Q 169.55 90.14 171.29 87.34
  C 172.29 85.73 173.31 85.12 174.68 84.00
  Q 175.54 83.31 176.09 82.34
  Q 177.28 80.27 178.71 78.24
  Q 179.02 77.80 179.04 77.27
  C 179.11 75.78 179.18 74.61 179.85 73.18
  Q 180.61 71.56 181.09 69.88
  L 189.61 56.34
  Z"
/>
<path fill="#e3828c" d="
  M 189.54 63.98
  L 189.62 69.44
  L 189.25 74.05
  A 1.21 1.15 73.0 0 1 188.85 74.85
  Q 187.74 75.79 187.50 77.28
  Q 186.86 81.28 185.34 85.19
  Q 184.74 86.74 184.82 88.44
  C 184.96 91.46 183.03 92.88 182.15 95.45
  Q 180.80 99.41 180.17 103.72
  Q 179.55 107.95 176.45 112.07
  Q 176.05 112.60 176.09 113.26
  Q 176.33 117.50 176.53 121.76
  C 176.65 124.21 178.40 126.05 180.03 127.67
  Q 180.29 127.93 180.66 127.89
  Q 180.80 127.88 180.93 127.87
  Q 181.51 127.80 181.93 128.20
  Q 182.90 129.12 184.36 129.14
  Q 184.92 129.15 185.17 129.66
  Q 185.44 130.19 185.98 130.46
  Q 186.41 130.67 186.53 131.14
  Q 186.70 131.76 186.93 132.36
  Q 187.12 132.83 187.64 133.44
  Q 189.45 135.54 189.34 138.73
  L 189.48 175.80
  Q 189.49 177.47 187.82 177.62
  L 174.88 178.74
  Q 171.11 176.62 163.76 177.37
  Q 159.97 177.76 156.52 174.35
  C 155.33 173.17 153.95 169.00 153.54 167.25
  Q 152.97 164.78 151.94 162.52
  Q 150.92 157.46 151.37 155.75
  Q 151.90 153.75 152.07 151.51
  A 1.87 1.77 66.1 0 1 152.39 150.61
  Q 152.97 149.77 152.88 148.70
  A 1.75 1.71 57.0 0 1 153.07 147.76
  Q 154.68 144.64 154.68 141.12
  Q 154.68 140.60 154.34 140.20
  Q 153.60 139.37 153.70 138.26
  Q 154.03 134.70 157.23 131.67
  Q 157.59 131.32 157.60 130.81
  L 157.64 127.86
  Q 157.65 127.34 157.98 126.93
  Q 161.66 122.33 163.24 116.16
  Q 163.57 114.85 164.43 113.75
  Q 165.10 112.91 165.39 111.84
  Q 166.06 109.36 167.30 107.25
  Q 168.99 104.35 170.63 101.87
  A 1.48 1.38 -29.6 0 0 170.88 101.07
  Q 170.88 100.46 171.20 99.96
  Q 173.04 97.11 174.07 94.34
  Q 174.69 92.65 175.52 91.31
  Q 176.15 90.29 176.53 89.14
  C 176.88 88.06 177.81 87.30 178.31 86.25
  Q 180.60 81.49 182.97 76.55
  Q 183.14 76.20 183.12 75.82
  Q 183.09 75.35 183.51 75.15
  Q 184.54 74.64 184.35 73.56
  Q 184.25 73.00 184.79 72.83
  Q 184.96 72.78 185.04 72.62
  Q 185.10 72.49 185.14 72.34
  Q 186.37 67.67 189.54 63.98
  Z"
/>
<path fill="#d73f4b" d="
  M 189.62 69.44
  L 189.34 138.73
  Q 189.45 135.54 187.64 133.44
  Q 187.12 132.83 186.93 132.36
  Q 186.70 131.76 186.53 131.14
  Q 186.41 130.67 185.98 130.46
  Q 185.44 130.19 185.17 129.66
  Q 184.92 129.15 184.36 129.14
  Q 182.90 129.12 181.93 128.20
  Q 181.51 127.80 180.93 127.87
  Q 180.80 127.88 180.66 127.89
  Q 180.29 127.93 180.03 127.67
  C 178.40 126.05 176.65 124.21 176.53 121.76
  Q 176.33 117.50 176.09 113.26
  Q 176.05 112.60 176.45 112.07
  Q 179.55 107.95 180.17 103.72
  Q 180.80 99.41 182.15 95.45
  C 183.03 92.88 184.96 91.46 184.82 88.44
  Q 184.74 86.74 185.34 85.19
  Q 186.86 81.28 187.50 77.28
  Q 187.74 75.79 188.85 74.85
  A 1.21 1.15 73.0 0 0 189.25 74.05
  L 189.62 69.44
  Z"
/>
<path fill="#fae0e6" d="
  M 109.48 77.26
  Q 109.06 76.73 109.49 76.27
  Q 110.56 75.13 110.21 73.22
  A 0.13 0.13 0.0 0 1 110.35 73.07
  L 110.66 73.09
  Q 110.90 73.10 110.86 73.34
  Q 110.44 75.76 110.82 78.13
  A 0.73 0.73 0.0 0 1 109.78 78.90
  Q 109.03 78.55 109.50 77.89
  Q 109.72 77.57 109.48 77.26
  Z"
/>
<path fill="#e3828c" d="
  M 121.26 75.45
  Q 121.00 75.31 120.77 75.47
  Q 120.64 74.12 121.72 73.10
  Q 121.90 72.93 122.06 73.12
  L 122.24 73.34
  A 0.26 0.26 0.0 0 1 122.21 73.70
  Q 121.37 74.43 121.26 75.45
  Z"
/>
<rect fill="#fae0e6" x="-0.64" y="-2.79" transform="translate(126.66,75.94) rotate(3.4)" width="1.28" height="5.58" rx="0.51"/>
<path fill="#fae0e6" d="
  M 97.15 79.04
  L 97.04 74.44
  Q 97.62 73.32 98.72 73.71
  Q 99.50 73.98 99.85 74.69
  Q 100.68 76.35 101.32 78.15
  Q 101.48 78.62 101.90 78.36
  L 102.19 78.19
  Q 102.49 78.01 102.37 77.68
  L 101.78 76.01
  Q 101.50 75.22 102.24 75.60
  Q 103.52 76.26 104.75 75.65
  Q 105.26 75.40 105.73 75.71
  Q 106.55 76.26 107.60 76.15
  Q 108.39 76.07 107.94 76.73
  Q 107.47 77.40 107.62 78.11
  Q 107.77 78.80 107.08 78.64
  Q 106.30 78.45 105.69 78.94
  Q 105.08 79.44 104.29 79.38
  L 101.31 79.14
  A 1.23 1.22 82.8 0 1 100.24 78.31
  L 98.97 74.65
  A 0.47 0.47 0.0 0 0 98.12 74.55
  Q 97.58 75.41 98.43 75.92
  A 0.51 0.51 0.0 0 1 98.47 76.76
  Q 97.71 77.36 98.02 78.23
  Q 98.23 78.83 97.60 78.94
  Q 97.39 78.98 97.15 79.04
  Z
  M 104.78 78.15
  L 105.47 78.26
  Q 106.15 78.38 106.19 77.69
  Q 106.23 76.99 105.95 76.38
  A 0.46 0.45 46.7 0 0 105.13 76.35
  Q 104.56 77.46 103.68 76.54
  Q 103.23 76.08 103.00 76.68
  Q 102.82 77.15 102.81 77.71
  Q 102.80 78.16 103.15 78.46
  Q 103.55 78.82 103.95 78.42
  A 0.96 0.94 -62.4 0 1 104.78 78.15
  Z"
/>
<path fill="#fae0e6" d="
  M 113.10 78.49
  C 112.68 76.90 114.38 76.42 113.62 74.61
  A 0.40 0.40 0.0 0 1 113.74 74.14
  Q 114.46 73.56 114.92 74.64
  A 1.08 1.06 44.3 0 1 114.94 75.46
  L 113.72 78.53
  Q 113.35 79.44 113.10 78.49
  Z"
/>
<path fill="#fae0e6" d="
  M 120.77 75.47
  Q 121.00 75.31 121.26 75.45
  Q 121.74 76.78 121.34 78.31
  Q 121.15 79.02 120.43 78.90
  L 117.97 78.51
  A 0.78 0.77 5.2 0 1 117.32 77.74
  Q 117.33 77.37 117.44 77.03
  Q 117.75 76.12 116.98 76.69
  Q 116.09 77.35 115.90 78.25
  Q 115.51 80.04 115.12 78.25
  Q 114.89 77.21 115.59 76.80
  Q 116.08 76.51 116.33 76.02
  L 117.08 74.57
  Q 117.79 73.21 118.02 74.73
  L 118.40 77.23
  Q 118.51 77.95 119.24 77.97
  L 119.96 77.99
  Q 120.75 78.01 120.45 77.29
  Q 120.06 76.35 120.77 75.47
  Z"
/>
<rect fill="#fae0e6" x="-0.74" y="-2.05" transform="translate(123.73,76.69) rotate(-8.3)" width="1.48" height="4.10" rx="0.29"/>
<path fill="#e3828c" d="
  M 136.59 75.82
  Q 137.25 76.32 137.61 77.10
  Q 137.99 77.91 137.18 77.53
  Q 136.45 77.18 135.87 76.54
  Q 135.35 75.97 134.56 75.98
  Q 134.49 75.98 134.44 75.94
  Q 133.65 75.23 134.72 75.18
  Q 135.79 75.12 136.47 74.46
  Q 136.53 74.41 136.59 74.44
  Q 137.15 74.76 136.61 75.11
  A 0.44 0.44 0.0 0 0 136.59 75.82
  Z"
/>
<path fill="#e3828c" d="
  M 138.83 76.26
  Q 138.81 76.55 138.52 76.63
  A 0.47 0.47 0.0 0 1 137.95 76.05
  Q 138.24 75.01 139.25 74.61
  Q 139.76 74.41 139.80 74.96
  L 139.83 75.59
  Q 139.86 76.08 139.37 76.12
  Q 139.21 76.14 139.05 76.10
  Q 138.85 76.06 138.83 76.26
  Z"
/>
<path fill="#e3828c" d="
  M 142.83 75.73
  L 141.67 77.26
  Q 141.34 77.70 141.89 77.70
  Q 142.66 77.69 143.21 76.95
  Q 143.56 77.48 143.59 77.87
  Q 143.63 78.42 143.08 78.41
  Q 140.85 78.40 137.78 79.27
  Q 136.95 79.50 136.42 79.02
  Q 136.87 78.94 137.07 78.63
  Q 137.62 79.18 138.07 78.46
  Q 138.30 78.07 138.75 78.01
  L 139.70 77.86
  Q 140.16 77.78 140.28 77.33
  Q 140.63 75.94 141.91 75.08
  Q 142.36 74.77 142.70 75.20
  Q 142.87 75.42 142.83 75.73
  Z"
/>
<path fill="#e3828c" d="
  M 133.67 77.24
  Q 133.53 77.35 133.07 77.24
  Q 132.59 76.62 131.42 76.90
  A 0.43 0.42 73.1 0 1 130.91 76.62
  Q 130.86 76.48 130.85 76.33
  Q 130.80 75.97 131.10 75.75
  Q 131.73 75.30 132.52 75.22
  Q 133.33 75.14 133.24 75.95
  Q 133.12 77.05 133.67 77.24
  Z"
/>
<path fill="#ed606b" d="
  M 142.83 75.73
  Q 143.40 76.56 143.21 76.95
  Q 142.66 77.69 141.89 77.70
  Q 141.34 77.70 141.67 77.26
  L 142.83 75.73
  Z"
/>
<path fill="#eb0a19" d="
  M 103.95 78.42
  Q 103.55 78.82 103.15 78.46
  Q 102.80 78.16 102.81 77.71
  Q 102.82 77.15 103.00 76.68
  Q 103.23 76.08 103.68 76.54
  Q 104.56 77.46 105.13 76.35
  A 0.46 0.45 46.7 0 1 105.95 76.38
  Q 106.23 76.99 106.19 77.69
  Q 106.15 78.38 105.47 78.26
  L 104.78 78.15
  A 0.96 0.94 -62.4 0 0 103.95 78.42
  Z"
/>
<path fill="#fae0e6" d="
  M 133.07 77.24
  Q 133.53 77.35 133.67 77.24
  L 137.07 78.63
  Q 136.87 78.94 136.42 79.02
  Q 134.62 79.01 132.93 77.88
  Q 132.63 77.68 132.88 77.42
  L 133.07 77.24
  Z"
/>
<ellipse fill="#f2e9e7" cx="0.00" cy="0.00" transform="translate(129.13,78.29) rotate(7.8)" rx="0.99" ry="0.75"/>
<path fill="#f2e9e7" d="
  M 97.82 103.89
  Q 96.62 104.01 97.44 101.66
  L 103.90 83.68
  Q 104.60 81.71 105.29 83.68
  L 111.72 102.19
  Q 112.00 102.99 111.16 103.03
  L 110.85 103.04
  Q 109.82 103.08 109.49 102.10
  L 107.91 97.34
  Q 107.71 96.74 107.08 96.78
  L 101.89 97.07
  Q 101.34 97.10 101.08 97.59
  L 97.82 103.89
  Z
  M 107.09 94.66
  Q 105.71 91.50 105.08 88.76
  Q 104.62 86.74 104.07 88.74
  Q 103.32 91.44 101.98 94.35
  Q 101.62 95.14 102.49 95.11
  L 106.93 94.92
  A 0.19 0.18 77.6 0 0 107.09 94.66
  Z"
/>
<path fill="#f2e9e7" d="
  M 119.41 99.19
  L 112.28 99.51
  A 0.79 0.79 0.0 0 1 111.57 98.30
  L 120.98 83.29
  Q 122.02 81.63 122.02 83.59
  L 121.98 96.26
  Q 121.98 96.82 122.51 96.97
  L 123.70 97.31
  Q 124.24 97.47 124.37 98.01
  Q 124.43 98.30 124.28 98.56
  Q 124.04 98.98 123.56 98.99
  L 122.46 99.01
  Q 121.66 99.03 121.77 99.82
  Q 121.97 101.32 121.51 102.72
  A 0.44 0.44 0.0 0 1 120.87 102.97
  L 120.47 102.75
  A 0.68 0.67 14.7 0 1 120.14 102.19
  L 120.08 99.82
  Q 120.06 99.16 119.41 99.19
  Z
  M 114.57 96.74
  A 0.30 0.30 0.0 0 0 114.83 97.20
  L 119.80 97.27
  A 0.30 0.30 0.0 0 0 120.10 96.97
  L 120.19 88.64
  A 0.30 0.30 0.0 0 0 119.63 88.48
  L 114.57 96.74
  Z"
/>
<path fill="#eb0a19" d="
  M 107.09 94.66
  A 0.19 0.18 77.6 0 1 106.93 94.92
  L 102.49 95.11
  Q 101.62 95.14 101.98 94.35
  Q 103.32 91.44 104.07 88.74
  Q 104.62 86.74 105.08 88.76
  Q 105.71 91.50 107.09 94.66
  Z"
/>
<path fill="#eb0a19" d="
  M 114.57 96.74
  L 119.63 88.48
  A 0.30 0.30 0.0 0 1 120.19 88.64
  L 120.10 96.97
  A 0.30 0.30 0.0 0 1 119.80 97.27
  L 114.83 97.20
  A 0.30 0.30 0.0 0 1 114.57 96.74
  Z"
/>
<path fill="#fae0e6" d="
  M 74.39 104.55
  Q 74.24 104.19 74.95 104.02
  Q 75.80 104.06 76.28 103.67
  Q 76.71 103.32 76.42 102.84
  Q 75.95 102.07 74.99 101.73
  Q 74.50 101.34 74.38 101.04
  Q 73.96 98.71 71.95 97.22
  A 0.35 0.35 0.0 0 1 71.82 96.91
  L 71.89 96.36
  Q 71.97 95.76 72.48 96.08
  Q 74.44 97.28 74.96 99.33
  Q 75.08 99.78 75.43 100.07
  L 78.46 102.59
  A 1.04 1.04 0.0 0 1 78.22 104.34
  Q 75.07 105.74 72.85 108.43
  A 0.47 0.47 0.0 0 1 72.13 108.43
  L 71.93 108.19
  A 0.72 0.71 -39.2 0 1 72.04 107.17
  Q 73.75 105.83 74.39 104.55
  Z"
/>
<path fill="#e3828c" d="
  M 74.38 101.04
  Q 74.50 101.34 74.99 101.73
  Q 74.23 102.78 74.95 104.02
  Q 74.24 104.19 74.39 104.55
  Q 73.73 102.74 74.38 101.04
  Z"
/>
<path fill="#d73f4b" d="
  M 74.99 101.73
  Q 75.95 102.07 76.42 102.84
  Q 76.71 103.32 76.28 103.67
  Q 75.80 104.06 74.95 104.02
  Q 74.23 102.78 74.99 101.73
  Z"
/>
<path fill="#fae0e6" d="
  M 109.20 107.60
  L 99.59 107.60
  Q 99.07 107.60 99.06 107.08
  Q 99.06 106.73 99.22 106.39
  L 107.08 106.51
  Q 107.60 106.51 108.06 106.25
  Q 108.37 106.07 108.73 106.07
  Q 109.27 106.08 109.48 106.58
  Q 109.72 107.15 109.20 107.60
  Z"
/>
<path fill="#f2e9e7" d="
  M 110.54 110.95
  Q 109.60 111.16 109.48 110.08
  Q 109.37 109.05 110.36 109.34
  Q 110.98 109.52 111.75 109.37
  Q 113.54 108.50 114.99 108.74
  Q 115.84 108.88 115.93 109.69
  Q 115.99 110.22 115.46 110.29
  L 110.54 110.95
  Z"
/>
<rect fill="#e3828c" x="-4.35" y="-0.78" transform="translate(122.44,109.62) rotate(-0.3)" width="8.70" height="1.56" rx="0.61"/>
<path fill="#fae0e6" d="
  M 74.64 114.58
  Q 74.90 114.49 75.15 114.59
  Q 75.32 114.66 75.47 114.80
  Q 77.51 116.77 78.74 119.49
  A 0.40 0.40 0.0 0 1 78.28 120.04
  L 74.48 119.12
  A 0.36 0.36 0.0 0 0 74.04 119.42
  Q 74.00 119.74 73.80 119.97
  Q 73.30 120.55 73.15 119.79
  Q 72.97 118.83 72.50 117.99
  Q 72.25 117.53 72.39 117.03
  Q 73.45 113.44 72.99 109.19
  A 0.11 0.11 0.0 0 1 73.09 109.06
  Q 73.87 108.99 74.27 109.75
  Q 74.50 110.19 74.46 110.67
  L 74.20 114.25
  A 0.33 0.33 0.0 0 0 74.64 114.58
  Z
  M 74.21 115.19
  Q 73.66 116.99 75.04 117.82
  A 0.40 0.40 0.0 0 0 75.62 117.32
  L 74.75 115.16
  Q 74.45 114.42 74.21 115.19
  Z"
/>
<path fill="#fae0e6" d="
  M 102.72 110.72
  Q 101.00 111.11 99.29 110.75
  A 0.63 0.63 0.0 0 1 98.88 109.82
  Q 99.20 109.26 99.77 109.58
  Q 100.23 109.83 100.75 109.73
  Q 102.80 109.33 104.85 109.28
  Q 106.41 109.23 105.50 110.50
  Q 104.87 111.38 103.94 110.88
  Q 103.37 110.57 102.72 110.72
  Z"
/>
<path fill="#e3828c" d="
  M 109.39 113.81
  Q 108.36 114.69 106.73 114.58
  L 97.54 114.49
  Q 97.03 114.48 96.91 113.99
  Q 96.87 113.83 96.88 113.67
  A 0.42 0.42 0.0 0 1 97.58 113.38
  Q 98.10 113.84 98.65 113.45
  Q 99.27 113.01 100.01 113.20
  Q 104.02 114.21 107.88 113.07
  Q 108.42 112.91 108.92 113.15
  Q 109.50 113.43 109.39 113.81
  Z"
/>
<path fill="#ad0202" d="
  M 74.21 115.19
  Q 74.45 114.42 74.75 115.16
  L 75.62 117.32
  A 0.40 0.40 0.0 0 1 75.04 117.82
  Q 73.66 116.99 74.21 115.19
  Z"
/>
<path fill="#e3828c" d="
  M 74.96 143.88
  Q 72.23 136.42 73.20 127.89
  Q 72.79 127.73 73.24 127.32
  Q 73.63 126.96 74.07 127.24
  L 76.20 128.61
  A 0.96 0.95 -70.0 0 1 76.64 129.56
  C 75.89 134.30 76.35 139.27 74.96 143.88
  Z"
/>
<path fill="#d73f4b" d="
  M 73.20 127.89
  Q 72.23 136.42 74.96 143.88
  L 75.52 184.93
  L 71.14 182.92
  Q 70.67 182.71 70.52 182.21
  Q 70.01 180.51 70.04 178.75
  Q 70.40 154.14 70.05 129.54
  Q 70.57 130.24 71.32 129.47
  Q 71.67 129.12 72.01 129.47
  Q 72.17 129.64 72.35 129.62
  Q 72.74 129.56 72.75 129.16
  Q 72.77 128.41 73.20 127.89
  Z"
/>
<path fill="#d73f4b" d="
  M 78.12 152.10
  Q 77.87 151.99 77.87 151.75
  Q 77.90 146.80 77.95 141.53
  C 77.99 137.61 78.96 133.58 79.16 129.50
  Q 79.27 127.32 79.94 129.40
  C 80.76 131.93 81.41 134.44 81.38 137.26
  Q 81.15 155.37 81.79 173.09
  A 0.55 0.55 0.0 0 1 81.20 173.66
  L 80.82 173.64
  Q 79.87 173.58 79.70 172.64
  Q 78.69 167.18 78.82 162.19
  C 78.91 158.85 78.42 155.80 78.36 152.47
  Q 78.36 152.20 78.12 152.10
  Z"
/>
<path fill="#d73f4b" d="
  M 151.94 162.52
  Q 152.97 164.78 153.54 167.25
  C 153.95 169.00 155.33 173.17 156.52 174.35
  Q 159.97 177.76 163.76 177.37
  Q 171.11 176.62 174.88 178.74
  L 102.95 185.86
  L 103.48 184.14
  Q 103.63 183.65 104.07 183.37
  C 105.10 182.73 105.80 182.06 106.95 181.55
  Q 110.05 180.17 112.14 177.25
  Q 112.52 176.73 112.43 175.18
  Q 112.40 174.69 112.72 174.32
  Q 113.71 173.17 115.37 173.05
  Q 116.82 172.95 118.02 172.20
  Q 119.60 171.22 120.78 169.73
  Q 121.09 169.35 121.58 169.35
  Q 122.13 169.35 122.47 168.87
  Q 122.70 168.54 123.09 168.46
  Q 124.51 168.18 126.08 168.52
  A 1.11 1.08 36.0 0 0 126.85 168.41
  Q 128.33 167.60 129.32 166.36
  Q 129.64 165.94 130.17 165.90
  Q 132.00 165.74 133.97 165.65
  Q 135.66 165.57 137.12 164.67
  Q 138.82 163.61 140.90 163.16
  A 1.72 1.71 -8.9 0 1 142.98 164.67
  C 143.09 165.87 143.97 166.31 144.44 167.35
  Q 145.68 170.06 147.05 172.52
  C 148.47 175.05 148.22 177.47 151.14 179.14
  Q 152.33 179.81 152.02 178.48
  Q 151.67 177.01 150.07 175.82
  Q 149.58 175.46 149.32 174.92
  L 144.38 164.39
  A 2.76 2.75 60.3 0 1 145.32 160.94
  L 147.59 159.39
  A 1.78 1.76 -40.9 0 1 149.78 159.54
  Q 150.96 160.61 151.94 162.52
  Z"
/>
</svg>
